<?xml version="1.0" standalone="no"?>
<!DOCTYPE svg PUBLIC "-//W3C//DTD SVG 1.1//EN" "http://www.w3.org/Graphics/SVG/1.1/DTD/svg11.dtd" >
<svg xmlns="http://www.w3.org/2000/svg" xmlns:xlink="http://www.w3.org/1999/xlink" version="1.1">
<metadata>
Created by FontForge 20201107 at Thu Oct 26 12:42:17 2023
 By 
Copyright 2022 The Noto Project Authors (https://github.com/notofonts/gujarati)
</metadata>
<defs>
<font id="NotoSansGujarati-Bold" horiz-adv-x="0" >
  <font-face 
    font-family="Noto Sans Gujarati"
    font-weight="700"
    font-stretch="normal"
    units-per-em="1000"
    panose-1="0 0 0 0 0 0 0 0 0 0"
    ascent="800"
    descent="-200"
    x-height="546"
    cap-height="714"
    bbox="-945 -394 1428 1036"
    underline-thickness="50"
    underline-position="-125"
    unicode-range="U+000D-A839"
  />
<missing-glyph horiz-adv-x="600" 
d="M94 0v714h411v-714h-411zM145 51h309v612h-309v-612z" />
    <glyph glyph-name=".notdef" horiz-adv-x="600" 
d="M94 0v714h411v-714h-411zM145 51h309v612h-309v-612z" />
    <glyph glyph-name=".null" 
 />
    <glyph glyph-name="nonmarkingreturn" horiz-adv-x="333" 
 />
    <glyph glyph-name="NULL" 
 />
    <glyph glyph-name="NULL" 
 />
    <glyph glyph-name="CR" unicode="&#xd;" horiz-adv-x="299" 
 />
    <glyph glyph-name="space" unicode=" " horiz-adv-x="260" 
 />
    <glyph glyph-name="exclam" unicode="!" horiz-adv-x="286" 
d="M203 237h-119l-25 477h169zM57 70q0 46 25 64.5t61 18.5q35 0 60 -18.5t25 -64.5q0 -44 -25 -63.5t-60 -19.5q-36 0 -61 19.5t-25 63.5z" />
    <glyph glyph-name="quotedbl" unicode="&#x22;" horiz-adv-x="472" 
d="M201 714l-20 -258h-96l-20 258h136zM407 714l-20 -258h-96l-20 258h136z" />
    <glyph glyph-name="numbersign" unicode="#" horiz-adv-x="646" 
d="M488 412l-23 -113h126v-101h-145l-38 -198h-107l38 198h-95l-37 -198h-105l36 198h-116v101h135l23 113h-123v102h141l38 199h107l-38 -199h97l38 199h105l-38 -199h117v-102h-136zM263 299h96l23 113h-96z" />
    <glyph glyph-name="dollar" unicode="$" horiz-adv-x="572" 
d="M253 40q-65 2 -116 12.5t-93 29.5v129q41 -20 99 -36.5t110 -19.5v151q-77 30 -123.5 58.5t-66.5 63.5t-20 84q0 50 26.5 86.5t74 58.5t109.5 27v75h67v-73q56 -2 105.5 -13t96.5 -32l-46 -114q-40 17 -80.5 26t-75.5 12v-144q54 -20 103 -43.5t79.5 -59.5t30.5 -95
q0 -73 -53 -122t-160 -59v-100h-67v98zM320 158q34 6 50 20.5t16 37.5q0 14 -7.5 24.5t-22 20t-36.5 19.5v-122zM253 563q-20 -3 -34 -9.5t-21.5 -17t-7.5 -24.5t6.5 -24.5t20.5 -20t36 -19.5v115z" />
    <glyph glyph-name="percent" unicode="%" horiz-adv-x="901" 
d="M199 724q84 0 127.5 -58.5t43.5 -164.5t-41 -165.5t-130 -59.5q-82 0 -125 59.5t-43 165.5t40 164.5t128 58.5zM200 622q-24 0 -35 -30t-11 -91q0 -62 11 -93t35 -31t35.5 31t11.5 92q0 62 -11.5 92t-35.5 30zM706 714l-396 -714h-117l396 714h117zM699 439
q84 0 127.5 -58.5t43.5 -164.5t-41 -165.5t-130 -59.5q-82 0 -125 59.5t-43 165.5t40 164.5t128 58.5zM700 337q-24 0 -35 -30t-11 -92q0 -61 11 -92t35 -31t35.5 30.5t11.5 92.5t-11.5 92t-35.5 30z" />
    <glyph glyph-name="ampersand" unicode="&#x26;" horiz-adv-x="750" 
d="M310 724q58 0 103 -18t71 -52.5t26 -84.5q0 -69 -41 -116t-102 -82l139 -135q20 34 35 71.5t25 75.5h155q-15 -56 -44 -120t-74 -120l147 -143h-184l-56 55q-29 -20 -62 -34.5t-70 -22.5t-79 -8q-81 0 -139 25.5t-89 71.5t-31 106q0 51 15.5 87.5t45 64t70.5 50.5
q-26 30 -41.5 56.5t-22 52.5t-6.5 55q0 51 26.5 88t74 57t108.5 20zM258 306q-19 -14 -32.5 -29t-21 -32t-7.5 -38q0 -43 32 -67.5t80 -24.5q32 0 60 8t51 22zM309 609q-25 0 -47.5 -12.5t-22.5 -47.5q0 -25 12.5 -48t33.5 -47q42 23 64.5 46t22.5 53t-20 43t-43 13z" />
    <glyph glyph-name="quotesingle" unicode="'" horiz-adv-x="266" 
d="M201 714l-20 -258h-96l-20 258h136z" />
    <glyph glyph-name="parenleft" unicode="(" horiz-adv-x="339" 
d="M40 274q0 82 15.5 160t48.5 149t83 131h122q-68 -94 -103.5 -207t-35.5 -232q0 -77 16 -153.5t46.5 -147t75.5 -132.5h-121q-50 59 -83 128.5t-48.5 146.5t-15.5 157z" />
    <glyph glyph-name="parenright" unicode=")" horiz-adv-x="339" 
d="M299 274q0 -80 -15.5 -157t-48 -146.5t-83.5 -128.5h-121q45 62 75.5 132.5t46.5 147t16 153.5q0 79 -16 156t-46.5 149t-76.5 134h122q51 -60 83.5 -131t48 -149t15.5 -160z" />
    <glyph glyph-name="asterisk" unicode="*" horiz-adv-x="545" 
d="M336 760l-20 -180l182 51l16 -123l-166 -12l109 -145l-111 -59l-76 153l-67 -152l-115 58l108 145l-165 13l19 122l178 -51l-20 180h128z" />
    <glyph glyph-name="plus" unicode="+" horiz-adv-x="572" 
d="M339 406h189v-107h-189v-188h-107v188h-189v107h189v190h107v-190z" />
    <glyph glyph-name="comma" unicode="," horiz-adv-x="285" 
d="M224 105q-9 -35 -23 -75.5t-30 -81t-33 -77.5h-107q10 40 19 83.5t17 85.5t13 76h137z" />
    <glyph glyph-name="hyphen" unicode="-" horiz-adv-x="322" 
d="M30 207v122h262v-122h-262z" />
    <glyph glyph-name="period" unicode="." horiz-adv-x="285" 
d="M57 70q0 46 25 64.5t61 18.5q35 0 60 -18.5t25 -64.5q0 -44 -25 -63.5t-60 -19.5q-36 0 -61 19.5t-25 63.5z" />
    <glyph glyph-name="slash" unicode="/" horiz-adv-x="413" 
d="M408 714l-266 -714h-135l266 714h135z" />
    <glyph glyph-name="zero" unicode="0" horiz-adv-x="572" 
d="M535 357q0 -86 -13.5 -154t-43 -115.5t-77 -72.5t-116.5 -25q-86 0 -141 44t-81.5 126t-26.5 197q0 116 24 198t79 126t146 44q86 0 141 -43.5t82 -126t27 -198.5zM186 357q0 -81 9 -135.5t30.5 -82t59.5 -27.5t59.5 27t31 81.5t9.5 136.5t-9.5 136.5t-31 82t-59.5 27.5
t-59.5 -27.5t-30.5 -82t-9 -136.5z" />
    <glyph glyph-name="one" unicode="1" horiz-adv-x="572" 
d="M413 0h-151v413q0 17 0.5 42t1.5 52t2 48q-5 -6 -21.5 -21.5t-30.5 -27.5l-82 -66l-73 91l230 183h124v-714z" />
    <glyph glyph-name="two" unicode="2" horiz-adv-x="572" 
d="M539 0h-499v105l179 181q54 56 87 93.5t48 68t15 65.5q0 43 -23.5 64t-63.5 21q-41 0 -80 -19t-82 -54l-82 97q31 27 65.5 50t80 37.5t109.5 14.5q70 0 120.5 -25.5t78 -69t27.5 -98.5q0 -59 -23.5 -108t-68 -97t-107.5 -106l-92 -86v-7h311v-127z" />
    <glyph glyph-name="three" unicode="3" horiz-adv-x="572" 
d="M511 554q0 -49 -20.5 -85t-55 -59t-78.5 -34v-3q86 -10 130.5 -52t44.5 -113q0 -62 -30.5 -111.5t-94 -78t-163.5 -28.5q-59 0 -110 10t-96 29v128q46 -23 96.5 -35t93.5 -12q81 0 113.5 28t32.5 79q0 30 -15 50.5t-52.5 31t-104.5 10.5h-54v116h55q66 0 100.5 12.5
t47 34t12.5 49.5q0 38 -23.5 59.5t-78.5 21.5q-34 0 -62 -8.5t-50.5 -20.5t-39.5 -23l-70 104q42 30 98.5 50t134.5 20q110 0 174.5 -44.5t64.5 -125.5z" />
    <glyph glyph-name="four" unicode="4" horiz-adv-x="572" 
d="M555 148h-86v-148h-147v148h-305v105l313 461h139v-449h86v-117zM322 386q0 17 0.5 40.5t1.5 47t2 42t2 25.5h-4q-9 -20 -19 -39t-24 -39l-131 -198h172v121z" />
    <glyph glyph-name="five" unicode="5" horiz-adv-x="572" 
d="M300 456q65 0 116 -25t80.5 -73t29.5 -119q0 -77 -32 -133t-95.5 -86t-157.5 -30q-56 0 -105.5 10t-86.5 29v130q37 -19 89 -32.5t98 -13.5q45 0 75.5 12t46.5 37t16 64q0 53 -35 80.5t-108 27.5q-28 0 -58 -5.5t-50 -10.5l-60 32l27 364h387v-128h-255l-13 -140
q17 3 36.5 6.5t54.5 3.5z" />
    <glyph glyph-name="six" unicode="6" horiz-adv-x="572" 
d="M35 303q0 62 9 122t31.5 113.5t63 95t103 65t151.5 23.5q21 0 49 -1.5t47 -5.5v-121q-19 5 -41.5 7.5t-44.5 2.5q-67 0 -110.5 -16t-68.5 -46t-36.5 -70.5t-13.5 -90.5h6q14 24 34.5 42.5t50.5 29.5t70 11q63 0 108.5 -26.5t70.5 -77t25 -122.5q0 -77 -29.5 -133
t-84 -85.5t-129.5 -29.5q-55 0 -102.5 19t-83 57.5t-55.5 97.5t-20 139zM293 111q44 0 72 30.5t28 94.5q0 52 -24 82t-73 30q-33 0 -58 -14.5t-39 -37.5t-14 -47q0 -25 7 -49.5t20.5 -44.5t33.5 -32t47 -12z" />
    <glyph glyph-name="seven" unicode="7" horiz-adv-x="572" 
d="M111 0l268 587h-352v127h512v-95l-270 -619h-158z" />
    <glyph glyph-name="eight" unicode="8" horiz-adv-x="572" 
d="M286 723q62 0 113.5 -19t83 -57t31.5 -96q0 -43 -17 -75.5t-45.5 -56.5t-65.5 -42q38 -20 72.5 -46.5t56 -62t21.5 -83.5q0 -59 -31.5 -103t-88 -68t-130.5 -24q-80 0 -136 23t-85.5 66t-29.5 102q0 49 18.5 85t49.5 62.5t69 44.5q-32 20 -58 45.5t-41.5 58t-15.5 75.5
q0 57 32 95t84.5 57t112.5 19zM175 190q0 -39 27.5 -64t81.5 -25q56 0 84 24t28 64q0 27 -16 47.5t-39.5 37t-48.5 30.5l-13 7q-31 -14 -54.5 -32t-36.5 -39.5t-13 -49.5zM285 613q-37 0 -61.5 -19t-24.5 -54q0 -24 12 -42.5t32 -32t43 -25.5q23 11 42.5 24t31.5 31.5
t12 44.5q0 35 -24.5 54t-62.5 19z" />
    <glyph glyph-name="nine" unicode="9" horiz-adv-x="572" 
d="M536 409q0 -61 -9 -121.5t-31.5 -114t-63 -95t-103 -65t-151.5 -23.5q-21 0 -49 1.5t-47 5.5v121q20 -4 42 -7t44 -3q67 0 110.5 16t68.5 46t36.5 71t13.5 90h-6q-14 -23 -33.5 -42t-49 -30t-75.5 -11q-61 0 -106 26.5t-70 77t-25 122.5q0 78 29.5 133.5t84.5 85
t129 29.5q55 0 102.5 -19t83 -57.5t55.5 -97.5t20 -139zM278 601q-44 0 -72 -30t-28 -95q0 -52 24 -82t73 -30q34 0 58.5 15t38.5 37.5t14 46.5q0 25 -7 49.5t-20.5 44.5t-33.5 32t-47 12z" />
    <glyph glyph-name="colon" unicode=":" horiz-adv-x="285" 
d="M57 70q0 46 25 64.5t61 18.5q35 0 60 -18.5t25 -64.5q0 -44 -25 -63.5t-60 -19.5q-36 0 -61 19.5t-25 63.5zM57 473q0 46 25 64.5t61 18.5q35 0 60 -18.5t25 -64.5q0 -44 -25 -63.5t-60 -19.5q-36 0 -61 19.5t-25 63.5z" />
    <glyph glyph-name="semicolon" unicode=";" horiz-adv-x="285" 
d="M224 105q-9 -35 -23 -75.5t-30 -81t-33 -77.5h-107q7 30 14 62t13.5 64.5t12 62.5t9.5 56h137zM57 473q0 46 25 64.5t61 18.5q35 0 60 -18.5t25 -64.5q0 -44 -25 -63.5t-60 -19.5q-36 0 -61 19.5t-25 63.5z" />
    <glyph glyph-name="less" unicode="&#x3c;" horiz-adv-x="572" 
d="M528 99l-485 214v70l485 242v-117l-334 -155l334 -137v-117z" />
    <glyph glyph-name="equal" unicode="=" horiz-adv-x="572" 
d="M43 394v106h485v-106h-485zM43 204v107h485v-107h-485z" />
    <glyph glyph-name="greater" unicode="&#x3e;" horiz-adv-x="572" 
d="M43 216l334 137l-334 155v117l485 -242v-70l-485 -214v117z" />
    <glyph glyph-name="question" unicode="?" horiz-adv-x="477" 
d="M135 273q0 33 9 59t29.5 49t54.5 47q30 22 48.5 39t27 34t8.5 38q0 32 -23.5 48.5t-65.5 16.5t-83 -13t-84 -35l-53 107q49 27 106 44t125 17q104 0 161.5 -50t57.5 -127q0 -41 -13 -71t-39 -55.5t-65 -54.5q-29 -21 -45 -36t-21.5 -29t-5.5 -35v-29h-129v36zM119 70
q0 46 25 64.5t61 18.5q35 0 60 -18.5t25 -64.5q0 -44 -25 -63.5t-60 -19.5q-36 0 -61 19.5t-25 63.5z" />
    <glyph glyph-name="at" unicode="@" horiz-adv-x="897" 
d="M847 358q0 -46 -11 -91t-33.5 -82t-56.5 -58.5t-80 -21.5q-37 0 -65 17.5t-39 45.5h-8q-20 -25 -53.5 -44t-80.5 -19q-89 0 -137.5 53.5t-48.5 140.5q0 67 29 118.5t82 81t125 29.5q47 0 97.5 -8.5t78.5 -18.5l-10 -205q-1 -10 -1 -20.5v-13.5q0 -41 11.5 -54.5
t25.5 -13.5q23 0 38 22.5t22.5 60t7.5 82.5q0 84 -34 142.5t-92.5 89.5t-133.5 31q-79 0 -139 -25t-101 -70t-61.5 -106t-20.5 -133q0 -90 32.5 -152.5t95 -94.5t153.5 -32q58 0 121 13t115 32v-94q-48 -20 -107 -32t-125 -12q-124 0 -212 44t-134.5 126.5t-46.5 198.5
q0 91 30 169t86.5 136.5t135.5 91t177 32.5q80 0 147.5 -24.5t117 -71t76.5 -112t27 -148.5zM347 297q0 -55 23 -79t61 -24q50 0 70.5 36.5t24.5 95.5l6 108q-11 2 -25 3.5t-31 1.5q-47 0 -75.5 -20.5t-41 -53t-12.5 -68.5z" />
    <glyph glyph-name="A" unicode="A" horiz-adv-x="690" 
d="M527 0l-52 170h-260l-52 -170h-163l252 717h185l253 -717h-163zM387 463q-5 17 -13 43t-16 53t-13 47q-5 -20 -13.5 -49.5t-16 -56t-11.5 -37.5l-51 -166h186z" />
    <glyph glyph-name="B" unicode="B" horiz-adv-x="672" 
d="M312 714q143 0 216 -40t73 -141q0 -40 -13 -73t-37.5 -54t-59.5 -27v-5q36 -7 65 -25t46 -52t17 -90q0 -65 -31.5 -111.5t-90.5 -71t-140 -24.5h-267v714h222zM329 431q66 0 91.5 21t25.5 61q0 41 -30 59t-95 18h-80v-159h88zM241 311v-186h99q68 0 95 26.5t27 70.5
q0 27 -11.5 47t-39.5 31t-76 11h-94z" />
    <glyph glyph-name="C" unicode="C" horiz-adv-x="637" 
d="M393 598q-43 0 -76.5 -17t-56.5 -48.5t-34.5 -76.5t-11.5 -101q0 -76 18.5 -129.5t58.5 -81.5t102 -28q44 0 87.5 10t94.5 28v-127q-47 -19 -93 -28t-103 -9q-110 0 -181.5 45.5t-105.5 128t-34 192.5q0 81 22 148.5t64.5 116.5t105 76t143.5 27q53 0 106.5 -13.5
t102.5 -36.5l-49 -123q-40 19 -80.5 33t-79.5 14z" />
    <glyph glyph-name="D" unicode="D" horiz-adv-x="740" 
d="M682 364q0 -120 -46 -201t-133.5 -122t-210.5 -41h-202v714h224q112 0 194.5 -40t128 -117.5t45.5 -192.5zM525 360q0 79 -23 130t-68.5 75.5t-111.5 24.5h-81v-465h65q111 0 165 59t54 176z" />
    <glyph glyph-name="E" unicode="E" horiz-adv-x="560" 
d="M501 0h-411v714h411v-124h-260v-157h242v-124h-242v-184h260v-125z" />
    <glyph glyph-name="F" unicode="F" horiz-adv-x="549" 
d="M239 0h-149v714h409v-124h-260v-184h242v-124h-242v-282z" />
    <glyph glyph-name="G" unicode="G" horiz-adv-x="724" 
d="M361 401h283v-370q-56 -19 -116.5 -30t-137.5 -11q-106 0 -180.5 42t-113 124t-38.5 202q0 112 43.5 194t126.5 127t203 45q57 0 112 -12t100 -32l-50 -121q-33 17 -75 28t-88 11q-66 0 -114.5 -30t-75 -84.5t-26.5 -128.5q0 -70 19 -124t60 -84.5t107 -30.5q32 0 54.5 3
t41.5 7v149h-135v126z" />
    <glyph glyph-name="H" unicode="H" horiz-adv-x="765" 
d="M675 0h-151v308h-283v-308h-151v714h151v-280h283v280h151v-714z" />
    <glyph glyph-name="I" unicode="I" horiz-adv-x="389" 
d="M357 0h-325v86l87 40v462l-87 40v86h325v-86l-87 -40v-462l87 -40v-86z" />
    <glyph glyph-name="J" unicode="J" horiz-adv-x="331" 
d="M15 -210q-29 0 -51 3.5t-38 7.5v126q16 -4 33.5 -7t37.5 -3q26 0 47.5 10t33.5 38t12 80v669h151v-668q0 -92 -28.5 -148.5t-79.5 -82t-118 -25.5z" />
    <glyph glyph-name="K" unicode="K" horiz-adv-x="664" 
d="M664 0h-172l-187 301l-64 -46v-255h-151v714h151v-327l30 42l30 42l193 243h168l-249 -316z" />
    <glyph glyph-name="L" unicode="L" horiz-adv-x="565" 
d="M90 0v714h151v-589h290v-125h-441z" />
    <glyph glyph-name="M" unicode="M" horiz-adv-x="943" 
d="M392 0l-172 560h-4l3 -60t4 -85.5t2 -82.5v-332h-135v714h206l169 -546h3l179 546h206v-714h-141v338q0 34 1.5 78t3 83.5t2.5 59.5h-4l-184 -559h-139z" />
    <glyph glyph-name="N" unicode="N" horiz-adv-x="813" 
d="M723 0h-192l-311 540h-4q2 -34 3.5 -68l3 -68t2.5 -68v-336h-135v714h191l310 -535h3l-2 66t-2.5 65.5t-2.5 65.5v338h136v-714z" />
    <glyph glyph-name="O" unicode="O" horiz-adv-x="796" 
d="M738 358q0 -83 -20.5 -150.5t-62 -116.5t-106 -75t-151.5 -26t-151.5 26.5t-106 75t-62 116.5t-20.5 151q0 111 36.5 193t112 127.5t192.5 45.5q116 0 191 -45.5t111.5 -128t36.5 -193.5zM217 358q0 -75 19 -129t59 -83t103 -29q65 0 104.5 29t58 83t18.5 129
q0 113 -42 177t-138 64q-64 0 -104 -29t-59 -83t-19 -129z" />
    <glyph glyph-name="P" unicode="P" horiz-adv-x="628" 
d="M318 714q138 0 201.5 -59.5t63.5 -163.5q0 -47 -14 -89.5t-46.5 -76t-85.5 -52.5t-131 -19h-65v-254h-151v714h228zM310 590h-69v-212h50q43 0 74 11t48 35t17 62q0 53 -29 78.5t-91 25.5z" />
    <glyph glyph-name="Q" unicode="Q" horiz-adv-x="796" 
d="M738 358q0 -80 -19 -146t-58 -114.5t-99 -75.5l172 -192h-194l-131 160h-5.5h-5.5q-87 0 -151.5 26.5t-106 75t-62 116.5t-20.5 151q0 111 36.5 193t112 127.5t192.5 45.5q116 0 191 -45.5t111.5 -128t36.5 -193.5zM217 358q0 -75 19 -129t59 -83t103 -29q65 0 104.5 29
t58 83t18.5 129q0 113 -42 177t-138 64q-64 0 -104 -29t-59 -83t-19 -129z" />
    <glyph glyph-name="R" unicode="R" horiz-adv-x="660" 
d="M298 714q97 0 160 -23.5t94 -71t31 -119.5q0 -49 -18.5 -85.5t-49 -62t-65.5 -41.5l210 -311h-168l-170 274h-81v-274h-151v714h208zM287 590h-46v-193h49q75 0 107.5 25t32.5 74q0 34 -15.5 54.5t-47 30t-80.5 9.5z" />
    <glyph glyph-name="S" unicode="S" horiz-adv-x="551" 
d="M511 198q0 -63 -31 -110t-89.5 -72.5t-142.5 -25.5q-37 0 -72.5 5t-68 14.5t-61.5 23.5v141q51 -22 105.5 -40.5t108.5 -18.5q37 0 59.5 10t33 27t10.5 39q0 27 -18.5 46t-49.5 35.5t-71 35.5q-25 12 -54 28.5t-55.5 41t-43.5 59.5t-17 84q0 64 29.5 109.5t84 69.5
t128.5 24q56 0 106.5 -13t105.5 -37l-49 -118q-49 20 -88 31t-80 11q-28 0 -48 -9t-30.5 -25t-10.5 -38q0 -25 15 -42.5t45 -33.5t75 -38q55 -26 93.5 -54t59.5 -66t21 -94z" />
    <glyph glyph-name="T" unicode="T" horiz-adv-x="579" 
d="M365 0h-151v588h-194v126h539v-126h-194v-588z" />
    <glyph glyph-name="U" unicode="U" horiz-adv-x="756" 
d="M671 252q0 -74 -32.5 -133.5t-98 -94t-165.5 -34.5q-142 0 -216 72.5t-74 191.5v460h151v-437q0 -88 36 -124t107 -36q50 0 81 17t45.5 53t14.5 91v436h151v-462z" />
    <glyph glyph-name="V" unicode="V" horiz-adv-x="650" 
d="M650 714l-243 -714h-165l-242 714h153l134 -425q4 -11 11.5 -40.5t15.5 -62t11 -54.5q3 22 10.5 54.5t15.5 62t11 40.5l135 425h153z" />
    <glyph glyph-name="W" unicode="W" horiz-adv-x="967" 
d="M967 714l-182 -714h-172l-97 375q-3 11 -7.5 33t-10 48t-9.5 49.5t-6 36.5q-1 -13 -5.5 -36.5t-9.5 -49t-10 -48t-8 -34.5l-96 -374h-172l-182 714h149l91 -390q4 -17 9 -41.5t10 -51t9.5 -51.5t6.5 -43q2 19 6 43.5t9 50t9.5 48t8.5 35.5l104 400h143l104 -400
q3 -13 8 -35.5t10 -48.5t9 -50.5t6 -42.5q3 25 9 59.5t13.5 69.5t12.5 58l91 390h149z" />
    <glyph glyph-name="X" unicode="X" horiz-adv-x="667" 
d="M667 0h-173l-166 270l-166 -270h-162l237 368l-222 346h167l154 -257l151 257h163l-224 -354z" />
    <glyph glyph-name="Y" unicode="Y" horiz-adv-x="624" 
d="M312 420l149 294h163l-237 -436v-278h-150v273l-237 441h164z" />
    <glyph glyph-name="Z" unicode="Z" horiz-adv-x="579" 
d="M555 0h-531v98l342 491h-333v125h513v-98l-342 -491h351v-125z" />
    <glyph glyph-name="bracketleft" unicode="[" horiz-adv-x="331" 
d="M306 -158h-236v872h236v-103h-109v-666h109v-103z" />
    <glyph glyph-name="backslash" unicode="\" horiz-adv-x="413" 
d="M141 714l266 -714h-135l-266 714h135z" />
    <glyph glyph-name="bracketright" unicode="]" horiz-adv-x="331" 
d="M25 -55h109v666h-109v103h236v-872h-236v103z" />
    <glyph glyph-name="asciicircum" unicode="^" horiz-adv-x="572" 
d="M23 254l214 464h70l242 -464h-117l-157 314l-137 -314h-115z" />
    <glyph glyph-name="underscore" unicode="_" horiz-adv-x="411" 
d="M413 -158h-415v68h415v-68z" />
    <glyph glyph-name="grave" unicode="`" horiz-adv-x="362" 
d="M207 766q15 -22 35.5 -49.5t42 -53t37.5 -44.5v-13h-99q-19 13 -44.5 32.5t-52 41.5t-49.5 42t-37 34v10h167z" />
    <glyph glyph-name="a" unicode="a" horiz-adv-x="604" 
d="M302 557q110 0 168.5 -47.5t58.5 -145.5v-364h-104l-29 74h-4q-23 -29 -47.5 -48t-56 -27.5t-77.5 -8.5q-48 0 -86.5 18.5t-60.5 57t-22 97.5q0 87 61 128.5t183 45.5l95 3v24q0 43 -22.5 63t-62.5 20t-78 -11.5t-76 -28.5l-49 101q44 23 97.5 36t111.5 13zM323 251
q-72 -2 -100 -26t-28 -63q0 -34 20 -48.5t52 -14.5q48 0 81 28.5t33 80.5v45z" />
    <glyph glyph-name="b" unicode="b" horiz-adv-x="633" 
d="M227 583q0 -31 -2 -61t-4 -47h6q22 34 59 57.5t96 23.5q92 0 149 -71.5t57 -210.5q0 -93 -26.5 -156.5t-73.5 -95.5t-110 -32q-60 0 -94.5 21.5t-56.5 48.5h-10l-25 -60h-114v760h149v-177zM334 437q-39 0 -62 -16t-33.5 -48.5t-11.5 -81.5v-16q0 -79 23.5 -121.5
t85.5 -42.5q46 0 73 42.5t27 122.5t-27.5 120.5t-74.5 40.5z" />
    <glyph glyph-name="c" unicode="c" horiz-adv-x="514" 
d="M300 -10q-81 0 -138 29.5t-87 91.5t-30 159q0 100 34 163t94.5 93t139.5 30q56 0 97.5 -11t72.5 -26l-44 -115q-35 14 -65.5 23t-60.5 9q-39 0 -65 -18.5t-38.5 -55t-12.5 -91.5q0 -54 13.5 -89.5t39.5 -53t63 -17.5q47 0 83 12.5t70 34.5v-127q-34 -22 -71.5 -31.5
t-94.5 -9.5z" />
    <glyph glyph-name="d" unicode="d" horiz-adv-x="633" 
d="M251 -10q-91 0 -148.5 71.5t-57.5 210.5q0 140 58 212t152 72q39 0 69 -10.5t51.5 -28.5t36.5 -41h5q-3 16 -7 46.5t-4 62.5v175h149v-760h-114l-29 71h-6q-14 -22 -35.5 -40.5t-50.5 -29.5t-69 -11zM303 109q62 0 87 36.5t26 109.5v16q0 80 -24.5 122t-90.5 42
q-49 0 -77 -42.5t-28 -122.5t28 -120.5t79 -40.5z" />
    <glyph glyph-name="e" unicode="e" horiz-adv-x="591" 
d="M303 556q76 0 130.5 -29t84.5 -84t30 -135v-72h-352q2 -63 37.5 -99t98.5 -36q53 0 96 10.5t89 32.5v-115q-40 -20 -84.5 -29.5t-107.5 -9.5q-82 0 -145 30.5t-99 92.5t-36 156q0 96 32.5 159.5t90.5 95.5t135 32zM304 450q-43 0 -71.5 -28t-33.5 -87h209q0 33 -11.5 59
t-34.5 41t-58 15z" />
    <glyph glyph-name="f" unicode="f" horiz-adv-x="387" 
d="M380 434h-129v-434h-149v434h-82v72l82 40v40q0 70 23.5 108.5t67 54.5t102.5 16q44 0 79.5 -7t57.5 -16l-38 -109q-17 5 -37 9.5t-46 4.5q-31 0 -45.5 -19t-14.5 -48v-34h129v-112z" />
    <glyph glyph-name="g" unicode="g" horiz-adv-x="633" 
d="M255 556q50 0 90 -20t68 -60h4l12 70h126v-547q0 -78 -30.5 -131t-91.5 -80.5t-151 -27.5q-58 0 -107.5 7t-96.5 25v119q50 -21 103.5 -31.5t109.5 -10.5q58 0 86.5 31t28.5 93v11q0 17 1.5 35t2.5 32h-4q-28 -43 -67 -62t-88 -19q-97 0 -151.5 74.5t-54.5 207.5
q0 134 56 209t154 75zM302 435q-35 0 -58.5 -18.5t-35 -55t-11.5 -91.5q0 -82 26 -122.5t81 -40.5q29 0 50 7.5t34.5 25t20.5 45.5t7 68v18q0 59 -12 95t-37 52.5t-65 16.5z" />
    <glyph glyph-name="h" unicode="h" horiz-adv-x="657" 
d="M227 605q0 -40 -2.5 -77t-4.5 -52h8q18 28 42 45.5t53.5 26t62.5 8.5q59 0 103 -21t68.5 -65t24.5 -114v-356h-149v319q0 59 -21.5 88.5t-66.5 29.5t-70.5 -21t-36.5 -61t-11 -98v-257h-149v760h149v-155z" />
    <glyph glyph-name="i" unicode="i" horiz-adv-x="305" 
d="M227 546v-546h-149v546h149zM153 760q33 0 57 -15.5t24 -57.5q0 -41 -24 -57t-57 -16q-34 0 -57.5 16t-23.5 57q0 42 23.5 57.5t57.5 15.5z" />
    <glyph glyph-name="j" unicode="j" horiz-adv-x="305" 
d="M34 -240q-25 0 -52.5 3.5t-45.5 8.5v117q18 -4 34 -6.5t36 -2.5q30 0 51 17t21 66v583h149v-605q0 -50 -19 -91t-61.5 -65.5t-112.5 -24.5zM72 687q0 42 23.5 57.5t57.5 15.5q33 0 57 -15.5t24 -57.5q0 -41 -24 -57t-57 -16q-34 0 -57.5 16t-23.5 57z" />
    <glyph glyph-name="k" unicode="k" horiz-adv-x="620" 
d="M227 420q0 -31 -2.5 -61.5t-5.5 -61.5h2q10 14 20.5 28t21.5 28t23 27l153 166h168l-217 -237l230 -309h-172l-157 221l-64 -51v-170h-149v760h149v-340z" />
    <glyph glyph-name="l" unicode="l" horiz-adv-x="305" 
d="M227 0h-149v760h149v-760z" />
    <glyph glyph-name="m" unicode="m" horiz-adv-x="982" 
d="M719 556q93 0 140.5 -47.5t47.5 -152.5v-356h-149v319q0 59 -20 88.5t-62 29.5q-59 0 -84 -42t-25 -121v-274h-149v319q0 39 -9 65t-27 39.5t-46 13.5q-41 0 -65 -21t-34 -61t-10 -98v-257h-149v546h114l20 -70h8q17 28 42 45.5t55.5 26t61.5 8.5q60 0 102 -19.5
t64 -60.5h13q25 42 69.5 61t91.5 19z" />
    <glyph glyph-name="n" unicode="n" horiz-adv-x="657" 
d="M388 556q88 0 141 -47.5t53 -152.5v-356h-149v319q0 59 -21 88.5t-67 29.5q-68 0 -93 -46.5t-25 -133.5v-257h-149v546h114l20 -70h8q18 28 44 45.5t58 26t66 8.5z" />
    <glyph glyph-name="o" unicode="o" horiz-adv-x="619" 
d="M574 274q0 -68 -18.5 -121t-53 -89.5t-83.5 -55t-111 -18.5q-57 0 -105.5 18.5t-83.5 55t-54.5 89.5t-19.5 121q0 91 32 153.5t92 95.5t142 33q77 0 136 -33t93 -95.5t34 -153.5zM197 274q0 -54 11.5 -90.5t36.5 -55t65 -18.5t64.5 18.5t36 55t11.5 90.5t-11.5 90
t-36.5 54t-65 18q-59 0 -85.5 -40.5t-26.5 -121.5z" />
    <glyph glyph-name="p" unicode="p" horiz-adv-x="633" 
d="M382 556q92 0 149 -71.5t57 -210.5q0 -93 -27 -156.5t-74 -95.5t-109 -32q-39 0 -67.5 10t-48.5 26t-35 34h-8q4 -19 6 -39.5t2 -40.5v-220h-149v786h121l21 -71h7q15 22 36 40.5t50.5 29.5t68.5 11zM334 437q-39 0 -62 -16t-33.5 -48.5t-11.5 -81.5v-16q0 -53 10 -89.5
t34 -55.5t65 -19q34 0 56 19t33 56t11 90q0 80 -24.5 120.5t-77.5 40.5z" />
    <glyph glyph-name="q" unicode="q" horiz-adv-x="633" 
d="M406 -11q0 20 1.5 41t4.5 41h-6q-21 -34 -58 -57.5t-97 -23.5q-92 0 -149 71.5t-57 210.5q0 93 26.5 156.5t73.5 95.5t109 32q60 0 97.5 -23t60.5 -57h4l13 70h126v-786h-149v229zM304 107q41 0 65 16t35 48.5t12 81.5v18q0 80 -24.5 122t-89.5 42q-53 0 -79 -42.5
t-26 -122.5q0 -82 26 -122.5t81 -40.5z" />
    <glyph glyph-name="r" unicode="r" horiz-adv-x="454" 
d="M383 556q11 0 26 -1t24 -3l-11 -140q-7 2 -20.5 3.5t-23.5 1.5q-29 0 -56 -7.5t-48.5 -23.5t-34 -42.5t-12.5 -65.5v-278h-149v546h113l22 -92h7q16 28 40 51t55.5 37t67.5 14z" />
    <glyph glyph-name="s" unicode="s" horiz-adv-x="497" 
d="M459 162q0 -55 -26 -93.5t-78 -58.5t-129 -20q-57 0 -98 7.5t-82 24.5v123q44 -20 95 -33t90 -13q44 0 62.5 13t18.5 34q0 14 -7.5 25t-32.5 25t-78 36q-51 22 -84 43.5t-49 52t-16 76.5q0 76 59 114t157 38q51 0 97 -10t95 -33l-45 -107q-40 17 -76 28.5t-73 11.5
q-33 0 -49.5 -9t-16.5 -27q0 -13 8.5 -23.5t33 -22.5t72.5 -32q47 -19 81 -39.5t52.5 -51t18.5 -79.5z" />
    <glyph glyph-name="t" unicode="t" horiz-adv-x="434" 
d="M308 109q25 0 48 5t46 12v-111q-24 -10 -59.5 -17.5t-77.5 -7.5q-49 0 -87.5 16t-61 55.5t-22.5 109.5v263h-71v63l82 50l43 115h95v-116h153v-112h-153v-263q0 -31 18 -46.5t47 -15.5z" />
    <glyph glyph-name="u" unicode="u" horiz-adv-x="657" 
d="M579 546v-546h-114l-20 70h-8q-17 -28 -43.5 -45.5t-58.5 -26t-66 -8.5q-58 0 -102 21t-68 65t-24 114v356h149v-319q0 -58 21 -88t67 -30t71.5 21t36 61t10.5 98v257h149z" />
    <glyph glyph-name="v" unicode="v" horiz-adv-x="569" 
d="M208 0l-208 546h156l105 -311q6 -18 10.5 -38t7 -39t3.5 -35h4q1 17 4 36t7.5 38.5t10.5 37.5l105 311h156l-208 -546h-153z" />
    <glyph glyph-name="w" unicode="w" horiz-adv-x="856" 
d="M485 191q-4 17 -11.5 50.5t-16.5 72t-17 71t-11 47.5h-4q-3 -15 -10.5 -47.5t-16.5 -71t-17 -72.5t-12 -52l-44 -189h-160l-155 546h148l63 -242q7 -25 12.5 -60t10.5 -67.5t7 -51.5h4q1 14 4 37.5t7.5 48.5t8 45.5t5.5 27.5l67 262h164l64 -262q4 -14 9.5 -45t10 -63
t4.5 -51h4q2 17 7 49.5t11.5 68.5t13.5 61l65 242h146l-157 -546h-162z" />
    <glyph glyph-name="x" unicode="x" horiz-adv-x="578" 
d="M190 279l-176 267h169l106 -174l107 174h169l-178 -267l186 -279h-169l-115 187l-115 -187h-169z" />
    <glyph glyph-name="y" unicode="y" horiz-adv-x="569" 
d="M0 546h163l103 -307q5 -15 8.5 -30t6 -31t3.5 -34h3q3 26 8.5 49.5t12.5 45.5l101 307h160l-231 -616q-21 -56 -54.5 -94t-77.5 -57t-96 -19q-25 0 -43.5 2.5t-32.5 5.5v118q11 -2 26.5 -4t32.5 -2q31 0 53.5 13t37.5 35.5t24 48.5l9 27z" />
    <glyph glyph-name="z" unicode="z" horiz-adv-x="488" 
d="M458 0h-431v88l253 344h-238v114h407v-97l-246 -335h255v-114z" />
    <glyph glyph-name="braceleft" unicode="{" horiz-adv-x="394" 
d="M354 -158q-85 0 -131.5 14t-64.5 44t-18 78v154q0 32 -14.5 51t-42 27.5t-68.5 8.5v117q41 0 68.5 8.5t42 28t14.5 50.5v155q0 48 18 78t64.5 44t131.5 14v-110q-26 0 -45 -6t-29.5 -20.5t-10.5 -42.5v-146q0 -46 -29 -73t-85 -35v-6q56 -8 85 -35t29 -73v-146
q0 -28 10.5 -42.5t29.5 -20t45 -6.5v-110z" />
    <glyph glyph-name="bar" unicode="|" horiz-adv-x="551" 
d="M222 757h107v-984h-107v984z" />
    <glyph glyph-name="braceright" unicode="}" horiz-adv-x="394" 
d="M40 -48q26 1 45 6.5t29.5 20t10.5 42.5v146q0 46 29.5 73t84.5 35v6q-55 8 -84.5 35t-29.5 73v146q0 28 -10.5 42.5t-29.5 20.5t-45 6v110q86 0 132 -14t64 -44t18 -78v-155q0 -31 14.5 -50.5t42.5 -28t68 -8.5v-117q-40 0 -68 -8.5t-42.5 -27.5t-14.5 -51v-154
q0 -48 -18 -78t-64 -44t-132 -14v110z" />
    <glyph glyph-name="asciitilde" unicode="~" horiz-adv-x="572" 
d="M268 301q-37 16 -62.5 21.5t-48.5 5.5q-28 0 -58.5 -17t-55.5 -42v113q25 26 56.5 39.5t68.5 13.5q29 0 58.5 -5.5t76.5 -25.5q37 -16 63 -21.5t48 -5.5q29 0 59 17t55 42v-113q-25 -26 -56 -39.5t-69 -13.5q-29 0 -58.5 6t-76.5 25z" />
    <glyph glyph-name="uni00A0" unicode="&#xa0;" horiz-adv-x="260" 
 />
    <glyph glyph-name="exclamdown" unicode="&#xa1;" horiz-adv-x="286" 
d="M82 296h119l25 -476h-169zM228 463q0 -46 -25 -64.5t-61 -18.5q-34 0 -59.5 18.5t-25.5 64.5q0 44 25.5 63.5t59.5 19.5q36 0 61 -19.5t25 -63.5z" />
    <glyph glyph-name="cent" unicode="&#xa2;" horiz-adv-x="572" 
d="M362 647q47 -2 82.5 -12t63.5 -24l-44 -115q-35 14 -65.5 23t-60.5 9q-39 0 -64.5 -18.5t-38.5 -55t-13 -91.5q0 -54 13.5 -89.5t39.5 -53t63 -17.5q47 0 80.5 10t72.5 27v-124q-31 -15 -62.5 -23.5t-66.5 -10.5v-92h-87v96q-64 9 -110 41t-70.5 90.5t-24.5 144.5
q0 94 25.5 152.5t72 89t107.5 39.5v81h87v-77z" />
    <glyph glyph-name="sterling" unicode="&#xa3;" horiz-adv-x="572" 
d="M342 724q54 0 102.5 -11.5t87.5 -28.5l-45 -112q-34 14 -68 22.5t-65 8.5q-32 0 -55.5 -18.5t-23.5 -65.5v-94h183v-107h-183v-70q0 -35 -11 -59t-28 -38.5t-35 -23.5h351v-127h-512v121q28 12 47.5 26.5t30 38t10.5 61.5v71h-87v107h87v95q0 74 29 118.5t77.5 65
t107.5 20.5z" />
    <glyph glyph-name="yen" unicode="&#xa5;" horiz-adv-x="572" 
d="M285 420l129 294h153l-187 -365h95v-87h-120v-67h120v-87h-120v-108h-140v108h-121v87h121v67h-121v87h93l-184 365h154z" />
    <glyph glyph-name="section" unicode="&#xa7;" horiz-adv-x="486" 
d="M59 391q0 43 19.5 73t45.5 48q-31 20 -48 48t-17 65q0 63 54.5 101.5t143.5 38.5q50 0 93 -11.5t84 -29.5l-40 -93q-33 16 -67.5 28.5t-72.5 12.5q-40 0 -58 -11t-18 -34q0 -16 11 -29t34 -25t59 -27q47 -18 81.5 -41.5t54 -53.5t19.5 -70q0 -49 -17 -78.5t-44 -47.5
q30 -19 45.5 -45t15.5 -62q0 -72 -58 -115t-157 -43q-53 0 -94.5 10t-75.5 29v101q26 -13 55.5 -24t59.5 -17.5t55 -6.5q55 0 75 16.5t20 40.5q0 17 -7.5 29t-29 24.5t-64.5 30.5q-50 21 -85 42.5t-53.5 51.5t-18.5 74zM168 402q0 -20 12 -37t37.5 -32.5t63.5 -31.5l7 -3
q14 11 26 28t12 42q0 20 -9.5 37t-34 32.5t-70.5 31.5q-17 -7 -30.5 -24.5t-13.5 -42.5z" />
    <glyph glyph-name="dieresis" unicode="&#xa8;" horiz-adv-x="607" 
d="M136 686q0 35 20 50.5t48 15.5t48.5 -15.5t20.5 -50.5q0 -33 -20.5 -49t-48.5 -16t-48 16.5t-20 48.5zM333 686q0 35 20 50.5t49 15.5q28 0 48.5 -15.5t20.5 -50.5q0 -33 -20.5 -49t-48.5 -16t-48.5 16.5t-20.5 48.5z" />
    <glyph glyph-name="copyright" unicode="&#xa9;" horiz-adv-x="832" 
d="M431 128q-102 0 -152.5 63t-50.5 166q0 67 24 118.5t70 81t113 29.5q31 0 63 -8t60 -22l-29 -67q-25 13 -48.5 19.5t-44.5 6.5q-59 0 -91.5 -42t-32.5 -116q0 -76 28.5 -117.5t94.5 -41.5q23 0 51.5 6.5t53.5 16.5v-69q-24 -10 -49 -17t-60 -7zM416 -10q-80 0 -147 27
t-116.5 76.5t-76.5 116.5t-27 147q0 76 27.5 142.5t77.5 117t117 79t145 28.5q76 0 142.5 -27t117 -76.5t79 -116.5t28.5 -147t-27 -147t-76.5 -116.5t-116.5 -76.5t-147 -27zM416 54q62 0 115.5 22.5t94.5 63t64 96t23 121.5q0 63 -22.5 118t-62.5 97t-94.5 65.5
t-117.5 23.5q-64 0 -118.5 -22.5t-95 -63t-63 -96.5t-22.5 -122t22 -121.5t62 -96t94.5 -63t120.5 -22.5z" />
    <glyph glyph-name="ordfeminine" unicode="&#xaa;" horiz-adv-x="383" 
d="M200 722q71 0 105.5 -36t34.5 -97v-216h-66l-15 54q-21 -28 -51.5 -44t-66.5 -16q-35 0 -62 12t-41.5 36t-14.5 61q0 39 20 62.5t58.5 35t92.5 13.5l48 2v8q0 23 -15.5 36t-46.5 13q-22 0 -49.5 -8t-56.5 -22l-32 66q32 16 71 28t87 12zM194 528q-44 -3 -57.5 -18.5
t-13.5 -32.5q0 -19 11 -27.5t27 -8.5q38 0 59.5 20.5t21.5 51.5v18z" />
    <glyph glyph-name="guillemotleft" unicode="&#xab;" horiz-adv-x="615" 
d="M40 280l181 222l107 -58l-136 -170l136 -170l-107 -58l-181 221v13zM287 280l181 222l107 -58l-136 -170l136 -170l-107 -58l-181 221v13z" />
    <glyph glyph-name="registered" unicode="&#xae;" horiz-adv-x="832" 
d="M274 138v442h133q82 0 120 -34.5t38 -99.5q0 -47 -24 -74.5t-54 -39.5l116 -194h-91l-95 168h-62v-168h-81zM405 373q39 0 58.5 20t19.5 51q0 35 -17.5 51t-61.5 16h-49v-138h50zM416 -10q-80 0 -147 27t-116.5 76.5t-76.5 116.5t-27 147q0 76 27.5 142.5t77.5 117
t117 79t145 28.5q76 0 142.5 -27t117 -76.5t79 -116.5t28.5 -147t-27 -147t-76.5 -116.5t-116.5 -76.5t-147 -27zM416 54q62 0 115.5 22.5t94.5 63t64 96t23 121.5q0 63 -22.5 118t-62.5 97t-94.5 65.5t-117.5 23.5q-64 0 -118.5 -22.5t-95 -63t-63 -96.5t-22.5 -122
t22 -121.5t62 -96t94.5 -63t120.5 -22.5z" />
    <glyph glyph-name="overscore" unicode="&#xaf;" horiz-adv-x="500" 
d="M503 760h-506v98h506v-98z" />
    <glyph glyph-name="degree" unicode="&#xb0;" horiz-adv-x="428" 
d="M214 387q-51 0 -90.5 21.5t-62 59.5t-22.5 87t22.5 87t62 60t90.5 22q52 0 91 -21.5t61 -59.5t22 -88q0 -49 -22 -87t-61 -59.5t-91 -21.5zM214 480q32 0 54 20.5t22 54.5q0 36 -22 56.5t-54 20.5q-31 0 -53.5 -20.5t-22.5 -56.5q0 -34 22.5 -54.5t53.5 -20.5z" />
    <glyph glyph-name="acute" unicode="&#xb4;" horiz-adv-x="362" 
d="M322 756q-14 -14 -37 -34t-49.5 -42t-52 -41.5t-44.5 -32.5h-99v13q16 19 37.5 44.5t42.5 53t35 49.5h167v-10z" />
    <glyph glyph-name="paragraph" unicode="&#xb6;" horiz-adv-x="655" 
d="M570 -127h-79v789h-81v-789h-79v400q-15 -4 -32.5 -6.5t-38.5 -2.5q-62 0 -108 23t-71.5 77t-25.5 145q0 96 27.5 150.5t77.5 77.5t115 23h295v-887z" />
    <glyph glyph-name="periodcentered" unicode="&#xb7;" horiz-adv-x="285" 
d="M57 352q0 46 25 64.5t61 18.5q35 0 60 -18.5t25 -64.5q0 -44 -25 -63.5t-60 -19.5q-36 0 -61 19.5t-25 63.5z" />
    <glyph glyph-name="cedilla" unicode="&#xb8;" horiz-adv-x="205" 
d="M204 -122q0 -56 -32.5 -87t-118.5 -31q-22 0 -39.5 3t-31.5 7v82q14 -4 34.5 -7t35.5 -3q14 0 24.5 6.5t10.5 23.5q0 18 -18 32t-63 21l38 75h94l-13 -30q20 -6 38 -18.5t29.5 -30.5t11.5 -43z" />
    <glyph glyph-name="ordmasculine" unicode="&#xba;" horiz-adv-x="388" 
d="M360 545q0 -85 -45 -131.5t-122 -46.5q-72 0 -118.5 46.5t-46.5 131.5t45 131t122 46q47 0 84.5 -20.5t59 -60t21.5 -96.5zM127 545q0 -49 16 -73.5t51 -24.5t50.5 24.5t15.5 73.5t-15.5 73t-50.5 24t-51 -24t-16 -73z" />
    <glyph glyph-name="guillemotright" unicode="&#xbb;" horiz-adv-x="615" 
d="M575 267l-181 -221l-107 58l136 170l-136 170l107 58l181 -222v-13zM328 267l-181 -221l-107 58l136 170l-136 170l107 58l181 -222v-13z" />
    <glyph glyph-name="questiondown" unicode="&#xbf;" horiz-adv-x="477" 
d="M345 259q0 -33 -9 -59t-29.5 -48.5t-54.5 -47.5q-30 -21 -48.5 -38t-27 -34t-8.5 -39q0 -31 23.5 -48t65.5 -17t83 13t84 35l53 -107q-49 -27 -106 -44t-125 -17q-104 0 -161.5 50t-57.5 127q0 41 13 71t39 56t65 54q30 22 45.5 36.5t21 29t5.5 34.5v29h129v-36zM361 462
q0 -46 -25 -64.5t-61 -18.5q-34 0 -59.5 18.5t-25.5 64.5q0 44 25.5 63.5t59.5 19.5q36 0 61 -19.5t25 -63.5z" />
    <glyph glyph-name="Agrave" unicode="&#xc0;" horiz-adv-x="690" 
d="M527 0l-52 170h-260l-52 -170h-163l252 717h185l253 -717h-163zM387 463q-5 17 -13 43t-16 53t-13 47q-5 -20 -13.5 -49.5t-16 -56t-11.5 -37.5l-51 -166h186zM331 934q15 -22 35.5 -49.5t42 -53t37.5 -44.5v-13h-99q-19 13 -44.5 32.5t-52 41.5t-49.5 42t-37 34v10h167z
" />
    <glyph glyph-name="Aacute" unicode="&#xc1;" horiz-adv-x="690" 
d="M527 0l-52 170h-260l-52 -170h-163l252 717h185l253 -717h-163zM387 463q-5 17 -13 43t-16 53t-13 47q-5 -20 -13.5 -49.5t-16 -56t-11.5 -37.5l-51 -166h186zM556 924q-14 -14 -37 -34t-49.5 -42t-52 -41.5t-44.5 -32.5h-99v13q16 19 37.5 44.5t42.5 53t35 49.5h167v-10
z" />
    <glyph glyph-name="Acircumflex" unicode="&#xc2;" horiz-adv-x="690" 
d="M527 0l-52 170h-260l-52 -170h-163l252 717h185l253 -717h-163zM387 463q-5 17 -13 43t-16 53t-13 47q-5 -20 -13.5 -49.5t-16 -56t-11.5 -37.5l-51 -166h186zM432 934q14 -22 36.5 -49.5t46.5 -53.5t42 -44v-13h-99q-26 16 -57 37.5t-57 48.5q-26 -27 -56 -48t-56 -38
h-99v13q19 19 42.5 44.5t46 53t36.5 49.5h174z" />
    <glyph glyph-name="Atilde" unicode="&#xc3;" horiz-adv-x="690" 
d="M527 0l-52 170h-260l-52 -170h-163l252 717h185l253 -717h-163zM387 463q-5 17 -13 43t-16 53t-13 47q-5 -20 -13.5 -49.5t-16 -56t-11.5 -37.5l-51 -166h186zM143 773q3 39 14.5 67.5t29.5 47t40.5 27.5t48.5 9q20 0 39.5 -7.5t38 -18t36.5 -18t36 -7.5q15 0 29 13
t20 39h73q-6 -77 -44 -114t-89 -37q-20 0 -39 7.5t-38 18t-37 18t-36 7.5q-15 0 -29 -13t-20 -39h-73z" />
    <glyph glyph-name="Adieresis" unicode="&#xc4;" horiz-adv-x="690" 
d="M527 0l-52 170h-260l-52 -170h-163l252 717h185l253 -717h-163zM387 463q-5 17 -13 43t-16 53t-13 47q-5 -20 -13.5 -49.5t-16 -56t-11.5 -37.5l-51 -166h186zM177 854q0 35 20 50.5t48 15.5t48.5 -15.5t20.5 -50.5q0 -33 -20.5 -49t-48.5 -16t-48 16.5t-20 48.5z
M374 854q0 35 20 50.5t49 15.5q28 0 48.5 -15.5t20.5 -50.5q0 -33 -20.5 -49t-48.5 -16t-48.5 16.5t-20.5 48.5z" />
    <glyph glyph-name="Aring" unicode="&#xc5;" horiz-adv-x="690" 
d="M527 0l-52 170h-260l-52 -170h-163l252 717h185l253 -717h-163zM387 463q-5 17 -13 43t-16 53t-13 47q-5 -20 -13.5 -49.5t-16 -56t-11.5 -37.5l-51 -166h186zM344 648q-54 0 -87.5 31t-33.5 85t33.5 85t87.5 31q52 0 88 -31t36 -84q0 -55 -35.5 -86t-88.5 -31zM344 717
q20 0 33.5 12.5t13.5 34.5t-13.5 34.5t-33.5 12.5t-33.5 -12.5t-13.5 -34.5t12 -34.5t35 -12.5z" />
    <glyph glyph-name="AE" unicode="&#xc6;" horiz-adv-x="952" 
d="M893 0h-426v170h-240l-73 -170h-154l320 714h573v-124h-275v-157h257v-124h-257v-184h275v-125zM282 297h185v288h-62z" />
    <glyph glyph-name="Ccedilla" unicode="&#xc7;" horiz-adv-x="637" 
d="M393 598q-43 0 -76.5 -17t-56.5 -48.5t-34.5 -76.5t-11.5 -101q0 -76 18.5 -129.5t58.5 -81.5t102 -28q44 0 87.5 10t94.5 28v-127q-47 -19 -93 -28t-103 -9q-110 0 -181.5 45.5t-105.5 128t-34 192.5q0 81 22 148.5t64.5 116.5t105 76t143.5 27q53 0 106.5 -13.5
t102.5 -36.5l-49 -123q-40 19 -80.5 33t-79.5 14zM486 -122q0 -56 -32.5 -87t-118.5 -31q-22 0 -39.5 3t-31.5 7v82q14 -4 34.5 -7t35.5 -3q14 0 24.5 6.5t10.5 23.5q0 18 -18 32t-63 21l38 75h94l-13 -30q20 -6 38 -18.5t29.5 -30.5t11.5 -43z" />
    <glyph glyph-name="Egrave" unicode="&#xc8;" horiz-adv-x="560" 
d="M501 0h-411v714h411v-124h-260v-157h242v-124h-242v-184h260v-125zM287 934q15 -22 35.5 -49.5t42 -53t37.5 -44.5v-13h-99q-19 13 -44.5 32.5t-52 41.5t-49.5 42t-37 34v10h167z" />
    <glyph glyph-name="Eacute" unicode="&#xc9;" horiz-adv-x="560" 
d="M501 0h-411v714h411v-124h-260v-157h242v-124h-242v-184h260v-125zM512 924q-14 -14 -37 -34t-49.5 -42t-52 -41.5t-44.5 -32.5h-99v13q16 19 37.5 44.5t42.5 53t35 49.5h167v-10z" />
    <glyph glyph-name="Ecircumflex" unicode="&#xca;" horiz-adv-x="560" 
d="M501 0h-411v714h411v-124h-260v-157h242v-124h-242v-184h260v-125zM388 934q14 -22 36.5 -49.5t46.5 -53.5t42 -44v-13h-99q-26 16 -57 37.5t-57 48.5q-26 -27 -56 -48t-56 -38h-99v13q19 19 42.5 44.5t46 53t36.5 49.5h174z" />
    <glyph glyph-name="Edieresis" unicode="&#xcb;" horiz-adv-x="560" 
d="M501 0h-411v714h411v-124h-260v-157h242v-124h-242v-184h260v-125zM133 854q0 35 20 50.5t48 15.5t48.5 -15.5t20.5 -50.5q0 -33 -20.5 -49t-48.5 -16t-48 16.5t-20 48.5zM330 854q0 35 20 50.5t49 15.5q28 0 48.5 -15.5t20.5 -50.5q0 -33 -20.5 -49t-48.5 -16
t-48.5 16.5t-20.5 48.5z" />
    <glyph glyph-name="Igrave" unicode="&#xcc;" horiz-adv-x="389" 
d="M357 0h-325v86l87 40v462l-87 40v86h325v-86l-87 -40v-462l87 -40v-86zM181 934q15 -22 35.5 -49.5t42 -53t37.5 -44.5v-13h-99q-19 13 -44.5 32.5t-52 41.5t-49.5 42t-37 34v10h167z" />
    <glyph glyph-name="Iacute" unicode="&#xcd;" horiz-adv-x="389" 
d="M357 0h-325v86l87 40v462l-87 40v86h325v-86l-87 -40v-462l87 -40v-86zM406 924q-14 -14 -37 -34t-49.5 -42t-52 -41.5t-44.5 -32.5h-99v13q16 19 37.5 44.5t42.5 53t35 49.5h167v-10z" />
    <glyph glyph-name="Icircumflex" unicode="&#xce;" horiz-adv-x="389" 
d="M357 0h-325v86l87 40v462l-87 40v86h325v-86l-87 -40v-462l87 -40v-86zM282 934q14 -22 36.5 -49.5t46.5 -53.5t42 -44v-13h-99q-26 16 -57 37.5t-57 48.5q-26 -27 -56 -48t-56 -38h-99v13q19 19 42.5 44.5t46 53t36.5 49.5h174z" />
    <glyph glyph-name="Idieresis" unicode="&#xcf;" horiz-adv-x="389" 
d="M357 0h-325v86l87 40v462l-87 40v86h325v-86l-87 -40v-462l87 -40v-86zM27 854q0 35 20 50.5t48 15.5t48.5 -15.5t20.5 -50.5q0 -33 -20.5 -49t-48.5 -16t-48 16.5t-20 48.5zM224 854q0 35 20 50.5t49 15.5q28 0 48.5 -15.5t20.5 -50.5q0 -33 -20.5 -49t-48.5 -16
t-48.5 16.5t-20.5 48.5z" />
    <glyph glyph-name="Eth" unicode="&#xd0;" horiz-adv-x="740" 
d="M314 714q112 0 194.5 -40t128 -117.5t45.5 -192.5q0 -120 -46 -201t-133.5 -122t-210.5 -41h-202v291h-67v124h67v299h224zM321 590h-80v-175h116v-124h-116v-166h64q110 0 165 59t55 176q0 79 -24 130t-69.5 75.5t-110.5 24.5z" />
    <glyph glyph-name="Ntilde" unicode="&#xd1;" horiz-adv-x="813" 
d="M723 0h-192l-311 540h-4q2 -34 3.5 -68l3 -68t2.5 -68v-336h-135v714h191l310 -535h3l-2 66t-2.5 65.5t-2.5 65.5v338h136v-714zM205 773q3 39 14.5 67.5t29.5 47t40.5 27.5t48.5 9q20 0 39.5 -7.5t38 -18t36.5 -18t36 -7.5q15 0 29 13t20 39h73q-6 -77 -44 -114t-89 -37
q-20 0 -39 7.5t-38 18t-37 18t-36 7.5q-15 0 -29 -13t-20 -39h-73z" />
    <glyph glyph-name="Ograve" unicode="&#xd2;" horiz-adv-x="796" 
d="M738 358q0 -83 -20.5 -150.5t-62 -116.5t-106 -75t-151.5 -26t-151.5 26.5t-106 75t-62 116.5t-20.5 151q0 111 36.5 193t112 127.5t192.5 45.5q116 0 191 -45.5t111.5 -128t36.5 -193.5zM217 358q0 -75 19 -129t59 -83t103 -29q65 0 104.5 29t58 83t18.5 129
q0 113 -42 177t-138 64q-64 0 -104 -29t-59 -83t-19 -129zM384 934q15 -22 35.5 -49.5t42 -53t37.5 -44.5v-13h-99q-19 13 -44.5 32.5t-52 41.5t-49.5 42t-37 34v10h167z" />
    <glyph glyph-name="Oacute" unicode="&#xd3;" horiz-adv-x="796" 
d="M738 358q0 -83 -20.5 -150.5t-62 -116.5t-106 -75t-151.5 -26t-151.5 26.5t-106 75t-62 116.5t-20.5 151q0 111 36.5 193t112 127.5t192.5 45.5q116 0 191 -45.5t111.5 -128t36.5 -193.5zM217 358q0 -75 19 -129t59 -83t103 -29q65 0 104.5 29t58 83t18.5 129
q0 113 -42 177t-138 64q-64 0 -104 -29t-59 -83t-19 -129zM609 924q-14 -14 -37 -34t-49.5 -42t-52 -41.5t-44.5 -32.5h-99v13q16 19 37.5 44.5t42.5 53t35 49.5h167v-10z" />
    <glyph glyph-name="Ocircumflex" unicode="&#xd4;" horiz-adv-x="796" 
d="M738 358q0 -83 -20.5 -150.5t-62 -116.5t-106 -75t-151.5 -26t-151.5 26.5t-106 75t-62 116.5t-20.5 151q0 111 36.5 193t112 127.5t192.5 45.5q116 0 191 -45.5t111.5 -128t36.5 -193.5zM217 358q0 -75 19 -129t59 -83t103 -29q65 0 104.5 29t58 83t18.5 129
q0 113 -42 177t-138 64q-64 0 -104 -29t-59 -83t-19 -129zM485 934q14 -22 36.5 -49.5t46.5 -53.5t42 -44v-13h-99q-26 16 -57 37.5t-57 48.5q-26 -27 -56 -48t-56 -38h-99v13q19 19 42.5 44.5t46 53t36.5 49.5h174z" />
    <glyph glyph-name="Otilde" unicode="&#xd5;" horiz-adv-x="796" 
d="M738 358q0 -83 -20.5 -150.5t-62 -116.5t-106 -75t-151.5 -26t-151.5 26.5t-106 75t-62 116.5t-20.5 151q0 111 36.5 193t112 127.5t192.5 45.5q116 0 191 -45.5t111.5 -128t36.5 -193.5zM217 358q0 -75 19 -129t59 -83t103 -29q65 0 104.5 29t58 83t18.5 129
q0 113 -42 177t-138 64q-64 0 -104 -29t-59 -83t-19 -129zM196 773q3 39 14.5 67.5t29.5 47t40.5 27.5t48.5 9q20 0 39.5 -7.5t38 -18t36.5 -18t36 -7.5q15 0 29 13t20 39h73q-6 -77 -44 -114t-89 -37q-20 0 -39 7.5t-38 18t-37 18t-36 7.5q-15 0 -29 -13t-20 -39h-73z" />
    <glyph glyph-name="Odieresis" unicode="&#xd6;" horiz-adv-x="796" 
d="M738 358q0 -83 -20.5 -150.5t-62 -116.5t-106 -75t-151.5 -26t-151.5 26.5t-106 75t-62 116.5t-20.5 151q0 111 36.5 193t112 127.5t192.5 45.5q116 0 191 -45.5t111.5 -128t36.5 -193.5zM217 358q0 -75 19 -129t59 -83t103 -29q65 0 104.5 29t58 83t18.5 129
q0 113 -42 177t-138 64q-64 0 -104 -29t-59 -83t-19 -129zM230 854q0 35 20 50.5t48 15.5t48.5 -15.5t20.5 -50.5q0 -33 -20.5 -49t-48.5 -16t-48 16.5t-20 48.5zM427 854q0 35 20 50.5t49 15.5q28 0 48.5 -15.5t20.5 -50.5q0 -33 -20.5 -49t-48.5 -16t-48.5 16.5
t-20.5 48.5z" />
    <glyph glyph-name="multiply" unicode="&#xd7;" horiz-adv-x="572" 
d="M433 575l75 -73l-149 -149l147 -148l-73 -74l-149 147l-147 -146l-73 74l145 147l-146 147l74 75l147 -146z" />
    <glyph glyph-name="Oslash" unicode="&#xd8;" horiz-adv-x="796" 
d="M738 358q0 -83 -20.5 -150.5t-62 -116.5t-106 -75t-151.5 -26q-48 0 -89 8t-75 24l-44 -66l-79 53l44 66q-49 49 -73 121t-24 163q0 111 36.5 193t112 127.5t192.5 45.5q50 0 92 -8.5t76 -25.5l41 61l78 -51l-43 -64q48 -48 71.5 -119t23.5 -160zM579 358q0 89 -25 145
l-244 -367q18 -9 40 -14t48 -5q65 0 104.5 29t58 83t18.5 129zM217 358q0 -45 6.5 -83t20.5 -67l247 369q-19 11 -42 16.5t-50 5.5q-64 0 -104 -29t-59 -83t-19 -129z" />
    <glyph glyph-name="Ugrave" unicode="&#xd9;" horiz-adv-x="756" 
d="M671 252q0 -74 -32.5 -133.5t-98 -94t-165.5 -34.5q-142 0 -216 72.5t-74 191.5v460h151v-437q0 -88 36 -124t107 -36q50 0 81 17t45.5 53t14.5 91v436h151v-462zM364 934q15 -22 35.5 -49.5t42 -53t37.5 -44.5v-13h-99q-19 13 -44.5 32.5t-52 41.5t-49.5 42t-37 34v10
h167z" />
    <glyph glyph-name="Uacute" unicode="&#xda;" horiz-adv-x="756" 
d="M671 252q0 -74 -32.5 -133.5t-98 -94t-165.5 -34.5q-142 0 -216 72.5t-74 191.5v460h151v-437q0 -88 36 -124t107 -36q50 0 81 17t45.5 53t14.5 91v436h151v-462zM589 924q-14 -14 -37 -34t-49.5 -42t-52 -41.5t-44.5 -32.5h-99v13q16 19 37.5 44.5t42.5 53t35 49.5h167
v-10z" />
    <glyph glyph-name="Ucircumflex" unicode="&#xdb;" horiz-adv-x="756" 
d="M671 252q0 -74 -32.5 -133.5t-98 -94t-165.5 -34.5q-142 0 -216 72.5t-74 191.5v460h151v-437q0 -88 36 -124t107 -36q50 0 81 17t45.5 53t14.5 91v436h151v-462zM465 934q14 -22 36.5 -49.5t46.5 -53.5t42 -44v-13h-99q-26 16 -57 37.5t-57 48.5q-26 -27 -56 -48
t-56 -38h-99v13q19 19 42.5 44.5t46 53t36.5 49.5h174z" />
    <glyph glyph-name="Udieresis" unicode="&#xdc;" horiz-adv-x="756" 
d="M671 252q0 -74 -32.5 -133.5t-98 -94t-165.5 -34.5q-142 0 -216 72.5t-74 191.5v460h151v-437q0 -88 36 -124t107 -36q50 0 81 17t45.5 53t14.5 91v436h151v-462zM210 854q0 35 20 50.5t48 15.5t48.5 -15.5t20.5 -50.5q0 -33 -20.5 -49t-48.5 -16t-48 16.5t-20 48.5z
M407 854q0 35 20 50.5t49 15.5q28 0 48.5 -15.5t20.5 -50.5q0 -33 -20.5 -49t-48.5 -16t-48.5 16.5t-20.5 48.5z" />
    <glyph glyph-name="Yacute" unicode="&#xdd;" horiz-adv-x="624" 
d="M312 420l149 294h163l-237 -436v-278h-150v273l-237 441h164zM523 924q-14 -14 -37 -34t-49.5 -42t-52 -41.5t-44.5 -32.5h-99v13q16 19 37.5 44.5t42.5 53t35 49.5h167v-10z" />
    <glyph glyph-name="Thorn" unicode="&#xde;" horiz-adv-x="628" 
d="M583 376q0 -46 -14 -87.5t-44.5 -74.5t-82 -52t-126.5 -19h-75v-143h-151v714h151v-112h87q132 0 193.5 -61.5t61.5 -164.5zM290 265q47 0 78 11.5t46.5 36t15.5 63.5q0 53 -31 78t-97 25h-61v-214h49z" />
    <glyph glyph-name="germandbls" unicode="&#xdf;" horiz-adv-x="711" 
d="M610 606q0 -37 -14 -64t-35 -47t-42 -35t-35 -27.5t-14 -25.5q0 -12 10 -22.5t32.5 -25t59.5 -38.5q33 -20 56 -42.5t35.5 -51t12.5 -68.5q0 -55 -25.5 -93t-75.5 -57t-124 -19q-48 0 -83.5 7.5t-64.5 23.5v118q16 -10 39.5 -20t50 -16t48.5 -6q39 0 60.5 15t21.5 45
q0 18 -7 30.5t-26.5 27.5t-58.5 37q-41 24 -65 44t-34 41.5t-10 47.5q0 31 13.5 53t34 38t41 31t34 32t13.5 41q0 31 -32 50t-79 19q-35 0 -62 -10.5t-42.5 -32t-15.5 -55.5v-551h-149v556q0 71 35.5 117.5t96.5 69t137 22.5q75 0 134.5 -18.5t94 -54t34.5 -86.5z" />
    <glyph glyph-name="agrave" unicode="&#xe0;" horiz-adv-x="604" 
d="M302 557q110 0 168.5 -47.5t58.5 -145.5v-364h-104l-29 74h-4q-23 -29 -47.5 -48t-56 -27.5t-77.5 -8.5q-48 0 -86.5 18.5t-60.5 57t-22 97.5q0 87 61 128.5t183 45.5l95 3v24q0 43 -22.5 63t-62.5 20t-78 -11.5t-76 -28.5l-49 101q44 23 97.5 36t111.5 13zM323 251
q-72 -2 -100 -26t-28 -63q0 -34 20 -48.5t52 -14.5q48 0 81 28.5t33 80.5v45zM288 766q15 -22 35.5 -49.5t42 -53t37.5 -44.5v-13h-99q-19 13 -44.5 32.5t-52 41.5t-49.5 42t-37 34v10h167z" />
    <glyph glyph-name="aacute" unicode="&#xe1;" horiz-adv-x="604" 
d="M302 557q110 0 168.5 -47.5t58.5 -145.5v-364h-104l-29 74h-4q-23 -29 -47.5 -48t-56 -27.5t-77.5 -8.5q-48 0 -86.5 18.5t-60.5 57t-22 97.5q0 87 61 128.5t183 45.5l95 3v24q0 43 -22.5 63t-62.5 20t-78 -11.5t-76 -28.5l-49 101q44 23 97.5 36t111.5 13zM323 251
q-72 -2 -100 -26t-28 -63q0 -34 20 -48.5t52 -14.5q48 0 81 28.5t33 80.5v45zM513 756q-14 -14 -37 -34t-49.5 -42t-52 -41.5t-44.5 -32.5h-99v13q16 19 37.5 44.5t42.5 53t35 49.5h167v-10z" />
    <glyph glyph-name="acircumflex" unicode="&#xe2;" horiz-adv-x="604" 
d="M302 557q110 0 168.5 -47.5t58.5 -145.5v-364h-104l-29 74h-4q-23 -29 -47.5 -48t-56 -27.5t-77.5 -8.5q-48 0 -86.5 18.5t-60.5 57t-22 97.5q0 87 61 128.5t183 45.5l95 3v24q0 43 -22.5 63t-62.5 20t-78 -11.5t-76 -28.5l-49 101q44 23 97.5 36t111.5 13zM323 251
q-72 -2 -100 -26t-28 -63q0 -34 20 -48.5t52 -14.5q48 0 81 28.5t33 80.5v45zM389 766q14 -22 36.5 -49.5t46.5 -53.5t42 -44v-13h-99q-26 16 -57 37.5t-57 48.5q-26 -27 -56 -48t-56 -38h-99v13q19 19 42.5 44.5t46 53t36.5 49.5h174z" />
    <glyph glyph-name="atilde" unicode="&#xe3;" horiz-adv-x="604" 
d="M302 557q110 0 168.5 -47.5t58.5 -145.5v-364h-104l-29 74h-4q-23 -29 -47.5 -48t-56 -27.5t-77.5 -8.5q-48 0 -86.5 18.5t-60.5 57t-22 97.5q0 87 61 128.5t183 45.5l95 3v24q0 43 -22.5 63t-62.5 20t-78 -11.5t-76 -28.5l-49 101q44 23 97.5 36t111.5 13zM323 251
q-72 -2 -100 -26t-28 -63q0 -34 20 -48.5t52 -14.5q48 0 81 28.5t33 80.5v45zM100 605q3 39 14.5 67.5t29.5 47t40.5 27.5t48.5 9q20 0 39.5 -7.5t38 -18t36.5 -18t36 -7.5q15 0 29 13t20 39h73q-6 -77 -44 -114t-89 -37q-20 0 -39 7.5t-38 18t-37 18t-36 7.5q-15 0 -29 -13
t-20 -39h-73z" />
    <glyph glyph-name="adieresis" unicode="&#xe4;" horiz-adv-x="604" 
d="M302 557q110 0 168.5 -47.5t58.5 -145.5v-364h-104l-29 74h-4q-23 -29 -47.5 -48t-56 -27.5t-77.5 -8.5q-48 0 -86.5 18.5t-60.5 57t-22 97.5q0 87 61 128.5t183 45.5l95 3v24q0 43 -22.5 63t-62.5 20t-78 -11.5t-76 -28.5l-49 101q44 23 97.5 36t111.5 13zM323 251
q-72 -2 -100 -26t-28 -63q0 -34 20 -48.5t52 -14.5q48 0 81 28.5t33 80.5v45zM134 686q0 35 20 50.5t48 15.5t48.5 -15.5t20.5 -50.5q0 -33 -20.5 -49t-48.5 -16t-48 16.5t-20 48.5zM331 686q0 35 20 50.5t49 15.5q28 0 48.5 -15.5t20.5 -50.5q0 -33 -20.5 -49t-48.5 -16
t-48.5 16.5t-20.5 48.5z" />
    <glyph glyph-name="aring" unicode="&#xe5;" horiz-adv-x="604" 
d="M302 557q110 0 168.5 -47.5t58.5 -145.5v-364h-104l-29 74h-4q-23 -29 -47.5 -48t-56 -27.5t-77.5 -8.5q-48 0 -86.5 18.5t-60.5 57t-22 97.5q0 87 61 128.5t183 45.5l95 3v24q0 43 -22.5 63t-62.5 20t-78 -11.5t-76 -28.5l-49 101q44 23 97.5 36t111.5 13zM323 251
q-72 -2 -100 -26t-28 -63q0 -34 20 -48.5t52 -14.5q48 0 81 28.5t33 80.5v45zM300 605q-54 0 -87.5 31t-33.5 85t33.5 85t87.5 31q52 0 88 -31t36 -84q0 -55 -35.5 -86t-88.5 -31zM300 674q20 0 33.5 12.5t13.5 34.5t-13.5 34.5t-33.5 12.5t-33.5 -12.5t-13.5 -34.5
t12 -34.5t35 -12.5z" />
    <glyph glyph-name="ae" unicode="&#xe6;" horiz-adv-x="917" 
d="M641 556q69 0 121.5 -29t82 -84t29.5 -135v-72h-353q2 -63 37.5 -99t98.5 -36q50 0 95 10.5t91 32.5v-115q-41 -20 -85 -29.5t-109 -9.5q-44 0 -84 11t-72 33.5t-56 56.5q-29 -35 -58.5 -57.5t-67.5 -33t-95 -10.5q-47 0 -86.5 18.5t-63.5 57t-24 97.5q0 58 26.5 95.5
t79 56.5t130.5 22l93 3v41q0 34 -21.5 50t-59.5 16q-39 0 -75.5 -10.5t-73.5 -27.5l-48 99q43 23 96 36t110 13q55 0 97 -16t70 -48q32 32 74.5 47.5t100.5 15.5zM316 251q-68 -2 -94.5 -26t-26.5 -63q0 -34 18.5 -48.5t49.5 -14.5t55 12.5t38.5 37t14.5 59.5v45zM638 450
q-49 0 -79 -28t-35 -87h210q0 33 -11.5 59t-32.5 41t-52 15z" />
    <glyph glyph-name="ccedilla" unicode="&#xe7;" horiz-adv-x="514" 
d="M300 -10q-81 0 -138 29.5t-87 91.5t-30 159q0 100 34 163t94.5 93t139.5 30q56 0 97.5 -11t72.5 -26l-44 -115q-35 14 -65.5 23t-60.5 9q-39 0 -65 -18.5t-38.5 -55t-12.5 -91.5q0 -54 13.5 -89.5t39.5 -53t63 -17.5q47 0 83 12.5t70 34.5v-127q-34 -22 -71.5 -31.5
t-94.5 -9.5zM407 -122q0 -56 -32.5 -87t-118.5 -31q-22 0 -39.5 3t-31.5 7v82q14 -4 34.5 -7t35.5 -3q14 0 24.5 6.5t10.5 23.5q0 18 -18 32t-63 21l38 75h94l-13 -30q20 -6 38 -18.5t29.5 -30.5t11.5 -43z" />
    <glyph glyph-name="egrave" unicode="&#xe8;" horiz-adv-x="591" 
d="M303 556q76 0 130.5 -29t84.5 -84t30 -135v-72h-352q2 -63 37.5 -99t98.5 -36q53 0 96 10.5t89 32.5v-115q-40 -20 -84.5 -29.5t-107.5 -9.5q-82 0 -145 30.5t-99 92.5t-36 156q0 96 32.5 159.5t90.5 95.5t135 32zM304 450q-43 0 -71.5 -28t-33.5 -87h209q0 33 -11.5 59
t-34.5 41t-58 15zM282 766q15 -22 35.5 -49.5t42 -53t37.5 -44.5v-13h-99q-19 13 -44.5 32.5t-52 41.5t-49.5 42t-37 34v10h167z" />
    <glyph glyph-name="eacute" unicode="&#xe9;" horiz-adv-x="591" 
d="M303 556q76 0 130.5 -29t84.5 -84t30 -135v-72h-352q2 -63 37.5 -99t98.5 -36q53 0 96 10.5t89 32.5v-115q-40 -20 -84.5 -29.5t-107.5 -9.5q-82 0 -145 30.5t-99 92.5t-36 156q0 96 32.5 159.5t90.5 95.5t135 32zM304 450q-43 0 -71.5 -28t-33.5 -87h209q0 33 -11.5 59
t-34.5 41t-58 15zM507 756q-14 -14 -37 -34t-49.5 -42t-52 -41.5t-44.5 -32.5h-99v13q16 19 37.5 44.5t42.5 53t35 49.5h167v-10z" />
    <glyph glyph-name="ecircumflex" unicode="&#xea;" horiz-adv-x="591" 
d="M303 556q76 0 130.5 -29t84.5 -84t30 -135v-72h-352q2 -63 37.5 -99t98.5 -36q53 0 96 10.5t89 32.5v-115q-40 -20 -84.5 -29.5t-107.5 -9.5q-82 0 -145 30.5t-99 92.5t-36 156q0 96 32.5 159.5t90.5 95.5t135 32zM304 450q-43 0 -71.5 -28t-33.5 -87h209q0 33 -11.5 59
t-34.5 41t-58 15zM383 766q14 -22 36.5 -49.5t46.5 -53.5t42 -44v-13h-99q-26 16 -57 37.5t-57 48.5q-26 -27 -56 -48t-56 -38h-99v13q19 19 42.5 44.5t46 53t36.5 49.5h174z" />
    <glyph glyph-name="edieresis" unicode="&#xeb;" horiz-adv-x="591" 
d="M303 556q76 0 130.5 -29t84.5 -84t30 -135v-72h-352q2 -63 37.5 -99t98.5 -36q53 0 96 10.5t89 32.5v-115q-40 -20 -84.5 -29.5t-107.5 -9.5q-82 0 -145 30.5t-99 92.5t-36 156q0 96 32.5 159.5t90.5 95.5t135 32zM304 450q-43 0 -71.5 -28t-33.5 -87h209q0 33 -11.5 59
t-34.5 41t-58 15zM128 686q0 35 20 50.5t48 15.5t48.5 -15.5t20.5 -50.5q0 -33 -20.5 -49t-48.5 -16t-48 16.5t-20 48.5zM325 686q0 35 20 50.5t49 15.5q28 0 48.5 -15.5t20.5 -50.5q0 -33 -20.5 -49t-48.5 -16t-48.5 16.5t-20.5 48.5z" />
    <glyph glyph-name="igrave" unicode="&#xec;" horiz-adv-x="305" 
d="M227 0h-149v546h149v-546zM139 766q15 -22 35.5 -49.5t42 -53t37.5 -44.5v-13h-99q-19 13 -44.5 32.5t-52 41.5t-49.5 42t-37 34v10h167z" />
    <glyph glyph-name="iacute" unicode="&#xed;" horiz-adv-x="305" 
d="M227 0h-149v546h149v-546zM364 756q-14 -14 -37 -34t-49.5 -42t-52 -41.5t-44.5 -32.5h-99v13q16 19 37.5 44.5t42.5 53t35 49.5h167v-10z" />
    <glyph glyph-name="icircumflex" unicode="&#xee;" horiz-adv-x="305" 
d="M227 0h-149v546h149v-546zM240 766q14 -22 36.5 -49.5t46.5 -53.5t42 -44v-13h-99q-26 16 -57 37.5t-57 48.5q-26 -27 -56 -48t-56 -38h-99v13q19 19 42.5 44.5t46 53t36.5 49.5h174z" />
    <glyph glyph-name="idieresis" unicode="&#xef;" horiz-adv-x="305" 
d="M227 0h-149v546h149v-546zM-15 686q0 35 20 50.5t48 15.5t48.5 -15.5t20.5 -50.5q0 -33 -20.5 -49t-48.5 -16t-48 16.5t-20 48.5zM182 686q0 35 20 50.5t49 15.5q28 0 48.5 -15.5t20.5 -50.5q0 -33 -20.5 -49t-48.5 -16t-48.5 16.5t-20.5 48.5z" />
    <glyph glyph-name="eth" unicode="&#xf0;" horiz-adv-x="619" 
d="M224 765q35 -16 66.5 -33t59.5 -36l110 68l49 -75l-83 -51q49 -44 81.5 -97t49.5 -117.5t17 -143.5q0 -92 -32.5 -157t-92 -99t-141.5 -34q-76 0 -135.5 29t-93.5 85t-34 135t30 134t83 84t122 29q34 0 59.5 -5.5t44.5 -16t30 -26.5l4 2q-16 40 -39 72.5t-55 62.5
l-112 -69l-49 76l86 52q-17 11 -35.5 22.5t-38.5 22.5zM310 376q-40 0 -65 -15.5t-36.5 -46t-11.5 -76.5q0 -41 11.5 -72t36.5 -48.5t65 -17.5q60 0 86 40.5t26 119.5q0 23 -6.5 44t-20.5 37t-35 25.5t-50 9.5z" />
    <glyph glyph-name="ntilde" unicode="&#xf1;" horiz-adv-x="657" 
d="M388 556q88 0 141 -47.5t53 -152.5v-356h-149v319q0 59 -21 88.5t-67 29.5q-68 0 -93 -46.5t-25 -133.5v-257h-149v546h114l20 -70h8q18 28 44 45.5t58 26t66 8.5zM127 605q3 39 14.5 67.5t29.5 47t40.5 27.5t48.5 9q20 0 39.5 -7.5t38 -18t36.5 -18t36 -7.5q15 0 29 13
t20 39h73q-6 -77 -44 -114t-89 -37q-20 0 -39 7.5t-38 18t-37 18t-36 7.5q-15 0 -29 -13t-20 -39h-73z" />
    <glyph glyph-name="ograve" unicode="&#xf2;" horiz-adv-x="619" 
d="M574 274q0 -68 -18.5 -121t-53 -89.5t-83.5 -55t-111 -18.5q-57 0 -105.5 18.5t-83.5 55t-54.5 89.5t-19.5 121q0 91 32 153.5t92 95.5t142 33q77 0 136 -33t93 -95.5t34 -153.5zM197 274q0 -54 11.5 -90.5t36.5 -55t65 -18.5t64.5 18.5t36 55t11.5 90.5t-11.5 90
t-36.5 54t-65 18q-59 0 -85.5 -40.5t-26.5 -121.5zM296 766q15 -22 35.5 -49.5t42 -53t37.5 -44.5v-13h-99q-19 13 -44.5 32.5t-52 41.5t-49.5 42t-37 34v10h167z" />
    <glyph glyph-name="oacute" unicode="&#xf3;" horiz-adv-x="619" 
d="M574 274q0 -68 -18.5 -121t-53 -89.5t-83.5 -55t-111 -18.5q-57 0 -105.5 18.5t-83.5 55t-54.5 89.5t-19.5 121q0 91 32 153.5t92 95.5t142 33q77 0 136 -33t93 -95.5t34 -153.5zM197 274q0 -54 11.5 -90.5t36.5 -55t65 -18.5t64.5 18.5t36 55t11.5 90.5t-11.5 90
t-36.5 54t-65 18q-59 0 -85.5 -40.5t-26.5 -121.5zM521 756q-14 -14 -37 -34t-49.5 -42t-52 -41.5t-44.5 -32.5h-99v13q16 19 37.5 44.5t42.5 53t35 49.5h167v-10z" />
    <glyph glyph-name="ocircumflex" unicode="&#xf4;" horiz-adv-x="619" 
d="M574 274q0 -68 -18.5 -121t-53 -89.5t-83.5 -55t-111 -18.5q-57 0 -105.5 18.5t-83.5 55t-54.5 89.5t-19.5 121q0 91 32 153.5t92 95.5t142 33q77 0 136 -33t93 -95.5t34 -153.5zM197 274q0 -54 11.5 -90.5t36.5 -55t65 -18.5t64.5 18.5t36 55t11.5 90.5t-11.5 90
t-36.5 54t-65 18q-59 0 -85.5 -40.5t-26.5 -121.5zM397 766q14 -22 36.5 -49.5t46.5 -53.5t42 -44v-13h-99q-26 16 -57 37.5t-57 48.5q-26 -27 -56 -48t-56 -38h-99v13q19 19 42.5 44.5t46 53t36.5 49.5h174z" />
    <glyph glyph-name="otilde" unicode="&#xf5;" horiz-adv-x="619" 
d="M574 274q0 -68 -18.5 -121t-53 -89.5t-83.5 -55t-111 -18.5q-57 0 -105.5 18.5t-83.5 55t-54.5 89.5t-19.5 121q0 91 32 153.5t92 95.5t142 33q77 0 136 -33t93 -95.5t34 -153.5zM197 274q0 -54 11.5 -90.5t36.5 -55t65 -18.5t64.5 18.5t36 55t11.5 90.5t-11.5 90
t-36.5 54t-65 18q-59 0 -85.5 -40.5t-26.5 -121.5zM108 605q3 39 14.5 67.5t29.5 47t40.5 27.5t48.5 9q20 0 39.5 -7.5t38 -18t36.5 -18t36 -7.5q15 0 29 13t20 39h73q-6 -77 -44 -114t-89 -37q-20 0 -39 7.5t-38 18t-37 18t-36 7.5q-15 0 -29 -13t-20 -39h-73z" />
    <glyph glyph-name="odieresis" unicode="&#xf6;" horiz-adv-x="619" 
d="M574 274q0 -68 -18.5 -121t-53 -89.5t-83.5 -55t-111 -18.5q-57 0 -105.5 18.5t-83.5 55t-54.5 89.5t-19.5 121q0 91 32 153.5t92 95.5t142 33q77 0 136 -33t93 -95.5t34 -153.5zM197 274q0 -54 11.5 -90.5t36.5 -55t65 -18.5t64.5 18.5t36 55t11.5 90.5t-11.5 90
t-36.5 54t-65 18q-59 0 -85.5 -40.5t-26.5 -121.5zM142 686q0 35 20 50.5t48 15.5t48.5 -15.5t20.5 -50.5q0 -33 -20.5 -49t-48.5 -16t-48 16.5t-20 48.5zM339 686q0 35 20 50.5t49 15.5q28 0 48.5 -15.5t20.5 -50.5q0 -33 -20.5 -49t-48.5 -16t-48.5 16.5t-20.5 48.5z" />
    <glyph glyph-name="divide" unicode="&#xf7;" horiz-adv-x="572" 
d="M43 299v107h485v-107h-485zM285 108q-28 0 -48 17.5t-20 56.5q0 41 20 57.5t48 16.5q27 0 47.5 -16.5t20.5 -57.5q0 -39 -20.5 -56.5t-47.5 -17.5zM285 449q-28 0 -48 17.5t-20 56.5q0 41 20 57.5t48 16.5q27 0 47.5 -16.5t20.5 -57.5q0 -39 -20.5 -56.5t-47.5 -17.5z
" />
    <glyph glyph-name="oslash" unicode="&#xf8;" horiz-adv-x="619" 
d="M574 274q0 -91 -32.5 -154.5t-92 -96.5t-141.5 -33q-31 0 -59.5 6t-54.5 16l-33 -49l-75 51l33 49q-35 37 -54.5 89.5t-19.5 121.5q0 136 71 209t195 73q33 0 63.5 -6.5t57.5 -18.5l27 40l74 -53l-28 -41q33 -36 51 -87t18 -116zM197 274q0 -24 2.5 -44t6.5 -37l155 232
q-10 5 -23.5 8t-28.5 3q-59 0 -85.5 -40.5t-26.5 -121.5zM422 274q0 20 -1.5 37t-4.5 32l-151 -226q10 -4 21 -5.5t24 -1.5q40 0 64.5 18.5t36 55t11.5 90.5z" />
    <glyph glyph-name="ugrave" unicode="&#xf9;" horiz-adv-x="657" 
d="M579 546v-546h-114l-20 70h-8q-17 -28 -43.5 -45.5t-58.5 -26t-66 -8.5q-58 0 -102 21t-68 65t-24 114v356h149v-319q0 -58 21 -88t67 -30t71.5 21t36 61t10.5 98v257h149zM315 766q15 -22 35.5 -49.5t42 -53t37.5 -44.5v-13h-99q-19 13 -44.5 32.5t-52 41.5t-49.5 42
t-37 34v10h167z" />
    <glyph glyph-name="uacute" unicode="&#xfa;" horiz-adv-x="657" 
d="M579 546v-546h-114l-20 70h-8q-17 -28 -43.5 -45.5t-58.5 -26t-66 -8.5q-58 0 -102 21t-68 65t-24 114v356h149v-319q0 -58 21 -88t67 -30t71.5 21t36 61t10.5 98v257h149zM540 756q-14 -14 -37 -34t-49.5 -42t-52 -41.5t-44.5 -32.5h-99v13q16 19 37.5 44.5t42.5 53
t35 49.5h167v-10z" />
    <glyph glyph-name="ucircumflex" unicode="&#xfb;" horiz-adv-x="657" 
d="M579 546v-546h-114l-20 70h-8q-17 -28 -43.5 -45.5t-58.5 -26t-66 -8.5q-58 0 -102 21t-68 65t-24 114v356h149v-319q0 -58 21 -88t67 -30t71.5 21t36 61t10.5 98v257h149zM416 766q14 -22 36.5 -49.5t46.5 -53.5t42 -44v-13h-99q-26 16 -57 37.5t-57 48.5
q-26 -27 -56 -48t-56 -38h-99v13q19 19 42.5 44.5t46 53t36.5 49.5h174z" />
    <glyph glyph-name="udieresis" unicode="&#xfc;" horiz-adv-x="657" 
d="M579 546v-546h-114l-20 70h-8q-17 -28 -43.5 -45.5t-58.5 -26t-66 -8.5q-58 0 -102 21t-68 65t-24 114v356h149v-319q0 -58 21 -88t67 -30t71.5 21t36 61t10.5 98v257h149zM161 686q0 35 20 50.5t48 15.5t48.5 -15.5t20.5 -50.5q0 -33 -20.5 -49t-48.5 -16t-48 16.5
t-20 48.5zM358 686q0 35 20 50.5t49 15.5q28 0 48.5 -15.5t20.5 -50.5q0 -33 -20.5 -49t-48.5 -16t-48.5 16.5t-20.5 48.5z" />
    <glyph glyph-name="yacute" unicode="&#xfd;" horiz-adv-x="569" 
d="M0 546h163l103 -307q5 -15 8.5 -30t6 -31t3.5 -34h3q3 26 8.5 49.5t12.5 45.5l101 307h160l-231 -616q-21 -56 -54.5 -94t-77.5 -57t-96 -19q-25 0 -43.5 2.5t-32.5 5.5v118q11 -2 26.5 -4t32.5 -2q31 0 53.5 13t37.5 35.5t24 48.5l9 27zM496 756q-14 -14 -37 -34
t-49.5 -42t-52 -41.5t-44.5 -32.5h-99v13q16 19 37.5 44.5t42.5 53t35 49.5h167v-10z" />
    <glyph glyph-name="thorn" unicode="&#xfe;" horiz-adv-x="633" 
d="M588 274q0 -93 -26 -156.5t-72 -95.5t-108 -32q-39 0 -68.5 9t-50.5 24.5t-36 33.5h-7q2 -10 3.5 -24t2.5 -27.5t1 -24.5v-221h-149v1000h149v-191q0 -24 -2.5 -51.5t-4.5 -42.5h7q14 23 35.5 41t51 29t68.5 11q92 0 149 -71.5t57 -210.5zM436 276q0 80 -24.5 120.5
t-77.5 40.5q-58 0 -81.5 -36t-25.5 -110v-16q0 -79 23.5 -121.5t85.5 -42.5q34 0 56 19t33 56t11 90z" />
    <glyph glyph-name="ydieresis" unicode="&#xff;" horiz-adv-x="569" 
d="M0 546h163l103 -307q5 -15 8.5 -30t6 -31t3.5 -34h3q3 26 8.5 49.5t12.5 45.5l101 307h160l-231 -616q-21 -56 -54.5 -94t-77.5 -57t-96 -19q-25 0 -43.5 2.5t-32.5 5.5v118q11 -2 26.5 -4t32.5 -2q31 0 53.5 13t37.5 35.5t24 48.5l9 27zM117 686q0 35 20 50.5t48 15.5
t48.5 -15.5t20.5 -50.5q0 -33 -20.5 -49t-48.5 -16t-48 16.5t-20 48.5zM314 686q0 35 20 50.5t49 15.5q28 0 48.5 -15.5t20.5 -50.5q0 -33 -20.5 -49t-48.5 -16t-48.5 16.5t-20.5 48.5z" />
    <glyph glyph-name="Amacron" unicode="&#x100;" horiz-adv-x="690" 
d="M527 0l-52 170h-260l-52 -170h-163l252 717h185l253 -717h-163zM387 463q-5 17 -13 43t-16 53t-13 47q-5 -20 -13.5 -49.5t-16 -56t-11.5 -37.5l-51 -166h186zM510 877v-103h-331v103h331z" />
    <glyph glyph-name="amacron" unicode="&#x101;" horiz-adv-x="604" 
d="M302 557q110 0 168.5 -47.5t58.5 -145.5v-364h-104l-29 74h-4q-23 -29 -47.5 -48t-56 -27.5t-77.5 -8.5q-48 0 -86.5 18.5t-60.5 57t-22 97.5q0 87 61 128.5t183 45.5l95 3v24q0 43 -22.5 63t-62.5 20t-78 -11.5t-76 -28.5l-49 101q44 23 97.5 36t111.5 13zM323 251
q-72 -2 -100 -26t-28 -63q0 -34 20 -48.5t52 -14.5q48 0 81 28.5t33 80.5v45zM467 709v-103h-331v103h331z" />
    <glyph glyph-name="Abreve" unicode="&#x102;" horiz-adv-x="690" 
d="M527 0l-52 170h-260l-52 -170h-163l252 717h185l253 -717h-163zM387 463q-5 17 -13 43t-16 53t-13 47q-5 -20 -13.5 -49.5t-16 -56t-11.5 -37.5l-51 -166h186zM537 939q-3 -48 -28.5 -85.5t-67.5 -58.5t-98 -21q-86 0 -136 45t-54 120h83q3 -28 17.5 -41t38.5 -16.5
t52 -3.5q24 0 47.5 4.5t40.5 17.5t20 39h85z" />
    <glyph glyph-name="abreve" unicode="&#x103;" horiz-adv-x="604" 
d="M302 557q110 0 168.5 -47.5t58.5 -145.5v-364h-104l-29 74h-4q-23 -29 -47.5 -48t-56 -27.5t-77.5 -8.5q-48 0 -86.5 18.5t-60.5 57t-22 97.5q0 87 61 128.5t183 45.5l95 3v24q0 43 -22.5 63t-62.5 20t-78 -11.5t-76 -28.5l-49 101q44 23 97.5 36t111.5 13zM323 251
q-72 -2 -100 -26t-28 -63q0 -34 20 -48.5t52 -14.5q48 0 81 28.5t33 80.5v45zM494 771q-3 -48 -28.5 -85.5t-67.5 -58.5t-98 -21q-86 0 -136 45t-54 120h83q3 -28 17.5 -41t38.5 -16.5t52 -3.5q24 0 47.5 4.5t40.5 17.5t20 39h85z" />
    <glyph glyph-name="Aogonek" unicode="&#x104;" horiz-adv-x="690" 
d="M527 0l-52 170h-260l-52 -170h-163l252 717h185l253 -717h-163zM387 463q-5 17 -13 43t-16 53t-13 47q-5 -20 -13.5 -49.5t-16 -56t-11.5 -37.5l-51 -166h186zM575 -111q0 -20 11 -30t28 -10q16 0 31 3t25 6v-87q-16 -4 -34 -7.5t-42 -3.5q-56 0 -89 31.5t-33 80.5
q0 29 15 56t39.5 49.5t55.5 39.5l65 -17q-34 -32 -53 -58.5t-19 -52.5z" />
    <glyph glyph-name="aogonek" unicode="&#x105;" horiz-adv-x="604" 
d="M302 557q110 0 168.5 -47.5t58.5 -145.5v-364h-104l-29 74h-4q-23 -29 -47.5 -48t-56 -27.5t-77.5 -8.5q-48 0 -86.5 18.5t-60.5 57t-22 97.5q0 87 61 128.5t183 45.5l95 3v24q0 43 -22.5 63t-62.5 20t-78 -11.5t-76 -28.5l-49 101q44 23 97.5 36t111.5 13zM323 251
q-72 -2 -100 -26t-28 -63q0 -34 20 -48.5t52 -14.5q48 0 81 28.5t33 80.5v45zM445 -111q0 -20 11 -30t28 -10q16 0 31 3t25 6v-87q-16 -4 -34 -7.5t-42 -3.5q-56 0 -89 31.5t-33 80.5q0 29 15 56t39.5 49.5t55.5 39.5l65 -17q-34 -32 -53 -58.5t-19 -52.5z" />
    <glyph glyph-name="Cacute" unicode="&#x106;" horiz-adv-x="637" 
d="M393 598q-43 0 -76.5 -17t-56.5 -48.5t-34.5 -76.5t-11.5 -101q0 -76 18.5 -129.5t58.5 -81.5t102 -28q44 0 87.5 10t94.5 28v-127q-47 -19 -93 -28t-103 -9q-110 0 -181.5 45.5t-105.5 128t-34 192.5q0 81 22 148.5t64.5 116.5t105 76t143.5 27q53 0 106.5 -13.5
t102.5 -36.5l-49 -123q-40 19 -80.5 33t-79.5 14zM588 924q-14 -14 -37 -34t-49.5 -42t-52 -41.5t-44.5 -32.5h-99v13q16 19 37.5 44.5t42.5 53t35 49.5h167v-10z" />
    <glyph glyph-name="cacute" unicode="&#x107;" horiz-adv-x="514" 
d="M300 -10q-81 0 -138 29.5t-87 91.5t-30 159q0 100 34 163t94.5 93t139.5 30q56 0 97.5 -11t72.5 -26l-44 -115q-35 14 -65.5 23t-60.5 9q-39 0 -65 -18.5t-38.5 -55t-12.5 -91.5q0 -54 13.5 -89.5t39.5 -53t63 -17.5q47 0 83 12.5t70 34.5v-127q-34 -22 -71.5 -31.5
t-94.5 -9.5zM498 756q-14 -14 -37 -34t-49.5 -42t-52 -41.5t-44.5 -32.5h-99v13q16 19 37.5 44.5t42.5 53t35 49.5h167v-10z" />
    <glyph glyph-name="Cdotaccent" unicode="&#x10a;" horiz-adv-x="637" 
d="M393 598q-43 0 -76.5 -17t-56.5 -48.5t-34.5 -76.5t-11.5 -101q0 -76 18.5 -129.5t58.5 -81.5t102 -28q44 0 87.5 10t94.5 28v-127q-47 -19 -93 -28t-103 -9q-110 0 -181.5 45.5t-105.5 128t-34 192.5q0 81 22 148.5t64.5 116.5t105 76t143.5 27q53 0 106.5 -13.5
t102.5 -36.5l-49 -123q-40 19 -80.5 33t-79.5 14zM377 928q33 0 57 -15.5t24 -57.5q0 -41 -24 -57t-57 -16q-34 0 -57.5 16t-23.5 57q0 42 23.5 57.5t57.5 15.5z" />
    <glyph glyph-name="cdotaccent" unicode="&#x10b;" horiz-adv-x="514" 
d="M300 -10q-81 0 -138 29.5t-87 91.5t-30 159q0 100 34 163t94.5 93t139.5 30q56 0 97.5 -11t72.5 -26l-44 -115q-35 14 -65.5 23t-60.5 9q-39 0 -65 -18.5t-38.5 -55t-12.5 -91.5q0 -54 13.5 -89.5t39.5 -53t63 -17.5q47 0 83 12.5t70 34.5v-127q-34 -22 -71.5 -31.5
t-94.5 -9.5zM287 760q33 0 57 -15.5t24 -57.5q0 -41 -24 -57t-57 -16q-34 0 -57.5 16t-23.5 57q0 42 23.5 57.5t57.5 15.5z" />
    <glyph glyph-name="Ccaron" unicode="&#x10c;" horiz-adv-x="637" 
d="M393 598q-43 0 -76.5 -17t-56.5 -48.5t-34.5 -76.5t-11.5 -101q0 -76 18.5 -129.5t58.5 -81.5t102 -28q44 0 87.5 10t94.5 28v-127q-47 -19 -93 -28t-103 -9q-110 0 -181.5 45.5t-105.5 128t-34 192.5q0 81 22 148.5t64.5 116.5t105 76t143.5 27q53 0 106.5 -13.5
t102.5 -36.5l-49 -123q-40 19 -80.5 33t-79.5 14zM290 774q-14 23 -36.5 50t-46 53t-42.5 44v13h99q26 -16 56 -37.5t56 -48.5q26 27 57 48.5t57 37.5h99v-13q-18 -18 -42 -44t-46.5 -53t-36.5 -50h-174z" />
    <glyph glyph-name="ccaron" unicode="&#x10d;" horiz-adv-x="514" 
d="M300 -10q-81 0 -138 29.5t-87 91.5t-30 159q0 100 34 163t94.5 93t139.5 30q56 0 97.5 -11t72.5 -26l-44 -115q-35 14 -65.5 23t-60.5 9q-39 0 -65 -18.5t-38.5 -55t-12.5 -91.5q0 -54 13.5 -89.5t39.5 -53t63 -17.5q47 0 83 12.5t70 34.5v-127q-34 -22 -71.5 -31.5
t-94.5 -9.5zM200 606q-14 23 -36.5 50t-46 53t-42.5 44v13h99q26 -16 56 -37.5t56 -48.5q26 27 57 48.5t57 37.5h99v-13q-18 -18 -42 -44t-46.5 -53t-36.5 -50h-174z" />
    <glyph glyph-name="Dcaron" unicode="&#x10e;" horiz-adv-x="740" 
d="M682 364q0 -120 -46 -201t-133.5 -122t-210.5 -41h-202v714h224q112 0 194.5 -40t128 -117.5t45.5 -192.5zM525 360q0 79 -23 130t-68.5 75.5t-111.5 24.5h-81v-465h65q111 0 165 59t54 176zM283 774q-14 23 -36.5 50t-46 53t-42.5 44v13h99q26 -16 56 -37.5t56 -48.5
q26 27 57 48.5t57 37.5h99v-13q-18 -18 -42 -44t-46.5 -53t-36.5 -50h-174z" />
    <glyph glyph-name="dcaron" unicode="&#x10f;" horiz-adv-x="633" 
d="M251 -10q-91 0 -148.5 71.5t-57.5 210.5q0 140 58 212t152 72q39 0 69 -10.5t51.5 -28.5t36.5 -41h5q-3 16 -7 46.5t-4 62.5v175h149v-760h-114l-29 71h-6q-14 -22 -35.5 -40.5t-50.5 -29.5t-69 -11zM303 109q62 0 87 36.5t26 109.5v16q0 80 -24.5 122t-90.5 42
q-49 0 -77 -42.5t-28 -122.5t28 -120.5t79 -40.5zM757 750q-10 -22 -22.5 -46.5t-27 -50.5t-31.5 -53h-87v13q4 15 8.5 33.5t8.5 38.5t7.5 39.5t5.5 35.5h138v-10z" />
    <glyph glyph-name="Dcroat" unicode="&#x110;" horiz-adv-x="740" 
d="M314 714q112 0 194.5 -40t128 -117.5t45.5 -192.5q0 -120 -46 -201t-133.5 -122t-210.5 -41h-202v291h-67v124h67v299h224zM321 590h-80v-175h116v-124h-116v-166h64q110 0 165 59t55 176q0 79 -24 130t-69.5 75.5t-110.5 24.5z" />
    <glyph glyph-name="dcroat" unicode="&#x111;" horiz-adv-x="649" 
d="M251 -10q-91 0 -148.5 68t-57.5 199q0 133 58 201t152 68q39 0 69 -10.5t51.5 -28.5t36.5 -41h5q-4 21 -7.5 54.5t-3.5 58.5v25h-154v97h154v79h149v-79h76v-97h-76v-584h-114l-29 71h-6q-14 -22 -35.5 -40.5t-50.5 -29.5t-69 -11zM303 109q62 0 87 33t26 100v14
q0 72 -24.5 110.5t-90.5 38.5q-49 0 -77 -38.5t-28 -111.5t28 -109.5t79 -36.5z" />
    <glyph glyph-name="Emacron" unicode="&#x112;" horiz-adv-x="560" 
d="M501 0h-411v714h411v-124h-260v-157h242v-124h-242v-184h260v-125zM466 877v-103h-331v103h331z" />
    <glyph glyph-name="emacron" unicode="&#x113;" horiz-adv-x="591" 
d="M303 556q76 0 130.5 -29t84.5 -84t30 -135v-72h-352q2 -63 37.5 -99t98.5 -36q53 0 96 10.5t89 32.5v-115q-40 -20 -84.5 -29.5t-107.5 -9.5q-82 0 -145 30.5t-99 92.5t-36 156q0 96 32.5 159.5t90.5 95.5t135 32zM304 450q-43 0 -71.5 -28t-33.5 -87h209q0 33 -11.5 59
t-34.5 41t-58 15zM461 709v-103h-331v103h331z" />
    <glyph glyph-name="Edotaccent" unicode="&#x116;" horiz-adv-x="560" 
d="M501 0h-411v714h411v-124h-260v-157h242v-124h-242v-184h260v-125zM301 928q33 0 57 -15.5t24 -57.5q0 -41 -24 -57t-57 -16q-34 0 -57.5 16t-23.5 57q0 42 23.5 57.5t57.5 15.5z" />
    <glyph glyph-name="edotaccent" unicode="&#x117;" horiz-adv-x="591" 
d="M303 556q76 0 130.5 -29t84.5 -84t30 -135v-72h-352q2 -63 37.5 -99t98.5 -36q53 0 96 10.5t89 32.5v-115q-40 -20 -84.5 -29.5t-107.5 -9.5q-82 0 -145 30.5t-99 92.5t-36 156q0 96 32.5 159.5t90.5 95.5t135 32zM304 450q-43 0 -71.5 -28t-33.5 -87h209q0 33 -11.5 59
t-34.5 41t-58 15zM296 760q33 0 57 -15.5t24 -57.5q0 -41 -24 -57t-57 -16q-34 0 -57.5 16t-23.5 57q0 42 23.5 57.5t57.5 15.5z" />
    <glyph glyph-name="Eogonek" unicode="&#x118;" horiz-adv-x="560" 
d="M501 0h-411v714h411v-124h-260v-157h242v-124h-242v-184h260v-125zM406 -111q0 -20 11 -30t28 -10q16 0 31 3t25 6v-87q-16 -4 -34 -7.5t-42 -3.5q-56 0 -89 31.5t-33 80.5q0 29 15 56t39.5 49.5t55.5 39.5l65 -17q-34 -32 -53 -58.5t-19 -52.5z" />
    <glyph glyph-name="eogonek" unicode="&#x119;" horiz-adv-x="591" 
d="M413 -111q0 -20 11 -30t28 -10q16 0 31 3t25 6v-87q-16 -4 -34 -7.5t-42 -3.5q-56 0 -89 31.5t-33 80.5q0 29 15 56t40 49.5t55 39.5l97 12q-40 -35 -62.5 -60t-32 -44t-9.5 -36zM303 556q76 0 130.5 -29t84.5 -84t30 -135v-72h-352q2 -63 37.5 -99t98.5 -36
q53 0 96 10.5t89 32.5v-115q-40 -20 -84.5 -29.5t-107.5 -9.5q-82 0 -145 30.5t-99 92.5t-36 156q0 96 32.5 159.5t90.5 95.5t135 32zM304 450q-43 0 -71.5 -28t-33.5 -87h209q0 33 -11.5 59t-34.5 41t-58 15z" />
    <glyph glyph-name="Ecaron" unicode="&#x11a;" horiz-adv-x="560" 
d="M501 0h-411v714h411v-124h-260v-157h242v-124h-242v-184h260v-125zM214 774q-14 23 -36.5 50t-46 53t-42.5 44v13h99q26 -16 56 -37.5t56 -48.5q26 27 57 48.5t57 37.5h99v-13q-18 -18 -42 -44t-46.5 -53t-36.5 -50h-174z" />
    <glyph glyph-name="ecaron" unicode="&#x11b;" horiz-adv-x="591" 
d="M303 556q76 0 130.5 -29t84.5 -84t30 -135v-72h-352q2 -63 37.5 -99t98.5 -36q53 0 96 10.5t89 32.5v-115q-40 -20 -84.5 -29.5t-107.5 -9.5q-82 0 -145 30.5t-99 92.5t-36 156q0 96 32.5 159.5t90.5 95.5t135 32zM304 450q-43 0 -71.5 -28t-33.5 -87h209q0 33 -11.5 59
t-34.5 41t-58 15zM209 606q-14 23 -36.5 50t-46 53t-42.5 44v13h99q26 -16 56 -37.5t56 -48.5q26 27 57 48.5t57 37.5h99v-13q-18 -18 -42 -44t-46.5 -53t-36.5 -50h-174z" />
    <glyph glyph-name="Gbreve" unicode="&#x11e;" horiz-adv-x="724" 
d="M361 401h283v-370q-56 -19 -116.5 -30t-137.5 -11q-106 0 -180.5 42t-113 124t-38.5 202q0 112 43.5 194t126.5 127t203 45q57 0 112 -12t100 -32l-50 -121q-33 17 -75 28t-88 11q-66 0 -114.5 -30t-75 -84.5t-26.5 -128.5q0 -70 19 -124t60 -84.5t107 -30.5q32 0 54.5 3
t41.5 7v149h-135v126zM592 939q-3 -48 -28.5 -85.5t-67.5 -58.5t-98 -21q-86 0 -136 45t-54 120h83q3 -28 17.5 -41t38.5 -16.5t52 -3.5q24 0 47.5 4.5t40.5 17.5t20 39h85z" />
    <glyph glyph-name="gbreve" unicode="&#x11f;" horiz-adv-x="633" 
d="M255 556q50 0 90 -20t68 -60h4l12 70h126v-547q0 -78 -30.5 -131t-91.5 -80.5t-151 -27.5q-58 0 -107.5 7t-96.5 25v119q50 -21 103.5 -31.5t109.5 -10.5q58 0 86.5 31t28.5 93v11q0 17 1.5 35t2.5 32h-4q-28 -43 -67 -62t-88 -19q-97 0 -151.5 74.5t-54.5 207.5
q0 134 56 209t154 75zM302 435q-35 0 -58.5 -18.5t-35 -55t-11.5 -91.5q0 -82 26 -122.5t81 -40.5q29 0 50 7.5t34.5 25t20.5 45.5t7 68v18q0 59 -12 95t-37 52.5t-65 16.5zM506 771q-3 -48 -28.5 -85.5t-67.5 -58.5t-98 -21q-86 0 -136 45t-54 120h83q3 -28 17.5 -41
t38.5 -16.5t52 -3.5q24 0 47.5 4.5t40.5 17.5t20 39h85z" />
    <glyph glyph-name="Gdotaccent" unicode="&#x120;" horiz-adv-x="724" 
d="M361 401h283v-370q-56 -19 -116.5 -30t-137.5 -11q-106 0 -180.5 42t-113 124t-38.5 202q0 112 43.5 194t126.5 127t203 45q57 0 112 -12t100 -32l-50 -121q-33 17 -75 28t-88 11q-66 0 -114.5 -30t-75 -84.5t-26.5 -128.5q0 -70 19 -124t60 -84.5t107 -30.5q32 0 54.5 3
t41.5 7v149h-135v126zM400 928q33 0 57 -15.5t24 -57.5q0 -41 -24 -57t-57 -16q-34 0 -57.5 16t-23.5 57q0 42 23.5 57.5t57.5 15.5z" />
    <glyph glyph-name="gdotaccent" unicode="&#x121;" horiz-adv-x="633" 
d="M255 556q50 0 90 -20t68 -60h4l12 70h126v-547q0 -78 -30.5 -131t-91.5 -80.5t-151 -27.5q-58 0 -107.5 7t-96.5 25v119q50 -21 103.5 -31.5t109.5 -10.5q58 0 86.5 31t28.5 93v11q0 17 1.5 35t2.5 32h-4q-28 -43 -67 -62t-88 -19q-97 0 -151.5 74.5t-54.5 207.5
q0 134 56 209t154 75zM302 435q-35 0 -58.5 -18.5t-35 -55t-11.5 -91.5q0 -82 26 -122.5t81 -40.5q29 0 50 7.5t34.5 25t20.5 45.5t7 68v18q0 59 -12 95t-37 52.5t-65 16.5zM314 760q33 0 57 -15.5t24 -57.5q0 -41 -24 -57t-57 -16q-34 0 -57.5 16t-23.5 57q0 42 23.5 57.5
t57.5 15.5z" />
    <glyph glyph-name="uni0122" unicode="&#x122;" horiz-adv-x="724" 
d="M361 401h283v-370q-56 -19 -116.5 -30t-137.5 -11q-106 0 -180.5 42t-113 124t-38.5 202q0 112 43.5 194t126.5 127t203 45q57 0 112 -12t100 -32l-50 -121q-33 17 -75 28t-88 11q-66 0 -114.5 -30t-75 -84.5t-26.5 -128.5q0 -70 19 -124t60 -84.5t107 -30.5q32 0 54.5 3
t41.5 7v149h-135v126zM474 -71q-10 -22 -22.5 -46.5t-27 -50.5t-31.5 -53h-87v13q6 20 12 46t11 53t7 48h138v-10z" />
    <glyph glyph-name="uni0123" unicode="&#x123;" horiz-adv-x="633" 
d="M255 556q50 0 90 -20t68 -60h4l12 70h126v-547q0 -78 -30.5 -131t-91.5 -80.5t-151 -27.5q-58 0 -107.5 7t-96.5 25v119q50 -21 103.5 -31.5t109.5 -10.5q58 0 86.5 31t28.5 93v11q0 17 1.5 35t2.5 32h-4q-28 -43 -67 -62t-88 -19q-97 0 -151.5 74.5t-54.5 207.5
q0 134 56 209t154 75zM302 435q-35 0 -58.5 -18.5t-35 -55t-11.5 -91.5q0 -82 26 -122.5t81 -40.5q29 0 50 7.5t34.5 25t20.5 45.5t7 68v18q0 59 -12 95t-37 52.5t-65 16.5zM392 753q-5 -19 -11 -45.5t-11 -53t-8 -48.5h-138v10q10 22 22.5 46.5t27 51t31.5 52.5h87v-13z
" />
    <glyph glyph-name="Hbar" unicode="&#x126;" horiz-adv-x="765" 
d="M90 0v522h-90v97h90v95h151v-95h283v95h151v-95h90v-97h-90v-522h-151v308h-283v-308h-151zM241 434h283v88h-283v-88z" />
    <glyph glyph-name="hbar" unicode="&#x127;" horiz-adv-x="657" 
d="M227 760v-79h154v-97h-154v-9q0 -40 -2.5 -77t-4.5 -52h9q18 28 41.5 45.5t53 26t63.5 8.5q59 0 103 -21t68 -65t24 -114v-326h-149v289q0 59 -21.5 88.5t-66.5 29.5t-70.5 -21t-36.5 -61t-11 -98v-227h-149v584h-76v97h76v79h149z" />
    <glyph glyph-name="Imacron" unicode="&#x12a;" horiz-adv-x="389" 
d="M357 0h-325v86l87 40v462l-87 40v86h325v-86l-87 -40v-462l87 -40v-86zM360 877v-103h-331v103h331z" />
    <glyph glyph-name="imacron" unicode="&#x12b;" horiz-adv-x="305" 
d="M227 0h-149v546h149v-546zM318 709v-103h-331v103h331z" />
    <glyph glyph-name="Iogonek" unicode="&#x12e;" horiz-adv-x="389" 
d="M357 0h-325v86l87 40v462l-87 40v86h325v-86l-87 -40v-462l87 -40v-86zM256 -111q0 -20 11 -30t28 -10q16 0 31 3t25 6v-87q-16 -4 -34 -7.5t-42 -3.5q-56 0 -89 31.5t-33 80.5q0 29 15 56t39.5 49.5t55.5 39.5l65 -17q-34 -32 -53 -58.5t-19 -52.5z" />
    <glyph glyph-name="iogonek" unicode="&#x12f;" horiz-adv-x="305" 
d="M227 546v-546h-149v546h149zM153 760q33 0 57 -15.5t24 -57.5q0 -41 -24 -57t-57 -16q-34 0 -57.5 16t-23.5 57q0 42 23.5 57.5t57.5 15.5zM148 -111q0 -20 11 -30t28 -10q16 0 31 3t25 6v-87q-16 -4 -34 -7.5t-42 -3.5q-56 0 -89 31.5t-33 80.5q0 29 15 56t39.5 49.5
t55.5 39.5l65 -17q-34 -32 -53 -58.5t-19 -52.5z" />
    <glyph glyph-name="Idotaccent" unicode="&#x130;" horiz-adv-x="389" 
d="M357 0h-325v86l87 40v462l-87 40v86h325v-86l-87 -40v-462l87 -40v-86zM195 928q33 0 57 -15.5t24 -57.5q0 -41 -24 -57t-57 -16q-34 0 -57.5 16t-23.5 57q0 42 23.5 57.5t57.5 15.5z" />
    <glyph glyph-name="dotlessi" unicode="&#x131;" horiz-adv-x="305" 
d="M227 0h-149v546h149v-546z" />
    <glyph glyph-name="uni0136" unicode="&#x136;" horiz-adv-x="664" 
d="M664 0h-172l-187 301l-64 -46v-255h-151v714h151v-327l30 42l30 42l193 243h168l-249 -316zM432 -71q-10 -22 -22.5 -46.5t-27 -50.5t-31.5 -53h-87v13q6 20 12 46t11 53t7 48h138v-10z" />
    <glyph glyph-name="uni0137" unicode="&#x137;" horiz-adv-x="620" 
d="M227 420q0 -31 -2.5 -61.5t-5.5 -61.5h2q10 14 20.5 28t21.5 28t23 27l153 166h168l-217 -237l230 -309h-172l-157 221l-64 -51v-170h-149v760h149v-340zM394 -71q-10 -22 -22.5 -46.5t-27 -50.5t-31.5 -53h-87v13q6 20 12 46t11 53t7 48h138v-10z" />
    <glyph glyph-name="Lacute" unicode="&#x139;" horiz-adv-x="565" 
d="M90 0v714h151v-589h290v-125h-441zM375 924q-14 -14 -37 -34t-49.5 -42t-52 -41.5t-44.5 -32.5h-99v13q16 19 37.5 44.5t42.5 53t35 49.5h167v-10z" />
    <glyph glyph-name="lacute" unicode="&#x13a;" horiz-adv-x="305" 
d="M227 0h-149v760h149v-760zM364 970q-14 -14 -37 -34t-49.5 -42t-52 -41.5t-44.5 -32.5h-99v13q16 19 37.5 44.5t42.5 53t35 49.5h167v-10z" />
    <glyph glyph-name="uni013B" unicode="&#x13b;" horiz-adv-x="565" 
d="M90 0v714h151v-589h290v-125h-441zM392 -71q-10 -22 -22.5 -46.5t-27 -50.5t-31.5 -53h-87v13q6 20 12 46t11 53t7 48h138v-10z" />
    <glyph glyph-name="uni013C" unicode="&#x13c;" horiz-adv-x="305" 
d="M227 0h-149v760h149v-760zM237 -71q-10 -22 -22.5 -46.5t-27 -50.5t-31.5 -53h-87v13q6 20 12 46t11 53t7 48h138v-10z" />
    <glyph glyph-name="Lcaron" unicode="&#x13d;" horiz-adv-x="565" 
d="M90 0v714h151v-589h290v-125h-441zM559 704q-10 -22 -22.5 -46.5t-27 -50.5t-31.5 -53h-87v13q4 15 8.5 33.5t8.5 38.5t7.5 39.5t5.5 35.5h138v-10z" />
    <glyph glyph-name="lcaron" unicode="&#x13e;" horiz-adv-x="305" 
d="M227 0h-149v760h149v-760zM422 750q-10 -22 -22.5 -46.5t-27 -50.5t-31.5 -53h-87v13q4 15 8.5 33.5t8.5 38.5t7.5 39.5t5.5 35.5h138v-10z" />
    <glyph glyph-name="Lslash" unicode="&#x141;" horiz-adv-x="565" 
d="M90 0v240l-34 -20l-55 96l89 54v344h151v-252l70 43l57 -96l-127 -77v-207h290v-125h-441z" />
    <glyph glyph-name="lslash" unicode="&#x142;" horiz-adv-x="305" 
d="M78 0v233l-35 -21l-55 96l90 55v397h149v-306l34 21l57 -96l-91 -55v-324h-149z" />
    <glyph glyph-name="Nacute" unicode="&#x143;" horiz-adv-x="813" 
d="M723 0h-192l-311 540h-4q2 -34 3.5 -68l3 -68t2.5 -68v-336h-135v714h191l310 -535h3l-2 66t-2.5 65.5t-2.5 65.5v338h136v-714zM618 924q-14 -14 -37 -34t-49.5 -42t-52 -41.5t-44.5 -32.5h-99v13q16 19 37.5 44.5t42.5 53t35 49.5h167v-10z" />
    <glyph glyph-name="nacute" unicode="&#x144;" horiz-adv-x="657" 
d="M388 556q88 0 141 -47.5t53 -152.5v-356h-149v319q0 59 -21 88.5t-67 29.5q-68 0 -93 -46.5t-25 -133.5v-257h-149v546h114l20 -70h8q18 28 44 45.5t58 26t66 8.5zM540 756q-14 -14 -37 -34t-49.5 -42t-52 -41.5t-44.5 -32.5h-99v13q16 19 37.5 44.5t42.5 53t35 49.5h167
v-10z" />
    <glyph glyph-name="uni0145" unicode="&#x145;" horiz-adv-x="813" 
d="M723 0h-192l-311 540h-4q2 -34 3.5 -68l3 -68t2.5 -68v-336h-135v714h191l310 -535h3l-2 66t-2.5 65.5t-2.5 65.5v338h136v-714zM491 -71q-10 -22 -22.5 -46.5t-27 -50.5t-31.5 -53h-87v13q6 20 12 46t11 53t7 48h138v-10z" />
    <glyph glyph-name="uni0146" unicode="&#x146;" horiz-adv-x="657" 
d="M388 556q88 0 141 -47.5t53 -152.5v-356h-149v319q0 59 -21 88.5t-67 29.5q-68 0 -93 -46.5t-25 -133.5v-257h-149v546h114l20 -70h8q18 28 44 45.5t58 26t66 8.5zM413 -71q-10 -22 -22.5 -46.5t-27 -50.5t-31.5 -53h-87v13q6 20 12 46t11 53t7 48h138v-10z" />
    <glyph glyph-name="Ncaron" unicode="&#x147;" horiz-adv-x="813" 
d="M723 0h-192l-311 540h-4q2 -34 3.5 -68l3 -68t2.5 -68v-336h-135v714h191l310 -535h3l-2 66t-2.5 65.5t-2.5 65.5v338h136v-714zM320 774q-14 23 -36.5 50t-46 53t-42.5 44v13h99q26 -16 56 -37.5t56 -48.5q26 27 57 48.5t57 37.5h99v-13q-18 -18 -42 -44t-46.5 -53
t-36.5 -50h-174z" />
    <glyph glyph-name="ncaron" unicode="&#x148;" horiz-adv-x="657" 
d="M388 556q88 0 141 -47.5t53 -152.5v-356h-149v319q0 59 -21 88.5t-67 29.5q-68 0 -93 -46.5t-25 -133.5v-257h-149v546h114l20 -70h8q18 28 44 45.5t58 26t66 8.5zM242 606q-14 23 -36.5 50t-46 53t-42.5 44v13h99q26 -16 56 -37.5t56 -48.5q26 27 57 48.5t57 37.5h99
v-13q-18 -18 -42 -44t-46.5 -53t-36.5 -50h-174z" />
    <glyph glyph-name="Eng" unicode="&#x14a;" horiz-adv-x="813" 
d="M496 -210q-31 0 -55 3.5t-41 7.5v118q18 -4 38 -7t43 -3q37 0 61 9.5t36 30t13 53.5l-371 538h-4q2 -28 4 -65.5t3.5 -74.5t1.5 -64v-336h-135v714h191l310 -440h3q-1 28 -3 64.5t-3 72.5t-1 60v243h136v-714q0 -72 -28.5 -118.5t-79.5 -69t-119 -22.5z" />
    <glyph glyph-name="eng" unicode="&#x14b;" horiz-adv-x="657" 
d="M405 -240q-23 0 -48 3.5t-42 8.5v117q15 -4 28.5 -6.5t29.5 -2.5q25 0 42.5 17t17.5 66v367q0 53 -22 80t-66 27q-45 0 -71 -21t-36.5 -61t-10.5 -98v-257h-149v546h114l20 -70h9q18 28 44 45.5t58 26t65 8.5q59 0 102.5 -21t67.5 -65t24 -114v-415q0 -50 -17.5 -91
t-56.5 -65.5t-103 -24.5z" />
    <glyph glyph-name="Omacron" unicode="&#x14c;" horiz-adv-x="796" 
d="M738 358q0 -83 -20.5 -150.5t-62 -116.5t-106 -75t-151.5 -26t-151.5 26.5t-106 75t-62 116.5t-20.5 151q0 111 36.5 193t112 127.5t192.5 45.5q116 0 191 -45.5t111.5 -128t36.5 -193.5zM217 358q0 -75 19 -129t59 -83t103 -29q65 0 104.5 29t58 83t18.5 129
q0 113 -42 177t-138 64q-64 0 -104 -29t-59 -83t-19 -129zM563 877v-103h-331v103h331z" />
    <glyph glyph-name="omacron" unicode="&#x14d;" horiz-adv-x="619" 
d="M574 274q0 -68 -18.5 -121t-53 -89.5t-83.5 -55t-111 -18.5q-57 0 -105.5 18.5t-83.5 55t-54.5 89.5t-19.5 121q0 91 32 153.5t92 95.5t142 33q77 0 136 -33t93 -95.5t34 -153.5zM197 274q0 -54 11.5 -90.5t36.5 -55t65 -18.5t64.5 18.5t36 55t11.5 90.5t-11.5 90
t-36.5 54t-65 18q-59 0 -85.5 -40.5t-26.5 -121.5zM475 709v-103h-331v103h331z" />
    <glyph glyph-name="Ohungarumlaut" unicode="&#x150;" horiz-adv-x="796" 
d="M738 358q0 -83 -20.5 -150.5t-62 -116.5t-106 -75t-151.5 -26t-151.5 26.5t-106 75t-62 116.5t-20.5 151q0 111 36.5 193t112 127.5t192.5 45.5q116 0 191 -45.5t111.5 -128t36.5 -193.5zM217 358q0 -75 19 -129t59 -83t103 -29q65 0 104.5 29t58 83t18.5 129
q0 113 -42 177t-138 64q-64 0 -104 -29t-59 -83t-19 -129zM616 924q-8 -13 -27 -33t-44 -42t-49.5 -41.5t-42.5 -33.5h-79v13q14 19 32 45t35 53t28 49h147v-10zM422 924q-8 -13 -27 -33t-44 -42t-49.5 -41.5t-42.5 -33.5h-79v13q14 19 31.5 45t34.5 53t29 49h147v-10z" />
    <glyph glyph-name="ohungarumlaut" unicode="&#x151;" horiz-adv-x="619" 
d="M574 274q0 -68 -18.5 -121t-53 -89.5t-83.5 -55t-111 -18.5q-57 0 -105.5 18.5t-83.5 55t-54.5 89.5t-19.5 121q0 91 32 153.5t92 95.5t142 33q77 0 136 -33t93 -95.5t34 -153.5zM197 274q0 -54 11.5 -90.5t36.5 -55t65 -18.5t64.5 18.5t36 55t11.5 90.5t-11.5 90
t-36.5 54t-65 18q-59 0 -85.5 -40.5t-26.5 -121.5zM528 756q-8 -13 -27 -33t-44 -42t-49.5 -41.5t-42.5 -33.5h-79v13q14 19 32 45t35 53t28 49h147v-10zM334 756q-8 -13 -27 -33t-44 -42t-49.5 -41.5t-42.5 -33.5h-79v13q14 19 31.5 45t34.5 53t29 49h147v-10z" />
    <glyph glyph-name="OE" unicode="&#x152;" horiz-adv-x="973" 
d="M379 725q26 0 57.5 -3t53.5 -8h424v-124h-275v-157h257v-124h-257v-184h275v-125h-426q-22 -4 -53 -7t-57 -3q-109 0 -180 46t-105.5 129t-34.5 194t34.5 193t105.5 127.5t181 45.5zM379 599q-43 0 -74 -16.5t-51 -48t-30 -76t-10 -100.5q0 -75 17.5 -129t54 -83
t92.5 -29q29 0 60 5t50 14v443q-18 10 -49 15t-60 5z" />
    <glyph glyph-name="oe" unicode="&#x153;" horiz-adv-x="978" 
d="M683 556q78 0 134.5 -29t87 -84t30.5 -135v-72h-364q3 -64 40 -99.5t101 -35.5q55 0 100 10.5t92 32.5v-115q-42 -20 -87.5 -29.5t-110.5 -9.5q-62 0 -114.5 18.5t-90.5 57.5q-34 -38 -83 -57t-108 -19q-78 0 -137.5 33t-93.5 96.5t-34 154.5t31 153.5t90.5 95.5
t142.5 33q55 0 104 -19t83 -57q24 26 52.5 42.5t62.5 25t72 8.5zM309 436q-59 0 -85.5 -40.5t-26.5 -121.5q0 -54 11.5 -90.5t36.5 -55t65 -18.5t64.5 18.5t36 55t11.5 90.5t-11.5 90t-36.5 54t-65 18zM686 450q-46 0 -76 -28t-35 -87h220q0 33 -12.5 59t-36 41t-60.5 15z
" />
    <glyph glyph-name="Racute" unicode="&#x154;" horiz-adv-x="660" 
d="M298 714q97 0 160 -23.5t94 -71t31 -119.5q0 -49 -18.5 -85.5t-49 -62t-65.5 -41.5l210 -311h-168l-170 274h-81v-274h-151v714h208zM287 590h-46v-193h49q75 0 107.5 25t32.5 74q0 34 -15.5 54.5t-47 30t-80.5 9.5zM549 924q-14 -14 -37 -34t-49.5 -42t-52 -41.5
t-44.5 -32.5h-99v13q16 19 37.5 44.5t42.5 53t35 49.5h167v-10z" />
    <glyph glyph-name="racute" unicode="&#x155;" horiz-adv-x="454" 
d="M383 556q11 0 26 -1t24 -3l-11 -140q-7 2 -20.5 3.5t-23.5 1.5q-29 0 -56 -7.5t-48.5 -23.5t-34 -42.5t-12.5 -65.5v-278h-149v546h113l22 -92h7q16 28 40 51t55.5 37t67.5 14zM465 756q-14 -14 -37 -34t-49.5 -42t-52 -41.5t-44.5 -32.5h-99v13q16 19 37.5 44.5t42.5 53
t35 49.5h167v-10z" />
    <glyph glyph-name="uni0156" unicode="&#x156;" horiz-adv-x="660" 
d="M298 714q97 0 160 -23.5t94 -71t31 -119.5q0 -49 -18.5 -85.5t-49 -62t-65.5 -41.5l210 -311h-168l-170 274h-81v-274h-151v714h208zM287 590h-46v-193h49q75 0 107.5 25t32.5 74q0 34 -15.5 54.5t-47 30t-80.5 9.5zM442 -71q-10 -22 -22.5 -46.5t-27 -50.5t-31.5 -53
h-87v13q6 20 12 46t11 53t7 48h138v-10z" />
    <glyph glyph-name="uni0157" unicode="&#x157;" horiz-adv-x="454" 
d="M383 556q11 0 26 -1t24 -3l-11 -140q-7 2 -20.5 3.5t-23.5 1.5q-29 0 -56 -7.5t-48.5 -23.5t-34 -42.5t-12.5 -65.5v-278h-149v546h113l22 -92h7q16 28 40 51t55.5 37t67.5 14zM240 -71q-10 -22 -22.5 -46.5t-27 -50.5t-31.5 -53h-87v13q6 20 12 46t11 53t7 48h138v-10z
" />
    <glyph glyph-name="Rcaron" unicode="&#x158;" horiz-adv-x="660" 
d="M298 714q97 0 160 -23.5t94 -71t31 -119.5q0 -49 -18.5 -85.5t-49 -62t-65.5 -41.5l210 -311h-168l-170 274h-81v-274h-151v714h208zM287 590h-46v-193h49q75 0 107.5 25t32.5 74q0 34 -15.5 54.5t-47 30t-80.5 9.5zM251 774q-14 23 -36.5 50t-46 53t-42.5 44v13h99
q26 -16 56 -37.5t56 -48.5q26 27 57 48.5t57 37.5h99v-13q-18 -18 -42 -44t-46.5 -53t-36.5 -50h-174z" />
    <glyph glyph-name="rcaron" unicode="&#x159;" horiz-adv-x="454" 
d="M383 556q11 0 26 -1t24 -3l-11 -140q-7 2 -20.5 3.5t-23.5 1.5q-29 0 -56 -7.5t-48.5 -23.5t-34 -42.5t-12.5 -65.5v-278h-149v546h113l22 -92h7q16 28 40 51t55.5 37t67.5 14zM167 606q-14 23 -36.5 50t-46 53t-42.5 44v13h99q26 -16 56 -37.5t56 -48.5q26 27 57 48.5
t57 37.5h99v-13q-18 -18 -42 -44t-46.5 -53t-36.5 -50h-174z" />
    <glyph glyph-name="Sacute" unicode="&#x15a;" horiz-adv-x="551" 
d="M511 198q0 -63 -31 -110t-89.5 -72.5t-142.5 -25.5q-37 0 -72.5 5t-68 14.5t-61.5 23.5v141q51 -22 105.5 -40.5t108.5 -18.5q37 0 59.5 10t33 27t10.5 39q0 27 -18.5 46t-49.5 35.5t-71 35.5q-25 12 -54 28.5t-55.5 41t-43.5 59.5t-17 84q0 64 29.5 109.5t84 69.5
t128.5 24q56 0 106.5 -13t105.5 -37l-49 -118q-49 20 -88 31t-80 11q-28 0 -48 -9t-30.5 -25t-10.5 -38q0 -25 15 -42.5t45 -33.5t75 -38q55 -26 93.5 -54t59.5 -66t21 -94zM495 924q-14 -14 -37 -34t-49.5 -42t-52 -41.5t-44.5 -32.5h-99v13q16 19 37.5 44.5t42.5 53
t35 49.5h167v-10z" />
    <glyph glyph-name="sacute" unicode="&#x15b;" horiz-adv-x="497" 
d="M459 162q0 -55 -26 -93.5t-78 -58.5t-129 -20q-57 0 -98 7.5t-82 24.5v123q44 -20 95 -33t90 -13q44 0 62.5 13t18.5 34q0 14 -7.5 25t-32.5 25t-78 36q-51 22 -84 43.5t-49 52t-16 76.5q0 76 59 114t157 38q51 0 97 -10t95 -33l-45 -107q-40 17 -76 28.5t-73 11.5
q-33 0 -49.5 -9t-16.5 -27q0 -13 8.5 -23.5t33 -22.5t72.5 -32q47 -19 81 -39.5t52.5 -51t18.5 -79.5zM460 756q-14 -14 -37 -34t-49.5 -42t-52 -41.5t-44.5 -32.5h-99v13q16 19 37.5 44.5t42.5 53t35 49.5h167v-10z" />
    <glyph glyph-name="Scedilla" unicode="&#x15e;" horiz-adv-x="551" 
d="M511 198q0 -63 -31 -110t-89.5 -72.5t-142.5 -25.5q-37 0 -72.5 5t-68 14.5t-61.5 23.5v141q51 -22 105.5 -40.5t108.5 -18.5q37 0 59.5 10t33 27t10.5 39q0 27 -18.5 46t-49.5 35.5t-71 35.5q-25 12 -54 28.5t-55.5 41t-43.5 59.5t-17 84q0 64 29.5 109.5t84 69.5
t128.5 24q56 0 106.5 -13t105.5 -37l-49 -118q-49 20 -88 31t-80 11q-28 0 -48 -9t-30.5 -25t-10.5 -38q0 -25 15 -42.5t45 -33.5t75 -38q55 -26 93.5 -54t59.5 -66t21 -94zM379 -122q0 -56 -32.5 -87t-118.5 -31q-22 0 -39.5 3t-31.5 7v82q14 -4 34.5 -7t35.5 -3
q14 0 24.5 6.5t10.5 23.5q0 18 -18 32t-63 21l38 75h94l-13 -30q20 -6 38 -18.5t29.5 -30.5t11.5 -43z" />
    <glyph glyph-name="scedilla" unicode="&#x15f;" horiz-adv-x="497" 
d="M459 162q0 -55 -26 -93.5t-78 -58.5t-129 -20q-57 0 -98 7.5t-82 24.5v123q44 -20 95 -33t90 -13q44 0 62.5 13t18.5 34q0 14 -7.5 25t-32.5 25t-78 36q-51 22 -84 43.5t-49 52t-16 76.5q0 76 59 114t157 38q51 0 97 -10t95 -33l-45 -107q-40 17 -76 28.5t-73 11.5
q-33 0 -49.5 -9t-16.5 -27q0 -13 8.5 -23.5t33 -22.5t72.5 -32q47 -19 81 -39.5t52.5 -51t18.5 -79.5zM360 -122q0 -56 -32.5 -87t-118.5 -31q-22 0 -39.5 3t-31.5 7v82q14 -4 34.5 -7t35.5 -3q14 0 24.5 6.5t10.5 23.5q0 18 -18 32t-63 21l38 75h94l-13 -30q20 -6 38 -18.5
t29.5 -30.5t11.5 -43z" />
    <glyph glyph-name="Scaron" unicode="&#x160;" horiz-adv-x="551" 
d="M511 198q0 -63 -31 -110t-89.5 -72.5t-142.5 -25.5q-37 0 -72.5 5t-68 14.5t-61.5 23.5v141q51 -22 105.5 -40.5t108.5 -18.5q37 0 59.5 10t33 27t10.5 39q0 27 -18.5 46t-49.5 35.5t-71 35.5q-25 12 -54 28.5t-55.5 41t-43.5 59.5t-17 84q0 64 29.5 109.5t84 69.5
t128.5 24q56 0 106.5 -13t105.5 -37l-49 -118q-49 20 -88 31t-80 11q-28 0 -48 -9t-30.5 -25t-10.5 -38q0 -25 15 -42.5t45 -33.5t75 -38q55 -26 93.5 -54t59.5 -66t21 -94zM197 774q-14 23 -36.5 50t-46 53t-42.5 44v13h99q26 -16 56 -37.5t56 -48.5q26 27 57 48.5t57 37.5
h99v-13q-18 -18 -42 -44t-46.5 -53t-36.5 -50h-174z" />
    <glyph glyph-name="scaron" unicode="&#x161;" horiz-adv-x="497" 
d="M459 162q0 -55 -26 -93.5t-78 -58.5t-129 -20q-57 0 -98 7.5t-82 24.5v123q44 -20 95 -33t90 -13q44 0 62.5 13t18.5 34q0 14 -7.5 25t-32.5 25t-78 36q-51 22 -84 43.5t-49 52t-16 76.5q0 76 59 114t157 38q51 0 97 -10t95 -33l-45 -107q-40 17 -76 28.5t-73 11.5
q-33 0 -49.5 -9t-16.5 -27q0 -13 8.5 -23.5t33 -22.5t72.5 -32q47 -19 81 -39.5t52.5 -51t18.5 -79.5zM162 606q-14 23 -36.5 50t-46 53t-42.5 44v13h99q26 -16 56 -37.5t56 -48.5q26 27 57 48.5t57 37.5h99v-13q-18 -18 -42 -44t-46.5 -53t-36.5 -50h-174z" />
    <glyph glyph-name="Tcaron" unicode="&#x164;" horiz-adv-x="579" 
d="M365 0h-151v588h-194v126h539v-126h-194v-588zM203 774q-14 23 -36.5 50t-46 53t-42.5 44v13h99q26 -16 56 -37.5t56 -48.5q26 27 57 48.5t57 37.5h99v-13q-18 -18 -42 -44t-46.5 -53t-36.5 -50h-174z" />
    <glyph glyph-name="tcaron" unicode="&#x165;" horiz-adv-x="434" 
d="M308 109q25 0 48 5t46 12v-111q-24 -10 -59.5 -17.5t-77.5 -7.5q-49 0 -87.5 16t-61 55.5t-22.5 109.5v263h-71v63l82 50l43 115h95v-116h153v-112h-153v-263q0 -31 18 -46.5t47 -15.5zM570 750q-10 -22 -22.5 -46.5t-27 -50.5t-31.5 -53h-87v13q4 15 8.5 33.5t8.5 38.5
t7.5 39.5t5.5 35.5h138v-10z" />
    <glyph glyph-name="Umacron" unicode="&#x16a;" horiz-adv-x="756" 
d="M671 252q0 -74 -32.5 -133.5t-98 -94t-165.5 -34.5q-142 0 -216 72.5t-74 191.5v460h151v-437q0 -88 36 -124t107 -36q50 0 81 17t45.5 53t14.5 91v436h151v-462zM543 877v-103h-331v103h331z" />
    <glyph glyph-name="umacron" unicode="&#x16b;" horiz-adv-x="657" 
d="M579 546v-546h-114l-20 70h-8q-17 -28 -43.5 -45.5t-58.5 -26t-66 -8.5q-58 0 -102 21t-68 65t-24 114v356h149v-319q0 -58 21 -88t67 -30t71.5 21t36 61t10.5 98v257h149zM494 709v-103h-331v103h331z" />
    <glyph glyph-name="Ubreve" unicode="&#x16c;" horiz-adv-x="756" 
d="M671 252q0 -74 -32.5 -133.5t-98 -94t-165.5 -34.5q-142 0 -216 72.5t-74 191.5v460h151v-437q0 -88 36 -124t107 -36q50 0 81 17t45.5 53t14.5 91v436h151v-462zM570 939q-3 -48 -28.5 -85.5t-67.5 -58.5t-98 -21q-86 0 -136 45t-54 120h83q3 -28 17.5 -41t38.5 -16.5
t52 -3.5q24 0 47.5 4.5t40.5 17.5t20 39h85z" />
    <glyph glyph-name="ubreve" unicode="&#x16d;" horiz-adv-x="657" 
d="M579 546v-546h-114l-20 70h-8q-17 -28 -43.5 -45.5t-58.5 -26t-66 -8.5q-58 0 -102 21t-68 65t-24 114v356h149v-319q0 -58 21 -88t67 -30t71.5 21t36 61t10.5 98v257h149zM521 771q-3 -48 -28.5 -85.5t-67.5 -58.5t-98 -21q-86 0 -136 45t-54 120h83q3 -28 17.5 -41
t38.5 -16.5t52 -3.5q24 0 47.5 4.5t40.5 17.5t20 39h85z" />
    <glyph glyph-name="Uring" unicode="&#x16e;" horiz-adv-x="756" 
d="M671 252q0 -74 -32.5 -133.5t-98 -94t-165.5 -34.5q-142 0 -216 72.5t-74 191.5v460h151v-437q0 -88 36 -124t107 -36q50 0 81 17t45.5 53t14.5 91v436h151v-462zM376 773q-54 0 -87.5 31t-33.5 85t33.5 85t87.5 31q52 0 88 -31t36 -84q0 -55 -35.5 -86t-88.5 -31z
M376 842q20 0 33.5 12.5t13.5 34.5t-13.5 34.5t-33.5 12.5t-33.5 -12.5t-13.5 -34.5t12 -34.5t35 -12.5z" />
    <glyph glyph-name="uring" unicode="&#x16f;" horiz-adv-x="657" 
d="M579 546v-546h-114l-20 70h-8q-17 -28 -43.5 -45.5t-58.5 -26t-66 -8.5q-58 0 -102 21t-68 65t-24 114v356h149v-319q0 -58 21 -88t67 -30t71.5 21t36 61t10.5 98v257h149zM327 605q-54 0 -87.5 31t-33.5 85t33.5 85t87.5 31q52 0 88 -31t36 -84q0 -55 -35.5 -86
t-88.5 -31zM327 674q20 0 33.5 12.5t13.5 34.5t-13.5 34.5t-33.5 12.5t-33.5 -12.5t-13.5 -34.5t12 -34.5t35 -12.5z" />
    <glyph glyph-name="Uhungarumlaut" unicode="&#x170;" horiz-adv-x="756" 
d="M671 252q0 -74 -32.5 -133.5t-98 -94t-165.5 -34.5q-142 0 -216 72.5t-74 191.5v460h151v-437q0 -88 36 -124t107 -36q50 0 81 17t45.5 53t14.5 91v436h151v-462zM596 924q-8 -13 -27 -33t-44 -42t-49.5 -41.5t-42.5 -33.5h-79v13q14 19 32 45t35 53t28 49h147v-10z
M402 924q-8 -13 -27 -33t-44 -42t-49.5 -41.5t-42.5 -33.5h-79v13q14 19 31.5 45t34.5 53t29 49h147v-10z" />
    <glyph glyph-name="uhungarumlaut" unicode="&#x171;" horiz-adv-x="657" 
d="M579 546v-546h-114l-20 70h-8q-17 -28 -43.5 -45.5t-58.5 -26t-66 -8.5q-58 0 -102 21t-68 65t-24 114v356h149v-319q0 -58 21 -88t67 -30t71.5 21t36 61t10.5 98v257h149zM547 756q-8 -13 -27 -33t-44 -42t-49.5 -41.5t-42.5 -33.5h-79v13q14 19 32 45t35 53t28 49h147
v-10zM353 756q-8 -13 -27 -33t-44 -42t-49.5 -41.5t-42.5 -33.5h-79v13q14 19 31.5 45t34.5 53t29 49h147v-10z" />
    <glyph glyph-name="Uogonek" unicode="&#x172;" horiz-adv-x="756" 
d="M485 -100q0 -25 12 -38t29 -13q16 0 30 3t24 6v-87q-16 -4 -34 -7.5t-42 -3.5q-56 0 -89 32t-33 87q0 34 15 65t40 56.5t55 42.5l94 14q-35 -32 -57.5 -60t-33 -51.5t-10.5 -45.5zM671 252q0 -74 -32.5 -133.5t-98 -94t-165.5 -34.5q-142 0 -216 72.5t-74 191.5v460h151
v-437q0 -88 36 -124t107 -36q50 0 81 17t45.5 53t14.5 91v436h151v-462z" />
    <glyph glyph-name="uogonek" unicode="&#x173;" horiz-adv-x="657" 
d="M579 546v-546h-114l-20 70h-8q-17 -28 -43.5 -45.5t-58.5 -26t-66 -8.5q-58 0 -102 21t-68 65t-24 114v356h149v-319q0 -58 21 -88t67 -30t71.5 21t36 61t10.5 98v257h149zM475 -111q0 -20 11 -30t28 -10q16 0 31 3t25 6v-87q-16 -4 -34 -7.5t-42 -3.5q-56 0 -89 31.5
t-33 80.5q0 29 15 56t39.5 49.5t55.5 39.5l65 -17q-34 -32 -53 -58.5t-19 -52.5z" />
    <glyph glyph-name="Wcircumflex" unicode="&#x174;" horiz-adv-x="967" 
d="M967 714l-182 -714h-172l-97 375q-3 11 -7.5 33t-10 48t-9.5 49.5t-6 36.5q-1 -13 -5.5 -36.5t-9.5 -49t-10 -48t-8 -34.5l-96 -374h-172l-182 714h149l91 -390q4 -17 9 -41.5t10 -51t9.5 -51.5t6.5 -43q2 19 6 43.5t9 50t9.5 48t8.5 35.5l104 400h143l104 -400
q3 -13 8 -35.5t10 -48.5t9 -50.5t6 -42.5q3 25 9 59.5t13.5 69.5t12.5 58l91 390h149zM571 934q14 -22 36.5 -49.5t46.5 -53.5t42 -44v-13h-99q-26 16 -57 37.5t-57 48.5q-26 -27 -56 -48t-56 -38h-99v13q19 19 42.5 44.5t46 53t36.5 49.5h174z" />
    <glyph glyph-name="wcircumflex" unicode="&#x175;" horiz-adv-x="856" 
d="M485 191q-4 17 -11.5 50.5t-16.5 72t-17 71t-11 47.5h-4q-3 -15 -10.5 -47.5t-16.5 -71t-17 -72.5t-12 -52l-44 -189h-160l-155 546h148l63 -242q7 -25 12.5 -60t10.5 -67.5t7 -51.5h4q1 14 4 37.5t7.5 48.5t8 45.5t5.5 27.5l67 262h164l64 -262q4 -14 9.5 -45t10 -63
t4.5 -51h4q2 17 7 49.5t11.5 68.5t13.5 61l65 242h146l-157 -546h-162zM515 766q14 -22 36.5 -49.5t46.5 -53.5t42 -44v-13h-99q-26 16 -57 37.5t-57 48.5q-26 -27 -56 -48t-56 -38h-99v13q19 19 42.5 44.5t46 53t36.5 49.5h174z" />
    <glyph glyph-name="Ycircumflex" unicode="&#x176;" horiz-adv-x="624" 
d="M312 420l149 294h163l-237 -436v-278h-150v273l-237 441h164zM399 934q14 -22 36.5 -49.5t46.5 -53.5t42 -44v-13h-99q-26 16 -57 37.5t-57 48.5q-26 -27 -56 -48t-56 -38h-99v13q19 19 42.5 44.5t46 53t36.5 49.5h174z" />
    <glyph glyph-name="ycircumflex" unicode="&#x177;" horiz-adv-x="569" 
d="M0 546h163l103 -307q5 -15 8.5 -30t6 -31t3.5 -34h3q3 26 8.5 49.5t12.5 45.5l101 307h160l-231 -616q-21 -56 -54.5 -94t-77.5 -57t-96 -19q-25 0 -43.5 2.5t-32.5 5.5v118q11 -2 26.5 -4t32.5 -2q31 0 53.5 13t37.5 35.5t24 48.5l9 27zM372 766q14 -22 36.5 -49.5
t46.5 -53.5t42 -44v-13h-99q-26 16 -57 37.5t-57 48.5q-26 -27 -56 -48t-56 -38h-99v13q19 19 42.5 44.5t46 53t36.5 49.5h174z" />
    <glyph glyph-name="Ydieresis" unicode="&#x178;" horiz-adv-x="624" 
d="M312 420l149 294h163l-237 -436v-278h-150v273l-237 441h164zM144 854q0 35 20 50.5t48 15.5t48.5 -15.5t20.5 -50.5q0 -33 -20.5 -49t-48.5 -16t-48 16.5t-20 48.5zM341 854q0 35 20 50.5t49 15.5q28 0 48.5 -15.5t20.5 -50.5q0 -33 -20.5 -49t-48.5 -16t-48.5 16.5
t-20.5 48.5z" />
    <glyph glyph-name="Zacute" unicode="&#x179;" horiz-adv-x="579" 
d="M555 0h-531v98l342 491h-333v125h513v-98l-342 -491h351v-125zM506 924q-14 -14 -37 -34t-49.5 -42t-52 -41.5t-44.5 -32.5h-99v13q16 19 37.5 44.5t42.5 53t35 49.5h167v-10z" />
    <glyph glyph-name="zacute" unicode="&#x17a;" horiz-adv-x="488" 
d="M458 0h-431v88l253 344h-238v114h407v-97l-246 -335h255v-114zM455 756q-14 -14 -37 -34t-49.5 -42t-52 -41.5t-44.5 -32.5h-99v13q16 19 37.5 44.5t42.5 53t35 49.5h167v-10z" />
    <glyph glyph-name="Zdotaccent" unicode="&#x17b;" horiz-adv-x="579" 
d="M555 0h-531v98l342 491h-333v125h513v-98l-342 -491h351v-125zM295 928q33 0 57 -15.5t24 -57.5q0 -41 -24 -57t-57 -16q-34 0 -57.5 16t-23.5 57q0 42 23.5 57.5t57.5 15.5z" />
    <glyph glyph-name="zdotaccent" unicode="&#x17c;" horiz-adv-x="488" 
d="M458 0h-431v88l253 344h-238v114h407v-97l-246 -335h255v-114zM244 760q33 0 57 -15.5t24 -57.5q0 -41 -24 -57t-57 -16q-34 0 -57.5 16t-23.5 57q0 42 23.5 57.5t57.5 15.5z" />
    <glyph glyph-name="Zcaron" unicode="&#x17d;" horiz-adv-x="579" 
d="M555 0h-531v98l342 491h-333v125h513v-98l-342 -491h351v-125zM208 774q-14 23 -36.5 50t-46 53t-42.5 44v13h99q26 -16 56 -37.5t56 -48.5q26 27 57 48.5t57 37.5h99v-13q-18 -18 -42 -44t-46.5 -53t-36.5 -50h-174z" />
    <glyph glyph-name="zcaron" unicode="&#x17e;" horiz-adv-x="488" 
d="M458 0h-431v88l253 344h-238v114h407v-97l-246 -335h255v-114zM157 606q-14 23 -36.5 50t-46 53t-42.5 44v13h99q26 -16 56 -37.5t56 -48.5q26 27 57 48.5t57 37.5h99v-13q-18 -18 -42 -44t-46.5 -53t-36.5 -50h-174z" />
    <glyph glyph-name="uni0218" unicode="&#x218;" horiz-adv-x="551" 
d="M511 198q0 -63 -31 -110t-89.5 -72.5t-142.5 -25.5q-37 0 -72.5 5t-68 14.5t-61.5 23.5v141q51 -22 105.5 -40.5t108.5 -18.5q37 0 59.5 10t33 27t10.5 39q0 27 -18.5 46t-49.5 35.5t-71 35.5q-25 12 -54 28.5t-55.5 41t-43.5 59.5t-17 84q0 64 29.5 109.5t84 69.5
t128.5 24q56 0 106.5 -13t105.5 -37l-49 -118q-49 20 -88 31t-80 11q-28 0 -48 -9t-30.5 -25t-10.5 -38q0 -25 15 -42.5t45 -33.5t75 -38q55 -26 93.5 -54t59.5 -66t21 -94zM352 -71q-10 -22 -22.5 -46.5t-27 -50.5t-31.5 -53h-87v13q6 20 12 46t11 53t7 48h138v-10z" />
    <glyph glyph-name="uni0219" unicode="&#x219;" horiz-adv-x="497" 
d="M459 162q0 -55 -26 -93.5t-78 -58.5t-129 -20q-57 0 -98 7.5t-82 24.5v123q44 -20 95 -33t90 -13q44 0 62.5 13t18.5 34q0 14 -7.5 25t-32.5 25t-78 36q-51 22 -84 43.5t-49 52t-16 76.5q0 76 59 114t157 38q51 0 97 -10t95 -33l-45 -107q-40 17 -76 28.5t-73 11.5
q-33 0 -49.5 -9t-16.5 -27q0 -13 8.5 -23.5t33 -22.5t72.5 -32q47 -19 81 -39.5t52.5 -51t18.5 -79.5zM333 -71q-10 -22 -22.5 -46.5t-27 -50.5t-31.5 -53h-87v13q6 20 12 46t11 53t7 48h138v-10z" />
    <glyph glyph-name="uni021A" unicode="&#x21a;" horiz-adv-x="579" 
d="M365 0h-151v588h-194v126h539v-126h-194v-588zM374 -71q-10 -22 -22.5 -46.5t-27 -50.5t-31.5 -53h-87v13q6 20 12 46t11 53t7 48h138v-10z" />
    <glyph glyph-name="uni021B" unicode="&#x21b;" horiz-adv-x="434" 
d="M308 109q25 0 48 5t46 12v-111q-24 -10 -59.5 -17.5t-77.5 -7.5q-49 0 -87.5 16t-61 55.5t-22.5 109.5v263h-71v63l82 50l43 115h95v-116h153v-112h-153v-263q0 -31 18 -46.5t47 -15.5zM325 -71q-10 -22 -22.5 -46.5t-27 -50.5t-31.5 -53h-87v13q6 20 12 46t11 53t7 48
h138v-10z" />
    <glyph glyph-name="uni0237" unicode="&#x237;" horiz-adv-x="305" 
d="M34 -240q-25 0 -52.5 3.5t-45.5 8.5v117q18 -4 34 -6.5t36 -2.5q30 0 51 17t21 66v583h149v-605q0 -50 -19 -91t-61.5 -65.5t-112.5 -24.5z" />
    <glyph glyph-name="circumflex" unicode="&#x2c6;" horiz-adv-x="504" 
d="M339 766q14 -22 36.5 -49.5t46.5 -53.5t42 -44v-13h-99q-26 16 -57 37.5t-57 48.5q-26 -27 -56 -48t-56 -38h-99v13q19 19 42.5 44.5t46 53t36.5 49.5h174z" />
    <glyph glyph-name="caron" unicode="&#x2c7;" horiz-adv-x="504" 
d="M165 606q-14 23 -36.5 50t-46 53t-42.5 44v13h99q26 -16 56 -37.5t56 -48.5q26 27 57 48.5t57 37.5h99v-13q-18 -18 -42 -44t-46.5 -53t-36.5 -50h-174z" />
    <glyph glyph-name="macronmod" unicode="&#x2c9;" horiz-adv-x="411" 
d="M371 709v-103h-331v103h331z" />
    <glyph glyph-name="breve" unicode="&#x2d8;" horiz-adv-x="464" 
d="M424 771q-3 -48 -28.5 -85.5t-67.5 -58.5t-98 -21q-86 0 -136 45t-54 120h83q3 -28 17.5 -41t38.5 -16.5t52 -3.5q24 0 47.5 4.5t40.5 17.5t20 39h85z" />
    <glyph glyph-name="dotaccent" unicode="&#x2d9;" horiz-adv-x="242" 
d="M121 760q33 0 57 -15.5t24 -57.5q0 -41 -24 -57t-57 -16q-34 0 -57.5 16t-23.5 57q0 42 23.5 57.5t57.5 15.5z" />
    <glyph glyph-name="ring" unicode="&#x2da;" horiz-adv-x="325" 
d="M161 605q-54 0 -87.5 31t-33.5 85t33.5 85t87.5 31q52 0 88 -31t36 -84q0 -55 -35.5 -86t-88.5 -31zM161 674q20 0 33.5 12.5t13.5 34.5t-13.5 34.5t-33.5 12.5t-33.5 -12.5t-13.5 -34.5t12 -34.5t35 -12.5z" />
    <glyph glyph-name="ogonek" unicode="&#x2db;" horiz-adv-x="278" 
d="M143 -111q0 -20 11 -30t28 -10q16 0 31 3t25 6v-87q-16 -4 -34 -7.5t-42 -3.5q-56 0 -89 31.5t-33 80.5q0 29 15 56t39.5 49.5t55.5 39.5l65 -17q-34 -32 -53 -58.5t-19 -52.5z" />
    <glyph glyph-name="tilde" unicode="&#x2dc;" horiz-adv-x="485" 
d="M40 605q3 39 14.5 67.5t29.5 47t40.5 27.5t48.5 9q20 0 39.5 -7.5t38 -18t36.5 -18t36 -7.5q15 0 29 13t20 39h73q-6 -77 -44 -114t-89 -37q-20 0 -39 7.5t-38 18t-37 18t-36 7.5q-15 0 -29 -13t-20 -39h-73z" />
    <glyph glyph-name="hungarumlaut" unicode="&#x2dd;" horiz-adv-x="516" 
d="M476 756q-8 -13 -27 -33t-44 -42t-49.5 -41.5t-42.5 -33.5h-79v13q14 19 32 45t35 53t28 49h147v-10zM282 756q-8 -13 -27 -33t-44 -42t-49.5 -41.5t-42.5 -33.5h-79v13q14 19 31.5 45t34.5 53t29 49h147v-10z" />
    <glyph glyph-name="gravecomb" unicode="&#x300;" 
d="M-363 766q15 -22 35.5 -49.5t42 -53t37.5 -44.5v-13h-99q-19 13 -44.5 32.5t-52 41.5t-49.5 42t-37 34v10h167z" />
    <glyph glyph-name="acutecomb" unicode="&#x301;" 
d="M-47 756q-14 -14 -37 -34t-49.5 -42t-52 -41.5t-44.5 -32.5h-99v13q16 19 37.5 44.5t42.5 53t35 49.5h167v-10z" />
    <glyph glyph-name="uni0302" unicode="&#x302;" 
d="M88 766q14 -22 36.5 -49.5t46.5 -53.5t42 -44v-13h-99q-26 16 -57 37.5t-57 48.5q-26 -27 -56 -48t-56 -38h-99v13q19 19 42.5 44.5t46 53t36.5 49.5h174z" />
    <glyph glyph-name="tildecomb" unicode="&#x303;" 
d="M-516 605q3 39 14.5 67.5t29.5 47t40.5 27.5t48.5 9q20 0 39.5 -7.5t38 -18t36.5 -18t36 -7.5q15 0 29 13t20 39h73q-6 -77 -44 -114t-89 -37q-20 0 -39 7.5t-38 18t-37 18t-36 7.5q-15 0 -29 -13t-20 -39h-73z" />
    <glyph glyph-name="uni0304" unicode="&#x304;" 
d="M166 709v-103h-331v103h331z" />
    <glyph glyph-name="uni0306" unicode="&#x306;" 
d="M195 771q-3 -48 -28.5 -85.5t-67.5 -58.5t-98 -21q-86 0 -136 45t-54 120h83q3 -28 17.5 -41t38.5 -16.5t52 -3.5q24 0 47.5 4.5t40.5 17.5t20 39h85z" />
    <glyph glyph-name="uni0307" unicode="&#x307;" 
d="M0 760q33 0 57 -15.5t24 -57.5q0 -41 -24 -57t-57 -16q-34 0 -57.5 16t-23.5 57q0 42 23.5 57.5t57.5 15.5z" />
    <glyph glyph-name="uni0308" unicode="&#x308;" 
d="M-167 686q0 35 20 50.5t48 15.5t48.5 -15.5t20.5 -50.5q0 -33 -20.5 -49t-48.5 -16t-48 16.5t-20 48.5zM30 686q0 35 20 50.5t49 15.5q28 0 48.5 -15.5t20.5 -50.5q0 -33 -20.5 -49t-48.5 -16t-48.5 16.5t-20.5 48.5z" />
    <glyph glyph-name="uni030A" unicode="&#x30a;" 
d="M2 605q-54 0 -87.5 31t-33.5 85t33.5 85t87.5 31q52 0 88 -31t36 -84q0 -55 -35.5 -86t-88.5 -31zM2 674q20 0 33.5 12.5t13.5 34.5t-13.5 34.5t-33.5 12.5t-33.5 -12.5t-13.5 -34.5t12 -34.5t35 -12.5z" />
    <glyph glyph-name="uni030B" unicode="&#x30b;" 
d="M285 756q-8 -13 -27 -33t-44 -42t-49.5 -41.5t-42.5 -33.5h-79v13q14 19 32 45t35 53t28 49h147v-10zM91 756q-8 -13 -27 -33t-44 -42t-49.5 -41.5t-42.5 -33.5h-79v13q14 19 31.5 45t34.5 53t29 49h147v-10z" />
    <glyph glyph-name="uni030C" unicode="&#x30c;" 
d="M-85 606q-14 23 -36.5 50t-46 53t-42.5 44v13h99q26 -16 56 -37.5t56 -48.5q26 27 57 48.5t57 37.5h99v-13q-18 -18 -42 -44t-46.5 -53t-36.5 -50h-174z" />
    <glyph glyph-name="uni0312" unicode="&#x312;" 
d="M-96 480q9 36 23 76t30.5 81t32.5 77h107q-9 -39 -18.5 -83t-17.5 -85.5t-13 -76.5h-137z" />
    <glyph glyph-name="uni0326" unicode="&#x326;" 
d="M84 -71q-10 -22 -22.5 -46.5t-27 -50.5t-31.5 -53h-87v13q6 20 12 46t11 53t7 48h138v-10z" />
    <glyph glyph-name="uni0327" unicode="&#x327;" 
d="M111 -122q0 -56 -32.5 -87t-118.5 -31q-22 0 -39.5 3t-31.5 7v82q14 -4 34.5 -7t35.5 -3q14 0 24.5 6.5t10.5 23.5q0 18 -18 32t-63 21l38 75h94l-13 -30q20 -6 38 -18.5t29.5 -30.5t11.5 -43z" />
    <glyph glyph-name="uni0328" unicode="&#x328;" 
d="M4 -111q0 -20 11 -30t28 -10q16 0 31 3t25 6v-87q-16 -4 -34 -7.5t-42 -3.5q-56 0 -89 31.5t-33 80.5q0 29 15 56t39.5 49.5t55.5 39.5l65 -17q-34 -32 -53 -58.5t-19 -52.5z" />
    <glyph glyph-name="uni0951" unicode="&#x951;" 
d="M-205 655h-100v241h100v-241z" />
    <glyph glyph-name="uni0952" unicode="&#x952;" 
d="M-441 -72h372v-91h-372v91z" />
    <glyph glyph-name="uni0964.gujr" unicode="&#x964;" horiz-adv-x="398" 
d="M178 0v597h134v-597h-134z" />
    <glyph glyph-name="uni0965.gujr" unicode="&#x965;" horiz-adv-x="638" 
d="M417 0v597h134v-597h-134zM178 0v597h134v-597h-134z" />
    <glyph glyph-name="candrabindugujr" unicode="&#xa81;" 
d="M-148 629q-79 0 -138.5 39.5t-97.5 128.5l105 39q20 -46 50 -75.5t81 -29.5q47 0 78.5 28t51.5 77l105 -39q-38 -89 -96.5 -128.5t-138.5 -39.5zM-148 766q-28 0 -47.5 19t-19.5 46t19.5 46t47.5 19t47 -19t19 -46t-19 -46t-47 -19z" />
    <glyph glyph-name="anusvaragujr" unicode="&#xa82;" 
d="M-149 688q-31 0 -52 22t-21 54q0 31 21 52.5t52 21.5q32 0 52.5 -21.5t20.5 -52.5q0 -32 -20.5 -54t-52.5 -22z" />
    <glyph glyph-name="visargagujr" unicode="&#xa83;" horiz-adv-x="261" 
d="M130 348q-31 0 -52 21.5t-21 53.5t21 53.5t52 21.5q32 0 53 -21.5t21 -53.5t-21 -53.5t-53 -21.5zM130 40q-31 0 -52 21.5t-21 53.5t21 53t52 21q32 0 53 -21t21 -53t-21 -53.5t-53 -21.5z" />
    <glyph glyph-name="agujr" unicode="&#xa85;" horiz-adv-x="940" 
d="M348 97q-43 0 -85 13t-80 44.5t-72 85.5l23 88q53 8 84.5 29t31.5 66q0 34 -24 51.5t-67 17.5q-22 0 -46.5 -4.5t-50.5 -15.5l-38 100q33 14 70.5 22.5t77.5 8.5q66 0 112.5 -22t71 -62.5t24.5 -96.5q0 -62 -33 -108t-90 -71t-129 -25q-32 0 -55 10t-35 29t-12 44
q0 31 21.5 51t59.5 20q32 0 59 -12.5t53 -43.5l5 -36q29 -44 59.5 -57.5t61.5 -13.5q37 0 60.5 9t39.5 28q26 31 33 69t7 93v40l134 -11v-79q0 -76 -28.5 -135t-88 -92.5t-154.5 -33.5zM659 204q-27 0 -54.5 11.5t-50.5 45.5t-37 102l87 26q5 -35 17.5 -53t38.5 -18
q24 0 47 13.5t46 45.5l16 -122q-15 -18 -40.5 -34.5t-69.5 -16.5zM900 0q-61 0 -94 13.5t-50 35.5q-16 21 -23.5 49.5t-7.5 78.5v426l134 -11v-405q0 -22 3 -36.5t10 -21.5q11 -10 24 -12.5t41 -2.5l-10 -114h-27z" />
    <glyph glyph-name="aagujr" unicode="&#xa86;" horiz-adv-x="1232" 
d="M348 97q-43 0 -85 13t-80 44.5t-72 85.5l23 88q53 8 84.5 29t31.5 66q0 34 -24 51.5t-67 17.5q-22 0 -46.5 -4.5t-50.5 -15.5l-38 100q33 14 70.5 22.5t77.5 8.5q66 0 112.5 -22t71 -62.5t24.5 -96.5q0 -62 -33 -108t-90 -71t-129 -25q-32 0 -55 10t-35 29t-12 44
q0 31 21.5 51t59.5 20q32 0 59 -12.5t53 -43.5l5 -36q29 -44 59.5 -57.5t61.5 -13.5q37 0 60.5 9t39.5 28q26 31 33 69t7 93v40l134 -11v-79q0 -76 -28.5 -135t-88 -92.5t-154.5 -33.5zM659 204q-27 0 -54.5 11.5t-50.5 45.5t-37 102l87 26q5 -35 17.5 -53t38.5 -18
q24 0 47 13.5t46 45.5l16 -122q-15 -18 -40.5 -34.5t-69.5 -16.5zM900 0q-61 0 -94 13.5t-50 35.5q-16 21 -23.5 49.5t-7.5 78.5v426l134 -11v-405q0 -22 3 -36.5t10 -21.5q11 -10 24 -12.5t41 -2.5l-10 -114h-27zM1193 0q-56 0 -91 12t-55 39q-22 29 -25.5 62.5t-3.5 63.5
v426l134 -11v-405q0 -22 3 -36.5t10 -21.5q10 -10 23 -12.5t41 -2.5l-9 -114h-27z" />
    <glyph glyph-name="igujr" unicode="&#xa87;" horiz-adv-x="674" 
d="M328 -10q-89 0 -146 26t-84.5 70t-27.5 97q0 56 29 99t81.5 67.5t123.5 24.5q15 0 31 -1t28 -3l-15 -111q-10 2 -21 2h-20q-46 0 -73.5 -19t-27.5 -54q0 -41 30.5 -62.5t95.5 -21.5q47 0 85.5 16t61 50t22.5 88q0 40 -14 75.5t-36 75.5q-22 41 -39 80.5t-17 93.5
q0 56 29 103t81 78l87 -111q-28 -19 -42 -38t-14 -42q0 -28 12 -55t30 -60q22 -39 41 -87.5t19 -114.5q0 -76 -33 -136.5t-101.5 -95t-175.5 -34.5zM146 271q-54 38 -83 80.5t-29 94.5q0 48 22.5 83t64.5 54.5t102 19.5q31 0 59 -3.5t47 -8.5l-22 -109q-15 4 -31.5 5.5
t-29.5 1.5q-36 0 -56 -14.5t-20 -40.5q0 -27 20 -50t62 -42z" />
    <glyph glyph-name="iigujr" unicode="&#xa88;" horiz-adv-x="674" 
d="M328 -10q-89 0 -146 26t-84.5 70t-27.5 97q0 56 29 99t81.5 67.5t123.5 24.5q15 0 31 -1t28 -3l-15 -111q-10 2 -21 2h-20q-46 0 -73.5 -19t-27.5 -54q0 -41 30.5 -62.5t95.5 -21.5q47 0 85 16t61 51.5t23 92.5q0 30 -8 61t-23 66.5t-38 78.5q-22 43 -42 84.5t-32 83
t-12 85.5t20 83.5t64 64.5t116 25q45 0 83 -15.5t69 -45t54 -71.5l-126 -54q-17 34 -36.5 54t-48.5 20q-24 0 -41.5 -14.5t-17.5 -45.5q0 -24 7 -48t21.5 -54.5t36.5 -75.5q27 -54 48 -101t33 -92t12 -92q0 -78 -33.5 -139.5t-102.5 -96.5t-176 -35zM146 271
q-54 38 -83 80.5t-29 94.5q0 48 22.5 83t64.5 54.5t102 19.5q31 0 59 -3.5t47 -8.5l-22 -109q-15 4 -31.5 5.5t-29.5 1.5q-36 0 -56 -14.5t-20 -40.5q0 -27 20 -50t62 -42z" />
    <glyph glyph-name="ugujr" unicode="&#xa89;" horiz-adv-x="665" 
d="M379 -10q-100 0 -175 44t-116.5 133.5t-41.5 223.5q0 88 22 167.5t69 141.5t121.5 97.5t179.5 36.5q25 0 49.5 -2.5t45.5 -7.5l-22 -115q-16 5 -36 6.5t-39 1.5q-74 -1 -123.5 -29t-78 -75t-40.5 -105.5t-12 -119.5q0 -99 23.5 -161.5t66.5 -92.5t103 -30q53 0 83 19
t30 59q0 35 -24 57.5t-56 42.5v22l97 50q61 -38 90 -82t29 -103q0 -85 -63.5 -132t-181.5 -47zM366 248l-24 112q40 3 72.5 11.5t52.5 24.5t20 41q0 26 -19 39.5t-56 13.5q-28 0 -55.5 -6t-54.5 -17l-36 104q38 14 76 23t90 9q64 0 106 -21t62.5 -57.5t20.5 -83.5
q0 -48 -21.5 -82.5t-57.5 -57.5t-82 -36t-94 -17z" />
    <glyph glyph-name="uugujr" unicode="&#xa8a;" horiz-adv-x="926" 
d="M381 -10q-101 0 -176.5 44.5t-117 132.5t-41.5 218q0 90 23.5 171t73 143.5t125.5 98.5t181 36q79 0 143 -23t113 -62.5t84 -88.5t56 -101v-372q0 -22 3 -36t10 -22q10 -10 23.5 -12.5t41.5 -2.5l-10 -114h-27q-61 0 -94 13.5t-50 35.5q-16 21 -23.5 49.5t-7.5 78.5v334
q-27 68 -66 114t-87.5 69.5t-105.5 23.5q-75 0 -127 -27.5t-83.5 -75t-45.5 -107.5t-14 -126q0 -96 23 -157.5t66 -91t104 -29.5q53 0 83 19t30 59q0 34 -23.5 56.5t-55.5 42.5v23l96 50q61 -38 90 -82t29 -103q0 -85 -63.5 -132t-179.5 -47zM366 248l-24 112
q40 3 72.5 11.5t52.5 24.5t20 41q0 26 -19 39.5t-56 13.5q-28 0 -55.5 -6t-54.5 -17l-36 104q38 14 76 23t90 9q64 0 106 -21t62.5 -57.5t20.5 -83.5q0 -48 -21.5 -82.5t-57.5 -57.5t-82 -36t-94 -17z" />
    <glyph glyph-name="rvocalicgujr" unicode="&#xa8b;" horiz-adv-x="905" 
d="M747 54l-70 108q32 15 47.5 31.5t15.5 41.5q0 20 -9 43.5t-43 70.5l-1 26q-11 15 -15.5 29.5t-4.5 26.5q0 40 25 59.5t62 19.5q44 0 70 -26t26 -67q0 -45 -24 -71.5t-63 -38t-86 -11.5q-31 0 -75.5 13t-80.5 43l16 120q30 -33 64 -49.5t65 -16.5q30 0 55 9t34 16l25 -19
q58 -63 75.5 -108t17.5 -78q0 -42 -17 -73.5t-45.5 -55t-63.5 -43.5zM165 111l-74 112l335 191l57 -88zM326 335q-29 39 -56 60t-52.5 29t-51.5 8q-27 0 -53 -6.5t-61 -23.5l-42 106q40 18 78 28.5t81 10.5q48 0 86 -12.5t76.5 -45.5t86.5 -93zM593 0q-61 0 -94.5 13
t-50.5 36q-15 21 -22.5 49.5t-7.5 78.5v426l134 -11v-405q0 -22 3 -36.5t10 -21.5q11 -10 24 -12.5t41 -2.5l-10 -114h-27z" />
    <glyph glyph-name="lvocalicgujr" unicode="&#xa8c;" horiz-adv-x="752" 
d="M197 30q-46 41 -83 83t-58.5 87t-21.5 94q0 61 27 95.5t67.5 49.5t79.5 15q57 0 98.5 -15t85.5 -50l-35 -125q-28 30 -56 54t-66 24q-30 0 -47.5 -17t-17.5 -45q0 -26 14 -52t40.5 -53.5t63.5 -59.5zM635 -87q-50 0 -89 18.5t-61.5 51t-22.5 75.5q0 68 51 108.5t144 46.5
l12 -93q-52 -7 -70.5 -22.5t-18.5 -37.5t15.5 -34t45.5 -12q23 0 47 6.5t59 24.5l38 -97q-26 -13 -62.5 -24t-87.5 -11zM669 120l-130 36q20 32 31.5 60.5t11.5 53.5q0 38 -16.5 55.5t-43.5 17.5q-16 0 -37.5 -10t-41.5 -37.5t-35 -80.5l-124 38q26 101 87.5 151t159.5 50
q54 0 95.5 -20.5t65 -59.5t23.5 -95q0 -44 -11.5 -82.5t-34.5 -76.5zM456 390v213l134 -11v-202h-134z" />
    <glyph glyph-name="ecandragujr" unicode="&#xa8d;" horiz-adv-x="940" 
d="M348 97q-43 0 -85 13t-80 44.5t-72 85.5l23 88q53 8 84.5 29t31.5 66q0 34 -24 51.5t-67 17.5q-22 0 -46.5 -4.5t-50.5 -15.5l-38 100q33 14 70.5 22.5t77.5 8.5q66 0 112.5 -22t71 -62.5t24.5 -96.5q0 -62 -33 -108t-90 -71t-129 -25q-32 0 -55 10t-35 29t-12 44
q0 31 21.5 51t59.5 20q32 0 59 -12.5t53 -43.5l5 -36q29 -44 59.5 -57.5t61.5 -13.5q37 0 60.5 9t39.5 28q26 31 33 69t7 93v40l134 -11v-79q0 -76 -28.5 -135t-88 -92.5t-154.5 -33.5zM659 204q-27 0 -54.5 11.5t-50.5 45.5t-37 102l87 26q5 -35 17.5 -53t38.5 -18
q24 0 47 13.5t46 45.5l16 -122q-15 -18 -40.5 -34.5t-69.5 -16.5zM900 0q-61 0 -94 13.5t-50 35.5q-16 21 -23.5 49.5t-7.5 78.5v426l134 -11v-405q0 -22 3 -36.5t10 -21.5q11 -10 24 -12.5t41 -2.5l-10 -114h-27zM804 641q-67 0 -117 23t-92 63.5t-84 93.5l93 61
q38 -46 67 -74t60 -40.5t72 -12.5q20 0 32.5 2.5t22.5 6.5l35 -110q-19 -6 -41 -9.5t-48 -3.5z" />
    <glyph glyph-name="egujr" unicode="&#xa8f;" horiz-adv-x="940" 
d="M348 97q-43 0 -85 13t-80 44.5t-72 85.5l23 88q53 8 84.5 29t31.5 66q0 34 -24 51.5t-67 17.5q-22 0 -46.5 -4.5t-50.5 -15.5l-38 100q33 14 70.5 22.5t77.5 8.5q66 0 112.5 -22t71 -62.5t24.5 -96.5q0 -62 -33 -108t-90 -71t-129 -25q-32 0 -55 10t-35 29t-12 44
q0 31 21.5 51t59.5 20q32 0 59 -12.5t53 -43.5l5 -36q29 -44 59.5 -57.5t61.5 -13.5q37 0 60.5 9t39.5 28q26 31 33 69t7 93v40l134 -11v-79q0 -76 -28.5 -135t-88 -92.5t-154.5 -33.5zM659 204q-27 0 -54.5 11.5t-50.5 45.5t-37 102l87 26q5 -35 17.5 -53t38.5 -18
q24 0 47 13.5t46 45.5l16 -122q-15 -18 -40.5 -34.5t-69.5 -16.5zM900 0q-61 0 -94 13.5t-50 35.5q-16 21 -23.5 49.5t-7.5 78.5v426l134 -11v-405q0 -22 3 -36.5t10 -21.5q11 -10 24 -12.5t41 -2.5l-10 -114h-27zM729 641q-10 52 -25 83.5t-37 46t-56 14.5q-13 0 -28 -1.5
t-29 -6.5l-34 105q20 7 46 10.5t55 3.5q34 0 66.5 -8.5t62 -34t55 -76.5t46.5 -136h-122z" />
    <glyph glyph-name="aigujr" unicode="&#xa90;" horiz-adv-x="940" 
d="M348 97q-43 0 -85 13t-80 44.5t-72 85.5l23 88q53 8 84.5 29t31.5 66q0 34 -24 51.5t-67 17.5q-22 0 -46.5 -4.5t-50.5 -15.5l-38 100q33 14 70.5 22.5t77.5 8.5q66 0 112.5 -22t71 -62.5t24.5 -96.5q0 -62 -33 -108t-90 -71t-129 -25q-32 0 -55 10t-35 29t-12 44
q0 31 21.5 51t59.5 20q32 0 59 -12.5t53 -43.5l5 -36q29 -44 59.5 -57.5t61.5 -13.5q37 0 60.5 9t39.5 28q26 31 33 69t7 93v40l134 -11v-79q0 -76 -28.5 -135t-88 -92.5t-154.5 -33.5zM659 204q-27 0 -54.5 11.5t-50.5 45.5t-37 102l87 26q5 -35 17.5 -53t38.5 -18
q24 0 47 13.5t46 45.5l16 -122q-15 -18 -40.5 -34.5t-69.5 -16.5zM900 0q-61 0 -94 13.5t-50 35.5q-16 21 -23.5 49.5t-7.5 78.5v426l134 -11v-405q0 -22 3 -36.5t10 -21.5q11 -10 24 -12.5t41 -2.5l-10 -114h-27zM751 641q-11 55 -23 89t-31.5 50t-53.5 16
q-16 0 -29.5 -2.5t-24.5 -5.5l-33 94q20 7 46.5 10.5t51.5 3.5q32 0 63 -7.5t58.5 -32.5t49 -76t34.5 -139h-108zM685 620q-37 27 -65 41t-51.5 19t-47.5 5q-12 0 -25.5 -1.5t-23.5 -4.5l-33 96q20 6 40.5 8t39.5 2q47 0 82.5 -11.5t68.5 -32.5t69 -52z" />
    <glyph glyph-name="ocandragujr" unicode="&#xa91;" horiz-adv-x="1232" 
d="M348 97q-43 0 -85 13t-80 44.5t-72 85.5l23 88q53 8 84.5 29t31.5 66q0 34 -24 51.5t-67 17.5q-22 0 -46.5 -4.5t-50.5 -15.5l-38 100q33 14 70.5 22.5t77.5 8.5q66 0 112.5 -22t71 -62.5t24.5 -96.5q0 -62 -33 -108t-90 -71t-129 -25q-32 0 -55 10t-35 29t-12 44
q0 31 21.5 51t59.5 20q32 0 59 -12.5t53 -43.5l5 -36q29 -44 59.5 -57.5t61.5 -13.5q37 0 60.5 9t39.5 28q26 31 33 69t7 93v40l134 -11v-79q0 -76 -28.5 -135t-88 -92.5t-154.5 -33.5zM659 204q-27 0 -54.5 11.5t-50.5 45.5t-37 102l87 26q5 -35 17.5 -53t38.5 -18
q24 0 47 13.5t46 45.5l16 -122q-15 -18 -40.5 -34.5t-69.5 -16.5zM900 0q-61 0 -94 13.5t-50 35.5q-16 21 -23.5 49.5t-7.5 78.5v426l134 -11v-405q0 -22 3 -36.5t10 -21.5q11 -10 24 -12.5t41 -2.5l-10 -114h-27zM1193 0q-56 0 -91 12t-55 39q-22 29 -25.5 62.5t-3.5 63.5
v426l134 -11v-405q0 -22 3 -36.5t10 -21.5q10 -10 23 -12.5t41 -2.5l-9 -114h-27zM1096 641q-67 0 -117 23t-92 63.5t-84 93.5l93 61q38 -46 67 -74t60 -40.5t72 -12.5q20 0 32.5 2.5t22.5 6.5l35 -110q-19 -6 -41 -9.5t-48 -3.5z" />
    <glyph glyph-name="ogujr" unicode="&#xa93;" horiz-adv-x="1232" 
d="M348 97q-43 0 -85 13t-80 44.5t-72 85.5l23 88q53 8 84.5 29t31.5 66q0 34 -24 51.5t-67 17.5q-22 0 -46.5 -4.5t-50.5 -15.5l-38 100q33 14 70.5 22.5t77.5 8.5q66 0 112.5 -22t71 -62.5t24.5 -96.5q0 -62 -33 -108t-90 -71t-129 -25q-32 0 -55 10t-35 29t-12 44
q0 31 21.5 51t59.5 20q32 0 59 -12.5t53 -43.5l5 -36q29 -44 59.5 -57.5t61.5 -13.5q37 0 60.5 9t39.5 28q26 31 33 69t7 93v40l134 -11v-79q0 -76 -28.5 -135t-88 -92.5t-154.5 -33.5zM659 204q-27 0 -54.5 11.5t-50.5 45.5t-37 102l87 26q5 -35 17.5 -53t38.5 -18
q24 0 47 13.5t46 45.5l16 -122q-15 -18 -40.5 -34.5t-69.5 -16.5zM900 0q-61 0 -94 13.5t-50 35.5q-16 21 -23.5 49.5t-7.5 78.5v426l134 -11v-405q0 -22 3 -36.5t10 -21.5q11 -10 24 -12.5t41 -2.5l-10 -114h-27zM1193 0q-56 0 -91 12t-55 39q-22 29 -25.5 62.5t-3.5 63.5
v426l134 -11v-405q0 -22 3 -36.5t10 -21.5q10 -10 23 -12.5t41 -2.5l-9 -114h-27zM1021 641q-10 52 -25 83.5t-37 46t-56 14.5q-13 0 -28 -1.5t-29 -6.5l-34 105q20 7 46 10.5t55 3.5q34 0 66.5 -8.5t62 -34t55 -76.5t46.5 -136h-122z" />
    <glyph glyph-name="augujr" unicode="&#xa94;" horiz-adv-x="1232" 
d="M348 97q-43 0 -85 13t-80 44.5t-72 85.5l23 88q53 8 84.5 29t31.5 66q0 34 -24 51.5t-67 17.5q-22 0 -46.5 -4.5t-50.5 -15.5l-38 100q33 14 70.5 22.5t77.5 8.5q66 0 112.5 -22t71 -62.5t24.5 -96.5q0 -62 -33 -108t-90 -71t-129 -25q-32 0 -55 10t-35 29t-12 44
q0 31 21.5 51t59.5 20q32 0 59 -12.5t53 -43.5l5 -36q29 -44 59.5 -57.5t61.5 -13.5q37 0 60.5 9t39.5 28q26 31 33 69t7 93v40l134 -11v-79q0 -76 -28.5 -135t-88 -92.5t-154.5 -33.5zM659 204q-27 0 -54.5 11.5t-50.5 45.5t-37 102l87 26q5 -35 17.5 -53t38.5 -18
q24 0 47 13.5t46 45.5l16 -122q-15 -18 -40.5 -34.5t-69.5 -16.5zM900 0q-61 0 -94 13.5t-50 35.5q-16 21 -23.5 49.5t-7.5 78.5v426l134 -11v-405q0 -22 3 -36.5t10 -21.5q11 -10 24 -12.5t41 -2.5l-10 -114h-27zM1193 0q-56 0 -91 12t-55 39q-22 29 -25.5 62.5t-3.5 63.5
v426l134 -11v-405q0 -22 3 -36.5t10 -21.5q10 -10 23 -12.5t41 -2.5l-9 -114h-27zM1043 641q-11 55 -23 89t-31.5 50t-53.5 16q-16 0 -29.5 -2.5t-24.5 -5.5l-33 94q20 7 46.5 10.5t51.5 3.5q32 0 63 -7.5t58.5 -32.5t49 -76t34.5 -139h-108zM977 620q-37 27 -65 41
t-51.5 19t-47.5 5q-12 0 -25.5 -1.5t-23.5 -4.5l-33 96q20 6 40.5 8t39.5 2q47 0 82.5 -11.5t68.5 -32.5t69 -52z" />
    <glyph glyph-name="kagujr" unicode="&#xa95;" horiz-adv-x="541" 
d="M260 -10q-68 0 -129.5 17t-111.5 48l63 97q41 -22 81 -35t86 -13q49 0 77 16t28 47q0 16 -9 32t-34.5 33t-76.5 36l-25 31q-31 19 -59 41.5t-45.5 50.5t-17.5 63q0 68 59 108t157 40q26 0 56 -2.5t60 -10.5l-23 -109q-28 6 -47.5 8t-39.5 2q-49 0 -67.5 -14.5
t-18.5 -34.5q0 -16 12.5 -29.5t36 -26.5t55.5 -29l9 -20q45 -20 80 -44t55 -56.5t20 -80.5q0 -41 -21.5 -79t-72 -62t-137.5 -24zM77 188l-45 107l186 62l263 95l47 -108l-202 -67z" />
    <glyph glyph-name="khagujr" unicode="&#xa96;" horiz-adv-x="810" 
d="M279 157q-54 0 -88.5 13.5t-56.5 33.5q-26 25 -38 59.5t-12 99.5v42q0 23 -3.5 36.5t-9.5 20.5q-10 11 -23 13.5t-42 2.5l10 114h27q62 0 95 -13t50 -37q15 -21 22.5 -49t7.5 -78v-55q0 -34 5 -49t14 -24t21.5 -12.5t22.5 -3.5q19 0 31 4.5t22 14.5q11 11 15.5 29t4.5 49
v119l135 -10v-109q0 -70 -23 -117t-69.5 -70.5t-117.5 -23.5zM529 253q-40 0 -71 21t-47 60l65 75q8 -19 22 -30.5t31 -11.5q26 0 48.5 14t45.5 45l15 -122q-22 -26 -49 -38.5t-60 -12.5zM771 0q-62 0 -95 13.5t-50 35.5q-16 21 -23.5 49.5t-7.5 78.5v426l134 -11v-405
q0 -22 3 -36.5t10 -21.5q11 -10 24 -12.5t41 -2.5l-10 -114h-26z" />
    <glyph glyph-name="gagujr" unicode="&#xa97;" horiz-adv-x="713" 
d="M228 166q-49 0 -89 16t-73 46.5t-61 73.5l99 58q23 -35 48.5 -57t62.5 -22q32 0 54 20t22 78q0 62 -24.5 86.5t-70.5 24.5q-30 0 -56.5 -6.5t-49.5 -17.5l-37 103q32 14 71 24t88 10q68 0 115.5 -27.5t72.5 -78.5t25 -121q0 -60 -16.5 -100.5t-45 -64.5t-63.5 -34.5
t-72 -10.5zM673 0q-61 0 -94 13.5t-50 35.5q-16 21 -23.5 51t-7.5 77v426l134 -11v-405q0 -22 3 -36.5t10 -21.5q11 -10 24 -12.5t41 -2.5l-10 -114h-27z" />
    <glyph glyph-name="ghagujr" unicode="&#xa98;" horiz-adv-x="658" 
d="M271 103q-52 0 -96.5 18t-71.5 53.5t-27 86.5q0 47 24 81.5t67 54t100 19.5q23 0 42 -2.5t34 -5.5l-17 -109q-9 2 -22.5 4t-32.5 2q-31 0 -47.5 -11.5t-16.5 -31.5q0 -26 21.5 -36.5t52.5 -10.5q44 0 86.5 18.5t82.5 55.5v-137q-33 -22 -74 -35.5t-105 -13.5zM141 312
q-37 22 -60.5 46.5t-35 52t-11.5 57.5q0 41 21.5 71t63.5 47t101 17q33 0 61.5 -3.5t47.5 -8.5l-22 -106q-16 3 -33.5 4.5t-36.5 1.5q-36 0 -53 -11.5t-17 -31.5q0 -22 17.5 -37.5t54.5 -27.5zM618 0q-61 0 -94 13.5t-50 35.5q-16 21 -23.5 49.5t-7.5 78.5v426l134 -11v-405
q0 -22 3 -36.5t10 -21.5q11 -10 24 -12.5t41 -2.5l-10 -114h-27z" />
    <glyph glyph-name="ngagujr" unicode="&#xa99;" horiz-adv-x="543" 
d="M461 338q-30 0 -49.5 20.5t-19.5 50.5t19.5 50t49.5 20q29 0 48.5 -20t19.5 -50t-19.5 -50.5t-48.5 -20.5zM287 -10q-98 0 -165.5 43t-116.5 112l105 62q38 -52 79.5 -77.5t89.5 -25.5q39 0 60 15t21 46q0 21 -10 38t-33 33.5t-62 36.5q-59 31 -91 60t-44 59t-12 63
q0 62 51.5 105t144.5 43q39 0 66 -3.5t53 -8.5l-25 -112q-21 5 -44 8.5t-46 3.5q-34 0 -49.5 -9.5t-15.5 -27.5q0 -14 7 -24.5t26.5 -22.5t57.5 -32q65 -33 100.5 -65t49.5 -66.5t14 -75.5q0 -79 -55 -128.5t-156 -49.5z" />
    <glyph glyph-name="cagujr" unicode="&#xa9a;" horiz-adv-x="707" 
d="M346 112q-46 0 -89 12.5t-81 41t-72 77.5l18 82l12 3q53 8 84.5 29.5t31.5 65.5q0 33 -24 51t-66 18q-22 0 -47 -4.5t-51 -15.5l-38 100q35 14 72 22.5t74 8.5q67 0 113.5 -22.5t71.5 -62.5t25 -95q0 -63 -32.5 -109t-90 -71t-131.5 -25q-31 0 -53.5 10t-34.5 29t-12 44
q0 31 22 51t59 20q32 0 59 -12.5t53 -43.5l-13 -39q26 -31 64 -41.5t76 -10.5q31 0 58 9t50.5 25.5t43.5 39.5l16 -134q-28 -20 -68.5 -36.5t-99.5 -16.5zM667 0q-61 0 -94.5 13t-50.5 36q-15 21 -22.5 49.5t-7.5 78.5v426l134 -11v-405q0 -22 3 -36.5t10 -21.5
q11 -10 24 -12.5t41 -2.5l-10 -114h-27z" />
    <glyph glyph-name="chagujr" unicode="&#xa9b;" horiz-adv-x="782" 
d="M333 -10q-94 0 -152 26t-84.5 70t-26.5 97q0 56 29 99t81.5 67.5t123.5 24.5q15 0 31 -1t28 -3l-15 -111q-10 2 -21 2h-20q-46 0 -73.5 -19t-27.5 -54q0 -41 30.5 -62.5t95.5 -21.5q75 0 129 25t88.5 65.5t51 88t16.5 92.5q0 48 -11 73.5t-27.5 35.5t-33.5 10
q-28 0 -39.5 -16.5t-11.5 -35.5q0 -23 21.5 -45.5t82.5 -34.5l-38 -111q-49 12 -91.5 35.5t-69 63t-26.5 99.5q0 41 19 76t57.5 56.5t95.5 21.5q36 0 72.5 -11.5t67 -37.5t49 -71t18.5 -112q0 -77 -26 -145.5t-78.5 -121.5t-131 -83.5t-183.5 -30.5zM146 271
q-36 25 -61 52.5t-38 58t-13 64.5q0 48 22.5 83t64.5 54.5t102 19.5q31 0 59 -3.5t47 -8.5l-22 -109q-15 4 -31.5 5.5t-29.5 1.5q-36 0 -56 -14.5t-20 -40.5q0 -27 20 -50t62 -42z" />
    <glyph glyph-name="jagujr" unicode="&#xa9c;" horiz-adv-x="889" 
d="M604 -10q-70 0 -113.5 26.5t-63 66.5t-19.5 83q0 47 16 89.5t54 86.5t102 95q35 28 74 56t82 56t87 54l73 -103q-41 -25 -79.5 -49t-74.5 -47t-70 -47q-53 -40 -81.5 -70.5t-39.5 -56.5t-11 -56q0 -38 17.5 -56t46.5 -18q32 0 49.5 19t17.5 53q0 60 -26 104t-85 98
q-33 38 -86 64.5t-110.5 41t-105.5 14.5q-52 0 -76 -22.5t-24 -54.5q0 -28 15 -43t41 -15q33 0 47.5 16.5t14.5 48.5q0 20 -4.5 37t-15.5 36l107 17q8 -11 20 -41.5t12 -67.5q0 -25 -8.5 -52.5t-29 -51t-55.5 -38.5t-89 -15q-61 0 -102.5 22.5t-62.5 60.5t-21 83q0 50 26 93
t79.5 69.5t134.5 26.5q128 0 233 -47.5t193 -142.5q60 -60 85.5 -118t25.5 -120q0 -82 -51.5 -133.5t-148.5 -51.5z" />
    <glyph glyph-name="jhagujr" unicode="&#xa9d;" horiz-adv-x="754" 
d="M244 -10q-79 0 -133.5 36t-100.5 103l100 60q32 -42 58 -62.5t64 -20.5q24 0 43.5 11t31 39t11.5 78q0 74 -27.5 109t-77.5 35q-34 0 -64 -7.5t-51 -17.5l-37 105q33 15 74 24.5t93 9.5q72 0 122.5 -31.5t77 -89.5t26.5 -139q0 -72 -18.5 -119t-49.5 -74t-68 -38t-74 -11
zM614 -10l-99 89q29 24 51.5 56t22.5 75t-22.5 66t-63.5 23q-34 0 -60 -16.5t-50 -36.5l-44 118q30 22 71.5 35t94.5 13q66 0 112.5 -24.5t71 -68t24.5 -101.5q0 -67 -25 -121t-84 -107zM474 341v262l134 -11v-251h-134z" />
    <glyph glyph-name="nyagujr" unicode="&#xa9e;" horiz-adv-x="741" 
d="M228 166q-49 0 -89 16t-73 46.5t-61 73.5l99 58q23 -35 48.5 -57t62.5 -22q32 0 54 20t22 78q0 60 -23.5 85.5t-71.5 25.5q-30 0 -56.5 -6.5t-49.5 -17.5l-37 103q32 14 71 24t88 10q68 0 115 -27.5t71.5 -78.5t24.5 -121q0 -60 -16.5 -100.5t-44.5 -64.5t-62.5 -34.5
t-71.5 -10.5zM437 309q-31 0 -61 7.5t-53 24.5l7 127q20 -22 45.5 -35t59.5 -13q45 0 73 18t50 52l18 -130q-28 -25 -60 -38t-79 -13zM702 0q-61 0 -94.5 13t-50.5 36q-15 21 -23 51t-8 77v426l135 -11v-405q0 -22 2.5 -36.5t9.5 -21.5q11 -10 24 -12.5t41 -2.5l-9 -114h-27
z" />
    <glyph glyph-name="ttagujr" unicode="&#xa9f;" horiz-adv-x="488" 
d="M261 -10q-74 0 -124.5 22.5t-76.5 63.5t-26 94q0 69 45.5 115t131.5 89q42 21 64 34t30.5 23t8.5 23q0 20 -17.5 28.5t-43.5 8.5q-40 0 -75.5 -7.5t-64.5 -19.5l-38 106q41 14 86.5 23.5t96.5 9.5q64 0 106 -18.5t63 -51t21 -75.5q0 -40 -15 -70.5t-51.5 -58
t-101.5 -61.5q-41 -21 -65 -37t-34 -30.5t-10 -33.5q0 -37 26.5 -50t63.5 -13q56 0 103 14.5t80 33.5l53 -106q-54 -24 -108.5 -40t-127.5 -16z" />
    <glyph glyph-name="tthagujr" unicode="&#xaa0;" horiz-adv-x="550" 
d="M282 -10q-80 0 -135.5 25.5t-84.5 71t-29 104.5q0 62 33.5 106t90 68.5t123.5 24.5l96 -54l5 -59q-22 5 -42.5 6.5t-31.5 1.5q-44 0 -75 -12t-47.5 -33t-16.5 -50q0 -43 30.5 -64.5t81.5 -21.5q47 0 78.5 18.5t31.5 58.5q0 24 -11 43t-38 39.5t-76 47.5l-37 25
q-39 28 -60 61.5t-21 73.5q0 33 19 63.5t59.5 49.5t104.5 19q33 0 62.5 -3.5t57.5 -8.5l-25 -112q-23 7 -46 10t-43 3q-31 0 -45 -7t-14 -21q0 -9 5.5 -17t20 -17.5t41.5 -24.5q71 -37 110 -74t55 -75.5t16 -82.5q0 -85 -63.5 -134t-179.5 -49z" />
    <glyph glyph-name="ddagujr" unicode="&#xaa1;" horiz-adv-x="522" 
d="M287 -10q-98 0 -165.5 43t-116.5 112l105 62q38 -52 79.5 -77.5t89.5 -25.5q39 0 60 15t21 46q0 21 -10 38t-33 33.5t-62 36.5q-59 31 -91 60t-44 59t-12 63q0 62 51.5 105t144.5 43q39 0 66 -3.5t53 -8.5l-25 -112q-21 5 -44 8.5t-46 3.5q-34 0 -49.5 -9.5t-15.5 -27.5
q0 -14 7 -24.5t26.5 -22.5t57.5 -32q65 -33 100.5 -65t49.5 -66.5t14 -75.5q0 -79 -55 -128.5t-156 -49.5z" />
    <glyph glyph-name="ddhagujr" unicode="&#xaa2;" horiz-adv-x="546" 
d="M302 -10q-86 0 -146 24t-91 65.5t-31 96.5q0 74 45.5 118t124.5 81l34 16q26 12 43 21.5t25.5 20.5t8.5 25q0 17 -15.5 25t-41.5 8q-30 0 -64 -6t-63 -18l-38 106q36 12 79.5 21t88.5 9q94 0 141 -37.5t47 -103.5q0 -35 -12.5 -62.5t-43 -51.5t-84.5 -51l-59 -29
q-50 -25 -66 -45t-16 -47q0 -33 27 -56t77 -23h53q47 0 71.5 13.5t24.5 38.5q0 16 -10 26.5t-29 10.5q-18 0 -33 -11t-15 -35q0 -26 9.5 -46.5t27.5 -41.5l-100 -15q-22 35 -31.5 66.5t-9.5 57.5q0 57 44 90t108 33q75 0 114.5 -39.5t39.5 -98.5q0 -51 -29 -86t-81.5 -52.5
t-123.5 -17.5z" />
    <glyph glyph-name="nnagujr" unicode="&#xaa3;" horiz-adv-x="901" 
d="M442 -160l-102 75q17 14 24.5 28t7.5 24q0 12 -5.5 22t-17.5 19t-32 18l-124 56q-53 24 -80.5 47t-36.5 57t-9 91v326l135 -11v-299q0 -29 3 -49t16.5 -35t46.5 -29l107 -46q81 -34 110 -70t29 -82q0 -44 -20.5 -75.5t-51.5 -66.5zM445 198q-43 0 -80 15t-68 43t-55 68
l91 59q20 -30 41.5 -50.5t52.5 -20.5t47 17.5t16 66.5q0 53 -20.5 74.5t-56.5 21.5q-25 0 -44.5 -5t-45.5 -15l-38 99q29 13 65 22.5t83 9.5q60 0 102.5 -26t65.5 -72.5t23 -110.5q0 -55 -15 -92.5t-40 -60.5t-57 -33t-67 -10zM862 0q-61 0 -94.5 13t-50.5 36
q-15 21 -22.5 49.5t-7.5 78.5v426l134 -11v-405q0 -19 2.5 -32t6.5 -21q8 -14 24.5 -17t43.5 -3l-9 -114h-27z" />
    <glyph glyph-name="tagujr" unicode="&#xaa4;" horiz-adv-x="621" 
d="M198 10q-51 42 -88 82t-56.5 82.5t-19.5 90.5q0 45 15.5 78t42.5 54q32 25 75.5 36t116.5 11h142v-114h-123q-32 0 -53.5 -2t-35.5 -7.5t-24 -14.5t-15 -21t-5 -29q0 -29 12.5 -53t38.5 -49.5t66 -58.5zM581 0q-61 0 -94.5 13t-50.5 36q-15 21 -22.5 49.5t-7.5 78.5v426
l134 -11v-405q0 -22 3 -36.5t10 -21.5q11 -10 24 -12.5t41 -2.5l-10 -114h-27z" />
    <glyph glyph-name="thagujr" unicode="&#xaa5;" horiz-adv-x="688" 
d="M298 135q-64 0 -113 23t-83 65.5t-56 101.5q54 15 99 36t71.5 48.5t26.5 59.5q0 18 -10.5 29.5t-30.5 11.5q-18 0 -28.5 -9.5t-10.5 -25.5q0 -12 6.5 -23.5t19.5 -21.5l-105 -54q-25 20 -38 46.5t-13 58.5q0 31 18.5 58.5t56 45.5t92.5 18q53 0 86.5 -13.5t51.5 -34
t25 -43.5t7 -43q0 -51 -24 -89t-64 -65.5t-90 -47.5l-16 54q25 -34 54.5 -53t79.5 -19q53 0 97.5 22.5t72.5 56.5l14 -134q-41 -29 -88 -44t-108 -15zM648 0q-61 0 -94.5 13t-50.5 36q-15 21 -22.5 49.5t-7.5 78.5v426l134 -11v-405q0 -22 3 -36.5t10 -21.5q11 -10 24 -12.5
t41 -2.5l-10 -114h-27z" />
    <glyph glyph-name="dagujr" unicode="&#xaa6;" horiz-adv-x="506" 
d="M313 -10q-84 0 -138 26t-79.5 68.5t-25.5 93.5q0 58 29 102t85 69t137 25q13 0 36 -2t41 -6l-21 -111q-14 2 -31.5 4t-31.5 2q-34 0 -58.5 -9t-37 -27t-12.5 -45q0 -23 13 -41t36.5 -28t56.5 -10q31 0 52 5t35 11l-28 -62q-8 16 -12.5 29t-4.5 30q0 37 22.5 55t54.5 18
q39 0 58.5 -24t19.5 -53q0 -36 -22.5 -63t-66 -42t-107.5 -15zM146 271q-54 38 -83 80.5t-29 94.5q0 48 22.5 83t66.5 54.5t110 19.5q36 0 70.5 -4.5t53.5 -9.5l-22 -109q-19 4 -40.5 6.5t-39.5 2.5q-45 0 -65 -14.5t-20 -40.5q0 -27 20 -50t62 -42z" />
    <glyph glyph-name="dhagujr" unicode="&#xaa7;" horiz-adv-x="648" 
d="M264 103q-49 0 -92 18t-69.5 53.5t-26.5 86.5q0 47 24 81.5t67 54t99 19.5q23 0 42.5 -2.5t34.5 -5.5l-17 -109q-10 2 -23.5 4t-31.5 2q-32 0 -48 -11.5t-16 -31.5q0 -26 21 -36.5t52 -10.5q41 0 79.5 18.5t78.5 55.5v-137q-33 -22 -71 -35.5t-103 -13.5zM141 312
q-37 22 -60.5 46.5t-35 52t-11.5 57.5q0 60 46 107t147 75l48 -109q-43 -11 -66 -23t-32 -25.5t-9 -29.5q0 -27 20.5 -47t62.5 -33zM608 0q-61 0 -94.5 13t-50.5 36q-15 21 -22.5 49.5t-7.5 78.5v426l134 -11v-405q0 -22 3 -36.5t10 -21.5q11 -10 24 -12.5t41 -2.5l-10 -114
h-27z" />
    <glyph glyph-name="nagujr" unicode="&#xaa8;" horiz-adv-x="609" 
d="M569 0q-61 0 -94.5 13t-50.5 36q-15 21 -22.5 49.5t-7.5 78.5v426l134 -11v-405q0 -22 3 -36.5t10 -21.5q11 -10 24 -12.5t41 -2.5l-10 -114h-27zM169 175q-23 0 -48.5 14t-48 37t-37 53t-14.5 61q0 29 15.5 51t61.5 22h341v-114h-202v-45q0 -42 -18 -60.5t-50 -18.5z
" />
    <glyph glyph-name="pagujr" unicode="&#xaaa;" horiz-adv-x="607" 
d="M269 157q-46 0 -80.5 12.5t-55.5 33.5q-32 32 -40.5 69t-8.5 91v42q0 23 -3 36.5t-10 20.5q-10 11 -22.5 13.5t-42.5 2.5l10 114h27q62 0 94.5 -13t49.5 -36q18 -24 24.5 -54t6.5 -74v-43q0 -43 6 -60.5t17 -27.5q8 -7 21 -10t26 -3q41 0 72.5 21t49.5 42l2 -137
q-31 -19 -66 -29.5t-77 -10.5zM567 0q-61 0 -94.5 13t-50.5 36q-15 21 -22.5 49.5t-7.5 78.5v426l134 -11v-405q0 -22 3 -36.5t10 -21.5q11 -10 24 -12.5t41 -2.5l-10 -114h-27z" />
    <glyph glyph-name="phagujr" unicode="&#xaab;" horiz-adv-x="541" 
d="M402 -181q-61 0 -109 22.5t-89 68.5t-81 117l22 95q17 -6 33.5 -10.5t34 -6.5t36.5 -2q49 0 77 16.5t28 47.5q0 16 -9 32t-34.5 33t-76.5 36l-25 31q-31 19 -59 41.5t-45.5 51t-17.5 63.5q0 68 59 108t157 40q26 0 56 -2.5t60 -10.5l-23 -109q-28 6 -47.5 8t-39.5 2
q-49 0 -67.5 -14.5t-18.5 -34.5q0 -16 11.5 -29t35 -26.5t57.5 -30.5l9 -20q45 -20 80 -44t55 -56.5t20 -80.5q0 -41 -22 -79t-73.5 -62t-140.5 -24q-22 0 -45 1t-43 3q-44 5 -73.5 16.5t-44.5 31.5t-15 50q0 26 19 45t51 19q28 0 49.5 -9.5t40 -26t38.5 -37.5l-7 -10
q35 -51 62 -81t55.5 -43t67.5 -13h24l-13 -117h-19zM77 188l-45 107l186 62l263 95l47 -108l-202 -67z" />
    <glyph glyph-name="bagujr" unicode="&#xaac;" horiz-adv-x="796" 
d="M257 149q-66 0 -116 25t-78.5 72t-28.5 111q0 95 64.5 158t172.5 88l31 -116q-55 -13 -93.5 -44t-38.5 -85q0 -37 12.5 -58t33 -29t43.5 -8q20 0 34.5 5t24.5 15q12 12 17.5 33t5.5 65v71l134 -11v-68q0 -111 -51 -167.5t-167 -56.5zM515 222q-27 0 -54 10.5t-50 44.5
l58 96q5 -19 17 -28.5t30 -9.5q35 0 56 19.5t37 40.5l16 -122q-16 -18 -41 -34.5t-69 -16.5zM757 0q-56 0 -91 12t-55 39q-22 29 -25.5 62.5t-3.5 63.5v426l134 -11v-405q0 -22 3 -36.5t10 -21.5q10 -10 23 -12.5t41 -2.5l-9 -114h-27z" />
    <glyph glyph-name="bhagujr" unicode="&#xaad;" horiz-adv-x="860" 
d="M212 49q-54 46 -94 95.5t-62 106.5t-22 124q0 65 29.5 116.5t83.5 81.5t127 30q53 0 93 -13t67 -38q32 -29 49.5 -69.5t17.5 -118.5v-25h-134v30q0 35 -6.5 58.5t-17.5 36.5q-10 12 -25.5 18.5t-38.5 6.5q-38 0 -62 -17t-35.5 -44.5t-11.5 -58.5q0 -46 14.5 -85.5
t44.5 -75.5t74 -74zM431 165q-21 0 -46 14t-47 36.5t-36.5 48t-14.5 49.5q0 26 14 44.5t56 18.5h304v-113h-160v-19q0 -43 -18 -61t-52 -18zM820 0q-61 0 -94 13.5t-50 35.5q-16 21 -23.5 49.5t-7.5 78.5v426l134 -11v-405q0 -22 3 -36.5t10 -21.5q11 -10 24 -12.5t41 -2.5
l-10 -114h-27z" />
    <glyph glyph-name="magujr" unicode="&#xaae;" horiz-adv-x="629" 
d="M590 0q-61 0 -94.5 13t-50.5 36q-15 21 -22.5 49.5t-7.5 78.5v426l134 -11v-405q0 -22 3 -36.5t10 -21.5q11 -10 23.5 -12.5t40.5 -2.5l-9 -114h-27zM182 111q-21 0 -46 14t-47.5 36.5t-36.5 48.5t-14 49q0 26 14 44.5t56 18.5h321v-113h-177v-19q0 -43 -18 -61t-52 -18z
M118 306v99q0 23 -3.5 36.5t-9.5 20.5q-10 11 -23 13.5t-41 2.5l9 114h27q62 0 95 -13t50 -37q10 -14 16.5 -29.5t10 -37.5t3.5 -56v-113h-134z" />
    <glyph glyph-name="yagujr" unicode="&#xaaf;" horiz-adv-x="648" 
d="M293 157q-68 0 -117 24.5t-82.5 68.5t-53.5 102q53 13 89.5 34t36.5 58q0 22 -15.5 35t-49.5 13q-19 0 -35 -3t-24 -6l-28 105q20 8 47 11.5t49 3.5q67 0 108 -22t60.5 -58t19.5 -79q0 -60 -33.5 -97t-89.5 -64l5 58q23 -34 49.5 -52t67.5 -18q39 0 73 15.5t69 52.5
l8 -138q-34 -23 -72 -33.5t-82 -10.5zM608 0q-56 0 -91 12t-55 39q-22 29 -25.5 62.5t-3.5 63.5v426l134 -11v-405q0 -22 3 -36.5t10 -21.5q10 -10 23.5 -12.5t41.5 -2.5l-10 -114h-27z" />
    <glyph glyph-name="ragujr" unicode="&#xab0;" horiz-adv-x="477" 
d="M448 0q-51 0 -95 10t-83.5 33t-77.5 62.5t-78 98.5l26 79q40 4 75 19.5t57 41t22 60.5q0 47 -30.5 66t-75.5 19q-36 0 -66 -7t-56 -19l-38 106q36 15 80 24.5t96 9.5q66 0 117.5 -22.5t81 -66.5t29.5 -109q0 -51 -21.5 -93.5t-61 -74.5t-93.5 -49.5t-120 -17.5
q-52 0 -79.5 22t-27.5 59q0 36 24 54.5t61 18.5q29 0 54 -12t57 -44l3 -23q46 -59 84.5 -86t73 -34.5t68.5 -7.5h22l-9 -117h-19z" />
    <glyph glyph-name="lagujr" unicode="&#xab2;" horiz-adv-x="701" 
d="M296 95q-84 0 -142.5 29t-89 83.5t-30.5 128.5q0 64 31 117.5t95 92.5t161 57l32 -117q-90 -17 -136.5 -54.5t-46.5 -101.5q0 -61 37.5 -91.5t96.5 -30.5q26 0 46.5 4t42.5 14l46 -103q-31 -14 -69.5 -21t-73.5 -7zM286 276l-28 113l263 52l8 -115zM661 0q-61 0 -94.5 13
t-50.5 36q-15 21 -22.5 49.5t-7.5 78.5v426l134 -11v-405q0 -22 3 -36.5t10 -21.5q11 -10 24 -12.5t41 -2.5l-10 -114h-27z" />
    <glyph glyph-name="llagujr" unicode="&#xab3;" horiz-adv-x="799" 
d="M760 0q-61 0 -94.5 13t-50.5 36q-15 21 -23 49.5t-8 78.5v202q0 38 -4 59t-15 32q-12 12 -35 12q-10 0 -17.5 -2.5t-13.5 -7.5q-11 -8 -15.5 -24.5t-4.5 -52.5v-20q0 -76 -15.5 -122.5t-51.5 -77.5q-25 -22 -62.5 -33.5t-87.5 -11.5q-66 0 -117.5 26t-81 75.5
t-29.5 119.5q0 63 29.5 113.5t82.5 86t125 52.5l31 -116q-55 -15 -93.5 -47.5t-38.5 -89.5q0 -42 13.5 -65t34.5 -32t42 -9q20 0 35.5 6t25.5 16q14 14 19 36.5t5 65.5v23q0 69 13.5 103.5t38.5 57.5t57.5 32t72.5 9q44 0 78 -12t60 -36q25 -23 39.5 -59.5t14.5 -105.5v-193
q0 -22 2.5 -36.5t9.5 -21.5q11 -10 24 -12.5t41 -2.5l-9 -114h-27z" />
    <glyph glyph-name="vagujr" unicode="&#xab5;" horiz-adv-x="618" 
d="M251 157q-62 0 -111 22.5t-77.5 66t-28.5 106.5q0 61 29 104t79.5 66t116.5 23q34 0 58.5 -2.5t43.5 -5.5l-11 -112q-15 3 -31.5 4.5t-41.5 1.5q-53 0 -80.5 -22.5t-27.5 -60.5q0 -42 26 -59.5t63 -17.5q45 0 80.5 16t71.5 50l-2 -135q-33 -22 -71.5 -33.5t-85.5 -11.5z
M579 0q-61 0 -94.5 13t-50.5 36q-16 21 -23.5 49.5t-7.5 78.5v426l135 -11v-405q0 -22 2.5 -36.5t9.5 -21.5q11 -10 24 -12.5t41 -2.5l-10 -114h-26z" />
    <glyph glyph-name="shagujr" unicode="&#xab6;" horiz-adv-x="742" 
d="M393 0q-39 0 -74.5 10t-70.5 32t-69 58.5t-70 89.5l47 75q45 5 81.5 23.5t58 50t21.5 73.5q0 31 -13 51t-33.5 30t-42.5 10q-27 0 -38 -10t-11 -26q0 -11 7 -21.5t25 -19t50 -14.5l-39 -90q-88 17 -127.5 55.5t-39.5 93.5q0 38 20 68t59 47t95 17q61 0 111 -22t79.5 -66
t29.5 -112q0 -56 -23.5 -101.5t-66.5 -78t-101 -50t-128 -17.5q-34 0 -58 10t-36.5 28.5t-12.5 43.5q0 34 23.5 53t63.5 19q28 0 55.5 -14t60.5 -47l-3 -18q36 -44 65 -69t59.5 -35t67.5 -10h24l-13 -117h-33zM703 0q-61 0 -94.5 13t-50.5 36q-15 21 -23 49.5t-8 78.5v426
l135 -11v-405q0 -22 2.5 -36.5t9.5 -21.5q11 -10 24 -12.5t41 -2.5l-10 -114h-26z" />
    <glyph glyph-name="ssagujr" unicode="&#xab7;" horiz-adv-x="615" 
d="M265 158q-46 0 -79 12.5t-54 33.5q-31 31 -39.5 68t-8.5 92v46q0 24 -3 36t-9 19q-8 10 -21 12t-45 2l10 114h17q33 0 55 -1.5t43.5 -10t51.5 -28.5l186 -125q13 -8 25 -17.5t23 -19t20 -18.5l-12 -78l-121 81q-27 19 -52.5 38t-51.5 41t-57 49l65 -14q4 -16 7 -39.5
t3 -61.5v-16q0 -43 6 -60.5t17 -27.5q8 -7 21 -10t26 -3q47 0 80 21t51 42l-9 -137q-32 -19 -67.5 -29.5t-77.5 -10.5zM575 0q-61 0 -94.5 13t-50.5 36q-15 21 -22.5 49.5t-7.5 78.5v426l134 -11v-405q0 -22 3 -36.5t10 -21.5q11 -10 24 -12.5t41 -2.5l-10 -114h-27z" />
    <glyph glyph-name="sagujr" unicode="&#xab8;" horiz-adv-x="757" 
d="M448 0q-51 0 -95 10t-83.5 33t-77.5 62.5t-78 98.5l25 79q36 4 68 19t52 40.5t20 61.5q0 47 -29 66t-70 19q-31 0 -61 -7t-54 -19l-37 106q37 15 78 24.5t94 9.5q62 0 110 -22.5t76 -66.5t28 -109q0 -51 -20 -93.5t-57 -74.5t-88 -49.5t-114 -17.5q-52 0 -79 22t-27 59
q0 36 24 54.5t61 18.5q28 0 53 -12t57 -44l4 -23q46 -59 84.5 -86t73 -34.5t67.5 -7.5h22l-9 -117h-18zM453 253q-30 0 -61 7.5t-54 22.5l8 127q21 -21 46 -33t62 -12q39 0 68.5 15t51.5 49l18 -122q-28 -29 -60.5 -41.5t-78.5 -12.5zM717 0q-61 0 -94 13.5t-50 35.5
q-16 21 -23.5 49.5t-7.5 78.5v426l134 -11v-405q0 -22 3.5 -36.5t9.5 -21.5q11 -10 24 -12.5t41 -2.5l-10 -114h-27z" />
    <glyph glyph-name="hagujr" unicode="&#xab9;" horiz-adv-x="665" 
d="M412 -9q-100 0 -171.5 25t-116.5 68t-66.5 97.5t-21.5 113.5q0 47 11.5 92t31.5 83l125 -49q-13 -28 -22.5 -60t-9.5 -70q0 -56 27 -98t81 -65t134 -23q53 0 103.5 9.5t96.5 32.5l55 -108q-43 -17 -85 -27.5t-84.5 -15.5t-87.5 -5zM447 157q-65 0 -127 28t-115 95l89 61
q32 -40 71 -61.5t77 -21.5q23 0 35.5 7t12.5 25t-18.5 29t-56.5 24q-70 25 -101 58t-31 79q0 56 45 89.5t131 33.5q32 0 57 -3t48 -8l-21 -98q-21 5 -44.5 7.5t-40.5 2.5q-25 0 -36.5 -5.5t-11.5 -18.5t11 -20.5t48 -19.5q88 -28 119 -64.5t31 -89.5q0 -59 -47.5 -94
t-124.5 -35z" />
    <glyph glyph-name="nuktagujr" unicode="&#xabc;" 
d="M-248 -209q-32 0 -53 21.5t-21 53.5t21 53t53 21q31 0 52 -21t21 -53t-21 -53.5t-52 -21.5z" />
    <glyph glyph-name="avagrahagujr" unicode="&#xabd;" horiz-adv-x="502" 
d="M286 23q-73 0 -145.5 33t-135.5 122l105 62q36 -50 77 -76.5t85 -26.5q26 0 43.5 9t17.5 34q0 13 -5.5 24.5t-23.5 29.5t-56 49q-48 40 -75.5 69.5t-39 56t-11.5 55.5q0 30 11 52t30 38q26 21 63.5 29.5t93.5 8.5h136v-114h-156q-22 0 -28 -1.5t-10 -4.5q-3 -2 -4.5 -5.5
t-1.5 -7.5q0 -10 7.5 -21t27.5 -28t57 -47q42 -33 68.5 -62t39 -60t12.5 -71q0 -68 -48 -107.5t-134 -39.5z" />
    <glyph glyph-name="aavowelsigngujr" unicode="&#xabe;" horiz-adv-x="292" 
d="M252 0q-61 0 -94.5 13t-50.5 36q-15 21 -22.5 49.5t-7.5 78.5v426l134 -11v-405q0 -22 3 -36.5t10 -21.5q11 -10 24 -12.5t41 -2.5l-10 -114h-27z" />
    <glyph glyph-name="ivowelsigngujr" unicode="&#xabf;" horiz-adv-x="292" 
d="M252 0q-61 0 -94.5 13t-50.5 37q-15 21 -22.5 49t-7.5 78v436q0 61 7 102t22.5 69t39.5 51q34 32 80 46.5t99 14.5q65 0 122 -19t111.5 -54.5t109.5 -86.5l-86 -80q-42 39 -82.5 67.5t-81 44t-83.5 15.5q-28 0 -50 -7t-41 -25q-17 -17 -25 -49t-8 -100v-415
q0 -22 3 -36.5t10 -21.5q11 -10 24 -12.5t41 -2.5l-10 -114h-27z" />
    <glyph glyph-name="iivowelsigngujr" unicode="&#xac0;" horiz-adv-x="292" 
d="M252 0q-61 0 -94 13.5t-50 35.5q-18 24 -24.5 54t-6.5 74v420q-7 44 -18 78.5t-25.5 59t-32.5 37t-38 12.5q-28 0 -43.5 -18.5t-15.5 -56.5q0 -12 1 -24.5t3 -24.5l-133 2q-2 14 -3.5 29t-1.5 31q0 83 47 128.5t137 45.5q58 0 102.5 -24.5t76 -65.5t51 -92.5t27.5 -106.5
v-420q0 -22 3 -36.5t10 -21.5q10 -10 23.5 -12.5t41.5 -2.5l-10 -114h-27z" />
    <glyph glyph-name="uvowelsigngujr" unicode="&#xac1;" 
d="M-169 -268q-72 0 -129 20.5t-104.5 58t-92.5 87.5l92 66q42 -46 78.5 -75t72 -42.5t74.5 -13.5q34 0 53 12.5t19 37.5q0 26 -17.5 36t-41.5 10q-20 0 -39 -4.5t-37 -11.5l-34 94q29 11 58 17t57 6q81 0 126.5 -42.5t45.5 -108.5q0 -64 -47.5 -105.5t-133.5 -41.5z" />
    <glyph glyph-name="uuvowelsigngujr" unicode="&#xac2;" 
d="M-203 -268q-54 0 -92.5 20t-59 53t-20.5 72q0 46 22 80t63 53.5t97 19.5q75 0 132.5 -28.5t104.5 -75.5t88 -105l-97 -58q-33 53 -67.5 90t-72 56.5t-80.5 19.5q-33 0 -52.5 -12t-19.5 -38q0 -25 17.5 -35.5t41.5 -10.5q20 0 39 5t37 12l34 -95q-28 -11 -57.5 -17
t-57.5 -6z" />
    <glyph glyph-name="rvocalicvowelsigngujr" unicode="&#xac3;" 
d="M43 -233q-27 -13 -64 -24t-89 -11q-50 0 -90 18.5t-63 52.5t-23 78q0 74 54 116.5t151 48.5v-102q-49 -5 -68 -21.5t-19 -39.5q0 -25 16 -37.5t47 -12.5q24 0 49 7t60 24z" />
    <glyph glyph-name="rrvocalicvowelsigngujr" unicode="&#xac4;" 
d="M-62 -394q-50 0 -89.5 17t-61.5 46.5t-22 68.5q0 26 8.5 48.5t21.5 39.5l21 -51q-43 14 -68.5 45.5t-25.5 72.5q0 65 51.5 104t145.5 43v-96q-46 -5 -63 -17.5t-17 -31.5t14.5 -29.5t46.5 -10.5q26 0 50 7t59 24l35 -90q-26 -13 -61.5 -23.5t-82.5 -10.5q-12 0 -24.5 2
t-24.5 5l53 14q-13 -12 -17.5 -21t-4.5 -20q0 -20 14 -31t47 -11q26 0 50 7t59 24l35 -90q-26 -13 -62.5 -24t-86.5 -11z" />
    <glyph glyph-name="ecandravowelsigngujr" unicode="&#xac5;" 
d="M-137 641q-67 0 -117 23t-92 63.5t-84 93.5l93 61q38 -46 67 -74t60 -40.5t72 -12.5q20 0 32.5 2.5t22.5 6.5l35 -110q-19 -6 -41 -9.5t-48 -3.5z" />
    <glyph glyph-name="evowelsigngujr" unicode="&#xac7;" 
d="M-212 641q-10 52 -25 83.5t-37 46t-56 14.5q-13 0 -28 -1.5t-29 -6.5l-34 105q20 7 46 10.5t55 3.5q34 0 66.5 -8.5t62 -34t55 -76.5t46.5 -136h-122z" />
    <glyph glyph-name="aivowelsigngujr" unicode="&#xac8;" 
d="M-190 641q-11 55 -23 89t-31.5 50t-53.5 16q-16 0 -29.5 -2.5t-24.5 -5.5l-33 94q20 7 46.5 10.5t51.5 3.5q32 0 63 -7.5t58.5 -32.5t49 -76t34.5 -139h-108zM-256 620q-37 27 -65 41t-51.5 19t-47.5 5q-12 0 -25.5 -1.5t-23.5 -4.5l-33 96q20 6 40.5 8t39.5 2
q47 0 82.5 -11.5t68.5 -32.5t69 -52z" />
    <glyph glyph-name="ocandravowelsigngujr" unicode="&#xac9;" horiz-adv-x="292" 
d="M252 0q-61 0 -94.5 13t-50.5 36q-15 21 -22.5 49.5t-7.5 78.5v426l134 -11v-405q0 -22 3 -36.5t10 -21.5q11 -10 24 -12.5t41 -2.5l-10 -114h-27zM155 641q-67 0 -117 23t-92 63.5t-84 93.5l93 61q38 -46 67 -74t60 -40.5t72 -12.5q20 0 32.5 2.5t22.5 6.5l35 -110
q-19 -6 -41 -9.5t-48 -3.5z" />
    <glyph glyph-name="ovowelsigngujr" unicode="&#xacb;" horiz-adv-x="292" 
d="M252 0q-61 0 -94.5 13t-50.5 36q-15 21 -22.5 49.5t-7.5 78.5v426l134 -11v-405q0 -22 3 -36.5t10 -21.5q11 -10 24 -12.5t41 -2.5l-10 -114h-27zM80 641q-10 52 -25 83.5t-37 46t-56 14.5q-13 0 -28 -1.5t-29 -6.5l-34 105q20 7 46 10.5t55 3.5q34 0 66.5 -8.5t62 -34
t55 -76.5t46.5 -136h-122z" />
    <glyph glyph-name="auvowelsigngujr" unicode="&#xacc;" horiz-adv-x="292" 
d="M252 0q-61 0 -94.5 13t-50.5 36q-15 21 -22.5 49.5t-7.5 78.5v426l134 -11v-405q0 -22 3 -36.5t10 -21.5q11 -10 24 -12.5t41 -2.5l-10 -114h-27zM102 641q-11 55 -23 89t-31.5 50t-53.5 16q-16 0 -29.5 -2.5t-24.5 -5.5l-33 94q20 7 46.5 10.5t51.5 3.5q32 0 63 -7.5
t58.5 -32.5t49 -76t34.5 -139h-108zM36 620q-37 27 -65 41t-51.5 19t-47.5 5q-12 0 -25.5 -1.5t-23.5 -4.5l-33 96q20 6 40.5 8t39.5 2q47 0 82.5 -11.5t68.5 -32.5t69 -52z" />
    <glyph glyph-name="viramagujr" unicode="&#xacd;" 
d="M58 -266q-33 43 -61 67t-55 34t-58 10q-17 0 -31.5 -2.5t-23.5 -5.5l-35 109q19 6 42.5 9.5t42.5 3.5q60 0 106 -19.5t85.5 -56.5t77.5 -90z" />
    <glyph glyph-name="omgujr" unicode="&#xad0;" horiz-adv-x="983" 
d="M277 -10q-61 0 -110.5 19.5t-89 54.5t-72.5 81l105 62q38 -52 79.5 -77.5t89.5 -25.5q39 0 61.5 17.5t22.5 52.5q0 26 -14 47t-34 38q-26 -8 -54 -13t-57 -7l-23 112q47 3 85 11.5t61 26t23 44.5q0 28 -20.5 42.5t-66.5 14.5q-37 0 -66 -6.5t-61 -17.5l-36 104
q40 15 82 24t97 9q71 0 116 -21.5t67 -59t22 -85.5q0 -37 -13.5 -66t-37.5 -51q2 -1 4 -3l4 -4q5 -4 11.5 -5.5t12.5 -1.5q19 0 35.5 13.5t38.5 44.5l28 39q24 33 50 59t61 40.5t86 14.5q53 0 95.5 -21.5t67.5 -63.5t25 -106q0 -57 -22.5 -101.5t-67.5 -69.5t-113 -25
q-46 0 -86 14.5t-70 39.5l74 85q19 -14 36.5 -20.5t38.5 -6.5q30 0 52.5 18t22.5 66q0 41 -16 59t-42 18q-27 0 -45.5 -16.5t-35.5 -42.5l-20 -31q-23 -35 -43.5 -60t-47 -38t-66.5 -13q-13 0 -28 3.5t-28 9.5l40 27q7 -20 10.5 -37t3.5 -37q0 -56 -28 -96t-78 -61t-116 -21
zM504 629q-79 0 -138 39.5t-97 128.5l105 39q20 -46 49.5 -75.5t80.5 -29.5q47 0 78.5 28t51.5 77l105 -39q-38 -89 -96.5 -128.5t-138.5 -39.5zM504 766q-28 0 -47.5 19t-19.5 46t19.5 46t47.5 19t47.5 -19t19.5 -46t-19 -46t-48 -19z" />
    <glyph glyph-name="rrvocalicgujr" unicode="&#xae0;" horiz-adv-x="973" 
d="M593 0q-61 0 -94.5 13t-50.5 36q-15 21 -22.5 49.5t-7.5 78.5v426l134 -11v-405q0 -22 3 -36.5t10 -21.5q11 -10 24 -12.5t41 -2.5l-10 -114h-27zM165 111l-74 112l335 191l57 -88zM326 335q-29 39 -56 60t-52.5 29t-51.5 8q-27 0 -53 -6.5t-61 -23.5l-42 106
q40 18 78 28.5t81 10.5q48 0 86 -12.5t76.5 -45.5t86.5 -93zM847 0q-51 0 -90.5 18.5t-62.5 52t-23 77.5q0 59 34.5 95t96.5 53l83 -84q-57 -5 -76.5 -22t-19.5 -40q0 -24 16 -36.5t47 -12.5q24 0 48.5 6.5t60.5 24.5l39 -97q-27 -13 -64 -24t-89 -11zM885 212l-119 11
q-8 23 -21.5 54.5t-34.5 65.5l59 -37q-19 -5 -39 -7.5t-45 -2.5q-33 0 -79.5 13t-84.5 43l16 120q32 -33 67.5 -49.5t67.5 -16.5q17 0 33 2.5t34 7.5l-23 -45q-22 8 -29.5 27.5t-7.5 32.5q0 40 25 59.5t62 19.5q45 0 70.5 -26t25.5 -67q0 -25 -6.5 -43.5t-20.5 -32.5
q17 -31 28.5 -62t21.5 -67z" />
    <glyph glyph-name="llvocalicgujr" unicode="&#xae1;" horiz-adv-x="752" 
d="M634 -43q-43 0 -82.5 15t-65 44t-25.5 72q0 49 28.5 83t83.5 50q5 13 7 25t2 24q0 38 -16.5 55.5t-43.5 17.5q-16 0 -37.5 -10t-41.5 -37.5t-35 -80.5l-124 38q26 101 87.5 151t159.5 50q54 0 95.5 -20.5t65 -59.5t23.5 -95q0 -44 -8.5 -73.5t-25.5 -64.5
q-41 -2 -63.5 -9.5t-30.5 -18t-8 -23.5q0 -19 14 -29.5t47 -10.5q25 0 49.5 7t58.5 25l36 -90q-26 -13 -62.5 -24t-87.5 -11zM197 30q-46 41 -83 83t-58.5 87t-21.5 94q0 61 27 95.5t67.5 49.5t79.5 15q57 0 98.5 -15t85.5 -50l-35 -125q-28 31 -55.5 54.5t-66.5 23.5
q-30 0 -47.5 -17t-17.5 -45q0 -26 14 -52t40.5 -53.5t63.5 -59.5zM677 -198q-50 0 -89 16.5t-61.5 46t-22.5 68.5q0 20 5 37t15 33l120 -31q-12 -10 -17 -18.5t-5 -18.5q0 -19 14 -29.5t47 -10.5q26 0 50 7t58 24l36 -90q-26 -13 -62.5 -23.5t-87.5 -10.5zM456 390v213
l134 -11v-202h-134z" />
    <glyph glyph-name="lvocalicvowelsigngujr" unicode="&#xae2;" 
d="M-28 -394q-61 0 -100.5 31.5t-39.5 80.5q0 51 38.5 83.5t111.5 39.5l-65 -38q8 12 12 28t4 29q0 29 -13 42.5t-34 13.5q-13 0 -30 -8t-33 -29t-28 -61l-106 29q17 56 43.5 91.5t66.5 53t95 17.5q44 0 78.5 -16.5t54 -47.5t19.5 -75q0 -30 -6 -53t-17 -46
q-48 -3 -69.5 -16.5t-21.5 -30.5q0 -18 12 -27t36 -9q19 0 37.5 5.5t46.5 18.5l31 -79q-22 -10 -51.5 -18.5t-71.5 -8.5zM-381 -344q-46 42 -75.5 78.5t-43.5 70.5t-14 68q0 53 23 82.5t56.5 41.5t63.5 12q41 0 75.5 -12t71.5 -40l-55 -72q-16 13 -32.5 22t-37.5 9
q-22 0 -36.5 -13.5t-14.5 -35.5q0 -28 19.5 -59t78.5 -79z" />
    <glyph glyph-name="llvocalicvowelsigngujr" unicode="&#xae3;" 
d="M19 -284q-40 0 -75 10t-57 31.5t-22 54.5q0 38 28 64t80 38l-33 -48q-10 26 -21 38t-33 12q-13 0 -30 -8t-33 -29t-28 -61l-106 29q17 56 44 91.5t67 53t94 17.5q48 0 82 -17t52 -50.5t18 -83.5q-49 -3 -65 -14t-16 -25q0 -16 11.5 -23.5t36.5 -7.5q19 0 38 5t46 19
l31 -71q-21 -10 -53 -17.5t-56 -7.5zM-381 -344q-46 42 -75.5 78.5t-43.5 70t-14 67.5q0 53 23 83t56.5 42t63.5 12q41 0 75.5 -12t71.5 -40l-55 -72q-16 13 -32.5 22t-37.5 9q-24 0 -37.5 -13.5t-13.5 -35.5q0 -28 19.5 -59t78.5 -79zM56 -394q-61 0 -101 27t-40 70
q0 23 14 46l89 -17q-3 -12 -3 -23q0 -16 11.5 -23.5t36.5 -7.5q19 0 38 5.5t46 18.5l31 -71q-22 -9 -51.5 -17t-70.5 -8z" />
    <glyph glyph-name="zerogujr" unicode="&#xae6;" horiz-adv-x="570" 
d="M286 83q-70 0 -124 27t-84 77t-30 119q0 66 30.5 116t84 77.5t122.5 27.5q71 0 124.5 -26.5t83 -76.5t29.5 -119t-31 -118.5t-84.5 -76.5t-120.5 -27zM283 198q31 0 54 13.5t36 38t13 58.5t-12 57t-34.5 35.5t-52.5 12.5t-53.5 -13t-36.5 -37t-13 -59q0 -33 12.5 -56.5
t34.5 -36.5t52 -13z" />
    <glyph glyph-name="onegujr" unicode="&#xae7;" horiz-adv-x="570" 
d="M500 0q-61 0 -94 13.5t-50 35.5q-16 21 -23.5 49.5t-7.5 78.5v213q0 31 -4 52.5t-17 33.5q-7 7 -17.5 11.5t-27.5 4.5q-29 0 -46.5 -15.5t-17.5 -44.5q0 -32 20 -47.5t47 -15.5q42 0 68 14t45 35l17 -124q-33 -16 -64 -25.5t-71 -9.5q-62 0 -105 21.5t-65 61t-22 91.5
q0 46 23 84.5t67 62t107 23.5q43 0 74.5 -9.5t54.5 -26.5q33 -23 50.5 -64.5t17.5 -117.5v-198q0 -22 3 -36.5t10 -21.5q11 -10 24 -12.5t41 -2.5l-10 -114h-27z" />
    <glyph glyph-name="twogujr" unicode="&#xae8;" horiz-adv-x="570" 
d="M444 0q-49 0 -92 15t-84 59.5t-84 131.5v77q40 4 75.5 19.5t57.5 41t22 60.5q0 47 -31 66t-75 19q-36 0 -66.5 -7t-56.5 -19l-37 106q36 15 80 24.5t96 9.5q65 0 116.5 -22.5t81 -66.5t29.5 -109q0 -51 -21.5 -93.5t-61 -74.5t-93.5 -49.5t-120 -17.5q-52 0 -79 22
t-27 59q0 36 23.5 54.5t61.5 18.5q28 0 53 -12t57 -44l26 -23q36 -60 63 -88t48 -35.5t40 -7.5q18 0 37.5 4.5t36.5 14.5l42 -107q-23 -11 -54 -18.5t-64 -7.5z" />
    <glyph glyph-name="threegujr" unicode="&#xae9;" horiz-adv-x="570" 
d="M290 -10q-61 0 -110.5 19.5t-89 54.5t-72.5 81l105 62q38 -52 79.5 -77.5t89.5 -25.5q39 0 61.5 17.5t22.5 52.5q0 37 -26 63.5t-57 46.5v18l101 52q60 -39 89 -84.5t29 -101.5t-28 -96t-78 -61t-116 -21zM217 239l-24 112q47 3 85.5 11.5t61 26t22.5 44.5q0 28 -20 42.5
t-67 14.5q-36 0 -65.5 -6.5t-61.5 -17.5l-36 104q41 15 83 24t97 9q71 0 116 -21.5t67 -59t22 -85.5q0 -49 -23.5 -85t-63.5 -59t-90 -36t-103 -18z" />
    <glyph glyph-name="fourgujr" unicode="&#xaea;" horiz-adv-x="570" 
d="M277 -10q-63 0 -104 22.5t-61.5 60t-20.5 81.5q0 31 8.5 59t32.5 62t69 79q-43 41 -91.5 81t-93.5 74l83 94q53 -44 99.5 -84t87.5 -80q36 35 81 76t100 88l89 -94q-58 -46 -102.5 -83t-82.5 -71q37 -38 56.5 -71t27 -64t7.5 -64q0 -46 -20 -83.5t-60.5 -60t-104.5 -22.5
zM276 101q28 0 42 17.5t14 42.5q0 29 -10.5 54t-39.5 59q-21 -21 -34 -39t-19.5 -35t-6.5 -36q0 -29 14.5 -46t39.5 -17z" />
    <glyph glyph-name="fivegujr" unicode="&#xaeb;" horiz-adv-x="570" 
d="M248 157q-43 0 -75 12t-52 32q-23 23 -34.5 56.5t-11.5 95.5v52q0 23 -3 37t-9 20q-11 11 -23.5 13.5t-29.5 2.5l10 114h14q62 0 95 -13t50 -37q15 -21 22.5 -49t7.5 -78v-52q0 -39 5 -55t15 -25q8 -7 19.5 -9.5t24.5 -2.5q35 0 63 21t44 42v-138q-29 -19 -61.5 -29
t-70.5 -10zM532 0q-61 0 -94 13.5t-50 35.5q-16 21 -23.5 46.5t-7.5 75.5v432l134 -11v-405q0 -22 3 -36.5t10 -21.5q11 -10 24.5 -12.5t32.5 -2.5l-10 -114h-19z" />
    <glyph glyph-name="sixgujr" unicode="&#xaec;" horiz-adv-x="570" 
d="M192 271q-51 38 -81 80.5t-30 94.5q0 46 22.5 81t68.5 55.5t115 20.5q43 0 81 -5t57 -10l-22 -109q-21 4 -46 7t-49 3q-49 0 -70.5 -14.5t-21.5 -40.5q0 -27 20 -50t63 -42zM335 -107q-66 0 -119 19.5t-93.5 51.5t-70.5 70l100 67q39 -46 84 -72t100 -26q24 0 41.5 6.5
t17.5 25.5q0 20 -16 31.5t-60 27.5q-69 26 -104.5 50.5t-47.5 50t-12 54.5q0 54 47.5 89t138.5 35q38 0 64 -2.5t51 -7.5l-24 -106q-21 5 -46.5 7.5t-45.5 2.5q-33 0 -43 -6.5t-10 -17.5q0 -10 13 -19.5t52 -22.5q72 -23 110.5 -48t53.5 -54t15 -63q0 -69 -53.5 -106
t-142.5 -37z" />
    <glyph glyph-name="sevengujr" unicode="&#xaed;" horiz-adv-x="570" 
d="M303 -9q-72 0 -127.5 25.5t-94.5 85t-62 161.5l131 18q19 -89 50.5 -133t89.5 -44q39 0 61.5 21t32.5 63.5t10 107.5q0 39 -6 74t-18 62t-30.5 42.5t-43.5 15.5q-28 0 -42.5 -13.5t-14.5 -38.5q0 -26 17.5 -41t47.5 -21.5t68 -9.5v-113q-80 2 -140 23.5t-93 64t-33 106.5
q0 42 19.5 77.5t60.5 57t105 21.5q69 0 123 -36t85 -107t31 -176q0 -106 -28.5 -170.5t-79.5 -93.5t-119 -29z" />
    <glyph glyph-name="eightgujr" unicode="&#xaee;" horiz-adv-x="570" 
d="M272 -10q-59 0 -108.5 20.5t-79 62t-29.5 105.5q0 34 10.5 66t34 65t61.5 69l242 226l99 -103l-237 -216q-28 -25 -44 -43t-23 -33.5t-7 -34.5q0 -34 25.5 -52t68.5 -18q48 0 91 15.5t87 39.5l53 -105q-37 -18 -72.5 -32.5t-76.5 -23t-95 -8.5z" />
    <glyph glyph-name="ninegujr" unicode="&#xaef;" horiz-adv-x="570" 
d="M357 -10q-96 0 -164.5 36t-104.5 100t-36 149q0 84 39 149.5t111 110.5t170 68l34 -116q-79 -23 -126.5 -53t-68.5 -69.5t-21 -93.5q0 -58 23.5 -95t62.5 -54.5t85 -17.5q47 0 80 8t61 19l46 -108q-35 -13 -82.5 -23t-108.5 -10zM283 202l-34 122l245 60l33 -119z" />
    <glyph glyph-name="uni0AF0" unicode="&#xaf0;" horiz-adv-x="396" 
d="M198 184q-47 0 -84 19.5t-58 54t-21 80.5t21 80.5t58 54t84 19.5t84 -19.5t58 -54t21 -80.5t-21 -80.5t-58 -54t-84 -19.5zM198 274q31 0 49 18t18 46t-18 46t-49 18t-49 -18t-18 -46t18 -46t49 -18z" />
    <glyph glyph-name="uni0AF1" unicode="&#xaf1;" horiz-adv-x="849" 
d="M437 -196q-50 0 -90 11.5t-75.5 38.5t-70 71t-73.5 108l-14 81q22 -4 42 -7t32 -3q45 0 75.5 20t30.5 57t-29.5 64t-70.5 49v38l117 22q61 -39 89.5 -83t28.5 -103q0 -56 -26.5 -96t-80 -60.5t-134.5 -20.5q-90 0 -125 27t-35 65q0 36 24 54t62 18q28 0 53 -13t57 -45
l16 -24q48 -70 83.5 -102t64.5 -41t57 -9h19l-9 -117h-18zM144 239l-23 112q47 3 85 11.5t61 26t23 44.5q0 28 -20.5 42.5t-66.5 14.5q-37 0 -66 -6.5t-61 -17.5l-36 104q27 10 54 17.5t57.5 11.5t67.5 4q71 0 116 -21.5t67 -59t22 -85.5q0 -49 -23.5 -85t-63.5 -59t-90 -36
t-103 -18zM651 -10q-47 0 -84 19.5t-58 54t-21 80.5t21 80.5t58 54t84 19.5t84 -19.5t58 -54t21 -80.5t-21 -80.5t-58 -54t-84 -19.5zM651 80q31 0 49 18t18 46t-18 46t-49 18t-49 -18t-18 -46t18 -46t49 -18z" />
    <glyph glyph-name="zhagujr" unicode="&#xaf9;" horiz-adv-x="889" 
d="M253 75q-25 0 -42.5 17t-17.5 44q0 28 17.5 45.5t42.5 17.5t42.5 -17.5t17.5 -45.5q0 -27 -17.5 -44t-42.5 -17zM163 -42q-26 0 -43 18.5t-17 44.5t17 43.5t43 17.5t42.5 -17.5t16.5 -43.5t-17 -44.5t-42 -18.5zM312 -65q-25 0 -42.5 18.5t-17.5 44.5t17.5 43.5
t42.5 17.5q26 0 42.5 -17.5t16.5 -43.5t-16.5 -44.5t-42.5 -18.5zM604 -10q-70 0 -113.5 26.5t-63 66.5t-19.5 83q0 47 16 89.5t54 86.5t102 95q35 28 74 56t82 56t87 54l73 -103q-41 -25 -79.5 -49t-74.5 -47t-70 -47q-53 -40 -81.5 -70.5t-39.5 -56.5t-11 -56
q0 -38 17.5 -56t46.5 -18q32 0 49.5 19t17.5 53q0 60 -26 104t-85 98q-33 38 -86 64.5t-110.5 41t-105.5 14.5q-52 0 -76 -22.5t-24 -54.5q0 -28 15 -43t41 -15q33 0 47.5 16.5t14.5 48.5q0 20 -4.5 37t-15.5 36l107 17q8 -11 20 -41.5t12 -67.5q0 -25 -8.5 -52.5t-29 -51
t-55.5 -38.5t-89 -15q-61 0 -102.5 22.5t-62.5 60.5t-21 83q0 50 26 93t79.5 69.5t134.5 26.5q128 0 233 -47.5t193 -142.5q60 -60 85.5 -118t25.5 -120q0 -82 -51.5 -133.5t-148.5 -51.5z" />
    <glyph glyph-name="uni0AFA" unicode="&#xafa;" 
d="M-196 609l-48 86q32 11 50 24.5t18 35.5q0 19 -14.5 30t-40.5 11q-20 0 -39 -4t-42 -14l-28 95q29 11 59.5 17t65.5 6q57 0 94 -16.5t55 -45.5t18 -65q0 -46 -18 -76.5t-51.5 -50t-78.5 -33.5z" />
    <glyph glyph-name="uni0AFB" unicode="&#xafb;" 
d="M-171 833q-11 -56 -25 -92.5t-38.5 -54t-65.5 -17.5q-53 0 -85.5 35.5t-37.5 127.5l87 3q2 -51 14 -65t31 -14q23 0 33.5 18t11.5 59h75zM-168 833q2 -41 12.5 -59t32.5 -18q20 0 31 14t14 65l85 -3q-2 -61 -17.5 -97t-42 -51t-61.5 -15q-41 0 -65.5 17.5t-38.5 54
t-25 92.5h75z" />
    <glyph glyph-name="uni0AFC" unicode="&#xafc;" 
d="M-34 870l62 -79q-65 -48 -113 -78.5t-86.5 -47.5t-73.5 -23.5t-73 -6.5q-47 0 -88.5 10.5t-73.5 29.5l49 76q28 -18 57.5 -28t64.5 -10q23 0 37.5 2.5t30.5 7.5l7 -4q-3 -1 -6 -1h-6q-38 0 -72 12t-58 31l54 62q19 -17 42.5 -28t54.5 -11q25 0 45 3.5t40.5 13t45.5 26.5
t60 43z" />
    <glyph glyph-name="uni0AFD" unicode="&#xafd;" 
d="M-254 771q-25 0 -42.5 17t-17.5 44q0 28 17.5 45.5t42.5 17.5t42.5 -17.5t17.5 -45.5q0 -27 -17.5 -44t-42.5 -17zM-332 644q-26 0 -43 18.5t-17 44.5t17 43.5t43 17.5t42.5 -17.5t16.5 -43.5t-17 -44.5t-42 -18.5zM-177 644q-25 0 -42.5 18.5t-17.5 44.5t17.5 43.5
t42.5 17.5q26 0 42.5 -17.5t16.5 -43.5t-16.5 -44.5t-42.5 -18.5z" />
    <glyph glyph-name="uni0AFE" unicode="&#xafe;" 
d="M-372 763q0 51 32.5 80.5t84.5 29.5q53 0 85.5 -29t32.5 -80q0 -52 -32.5 -81.5t-84.5 -29.5t-85 30t-33 80zM-301 762q0 -22 12.5 -34.5t33.5 -12.5t34 13t13 36q0 22 -12.5 34.5t-33.5 12.5q-20 0 -33.5 -13t-13.5 -36z" />
    <glyph glyph-name="uni0AFF" unicode="&#xaff;" 
d="M-485 763q0 51 30.5 80.5t79.5 29.5q50 0 80.5 -29t30.5 -80q0 -52 -30.5 -81.5t-79.5 -29.5t-80 30t-31 80zM-416 762q0 -22 10.5 -34.5t30.5 -12.5t31 13t11 36q0 22 -10.5 34.5t-29.5 12.5q-20 0 -31.5 -13t-11.5 -36zM-245 763q0 51 30.5 80.5t79.5 29.5
q50 0 80.5 -29t30.5 -80q0 -52 -30.5 -81.5t-79.5 -29.5t-80 30t-31 80zM-176 762q0 -22 10.5 -34.5t30.5 -12.5t31 13t11 36q0 22 -10.5 34.5t-29.5 12.5q-20 0 -31.5 -13t-11.5 -36z" />
    <glyph glyph-name="Wgrave" unicode="&#x1e80;" horiz-adv-x="967" 
d="M967 714l-182 -714h-172l-97 375q-3 11 -7.5 33t-10 48t-9.5 49.5t-6 36.5q-1 -13 -5.5 -36.5t-9.5 -49t-10 -48t-8 -34.5l-96 -374h-172l-182 714h149l91 -390q4 -17 9 -41.5t10 -51t9.5 -51.5t6.5 -43q2 19 6 43.5t9 50t9.5 48t8.5 35.5l104 400h143l104 -400
q3 -13 8 -35.5t10 -48.5t9 -50.5t6 -42.5q3 25 9 59.5t13.5 69.5t12.5 58l91 390h149zM470 934q15 -22 35.5 -49.5t42 -53t37.5 -44.5v-13h-99q-19 13 -44.5 32.5t-52 41.5t-49.5 42t-37 34v10h167z" />
    <glyph glyph-name="wgrave" unicode="&#x1e81;" horiz-adv-x="856" 
d="M485 191q-4 17 -11.5 50.5t-16.5 72t-17 71t-11 47.5h-4q-3 -15 -10.5 -47.5t-16.5 -71t-17 -72.5t-12 -52l-44 -189h-160l-155 546h148l63 -242q7 -25 12.5 -60t10.5 -67.5t7 -51.5h4q1 14 4 37.5t7.5 48.5t8 45.5t5.5 27.5l67 262h164l64 -262q4 -14 9.5 -45t10 -63
t4.5 -51h4q2 17 7 49.5t11.5 68.5t13.5 61l65 242h146l-157 -546h-162zM414 766q15 -22 35.5 -49.5t42 -53t37.5 -44.5v-13h-99q-19 13 -44.5 32.5t-52 41.5t-49.5 42t-37 34v10h167z" />
    <glyph glyph-name="Wacute" unicode="&#x1e82;" horiz-adv-x="967" 
d="M967 714l-182 -714h-172l-97 375q-3 11 -7.5 33t-10 48t-9.5 49.5t-6 36.5q-1 -13 -5.5 -36.5t-9.5 -49t-10 -48t-8 -34.5l-96 -374h-172l-182 714h149l91 -390q4 -17 9 -41.5t10 -51t9.5 -51.5t6.5 -43q2 19 6 43.5t9 50t9.5 48t8.5 35.5l104 400h143l104 -400
q3 -13 8 -35.5t10 -48.5t9 -50.5t6 -42.5q3 25 9 59.5t13.5 69.5t12.5 58l91 390h149zM695 924q-14 -14 -37 -34t-49.5 -42t-52 -41.5t-44.5 -32.5h-99v13q16 19 37.5 44.5t42.5 53t35 49.5h167v-10z" />
    <glyph glyph-name="wacute" unicode="&#x1e83;" horiz-adv-x="856" 
d="M485 191q-4 17 -11.5 50.5t-16.5 72t-17 71t-11 47.5h-4q-3 -15 -10.5 -47.5t-16.5 -71t-17 -72.5t-12 -52l-44 -189h-160l-155 546h148l63 -242q7 -25 12.5 -60t10.5 -67.5t7 -51.5h4q1 14 4 37.5t7.5 48.5t8 45.5t5.5 27.5l67 262h164l64 -262q4 -14 9.5 -45t10 -63
t4.5 -51h4q2 17 7 49.5t11.5 68.5t13.5 61l65 242h146l-157 -546h-162zM639 756q-14 -14 -37 -34t-49.5 -42t-52 -41.5t-44.5 -32.5h-99v13q16 19 37.5 44.5t42.5 53t35 49.5h167v-10z" />
    <glyph glyph-name="Wdieresis" unicode="&#x1e84;" horiz-adv-x="967" 
d="M967 714l-182 -714h-172l-97 375q-3 11 -7.5 33t-10 48t-9.5 49.5t-6 36.5q-1 -13 -5.5 -36.5t-9.5 -49t-10 -48t-8 -34.5l-96 -374h-172l-182 714h149l91 -390q4 -17 9 -41.5t10 -51t9.5 -51.5t6.5 -43q2 19 6 43.5t9 50t9.5 48t8.5 35.5l104 400h143l104 -400
q3 -13 8 -35.5t10 -48.5t9 -50.5t6 -42.5q3 25 9 59.5t13.5 69.5t12.5 58l91 390h149zM316 854q0 35 20 50.5t48 15.5t48.5 -15.5t20.5 -50.5q0 -33 -20.5 -49t-48.5 -16t-48 16.5t-20 48.5zM513 854q0 35 20 50.5t49 15.5q28 0 48.5 -15.5t20.5 -50.5q0 -33 -20.5 -49
t-48.5 -16t-48.5 16.5t-20.5 48.5z" />
    <glyph glyph-name="wdieresis" unicode="&#x1e85;" horiz-adv-x="856" 
d="M485 191q-4 17 -11.5 50.5t-16.5 72t-17 71t-11 47.5h-4q-3 -15 -10.5 -47.5t-16.5 -71t-17 -72.5t-12 -52l-44 -189h-160l-155 546h148l63 -242q7 -25 12.5 -60t10.5 -67.5t7 -51.5h4q1 14 4 37.5t7.5 48.5t8 45.5t5.5 27.5l67 262h164l64 -262q4 -14 9.5 -45t10 -63
t4.5 -51h4q2 17 7 49.5t11.5 68.5t13.5 61l65 242h146l-157 -546h-162zM260 686q0 35 20 50.5t48 15.5t48.5 -15.5t20.5 -50.5q0 -33 -20.5 -49t-48.5 -16t-48 16.5t-20 48.5zM457 686q0 35 20 50.5t49 15.5q28 0 48.5 -15.5t20.5 -50.5q0 -33 -20.5 -49t-48.5 -16
t-48.5 16.5t-20.5 48.5z" />
    <glyph glyph-name="uni1E9E" unicode="&#x1e9e;" horiz-adv-x="763" 
d="M379 724q82 0 141.5 -24.5t96 -69t48.5 -105.5l-111 -109q55 -10 95 -35.5t62 -67t22 -100.5q0 -66 -28.5 -116.5t-87 -78.5t-147.5 -28q-54 0 -98.5 9t-85.5 28v128q39 -23 82.5 -34t80.5 -11q71 0 102 29t31 76q0 46 -34.5 72t-114.5 26h-43v105l113 116
q-11 23 -28.5 36.5t-42 20t-55.5 6.5q-49 0 -80.5 -17t-46 -52.5t-14.5 -91.5v-436h-151v452q0 89 36.5 149.5t102.5 91.5t155 31z" />
    <glyph glyph-name="Ygrave" unicode="&#x1ef2;" horiz-adv-x="624" 
d="M312 420l149 294h163l-237 -436v-278h-150v273l-237 441h164zM298 934q15 -22 35.5 -49.5t42 -53t37.5 -44.5v-13h-99q-19 13 -44.5 32.5t-52 41.5t-49.5 42t-37 34v10h167z" />
    <glyph glyph-name="ygrave" unicode="&#x1ef3;" horiz-adv-x="569" 
d="M0 546h163l103 -307q5 -15 8.5 -30t6 -31t3.5 -34h3q3 26 8.5 49.5t12.5 45.5l101 307h160l-231 -616q-21 -56 -54.5 -94t-77.5 -57t-96 -19q-25 0 -43.5 2.5t-32.5 5.5v118q11 -2 26.5 -4t32.5 -2q31 0 53.5 13t37.5 35.5t24 48.5l9 27zM271 766q15 -22 35.5 -49.5
t42 -53t37.5 -44.5v-13h-99q-19 13 -44.5 32.5t-52 41.5t-49.5 42t-37 34v10h167z" />
    <glyph glyph-name="uni200B" unicode="&#x200b;" 
 />
    <glyph glyph-name="uni200C" unicode="&#x200c;" 
d="M-26 -166v954h52v-954h-52z" />
    <glyph glyph-name="uni200D" unicode="&#x200d;" 
d="M-26 -165v750l-83 -82l-37 36l110 107l-110 106l37 36l109 -108l109 108l37 -37l-110 -105l110 -107l-37 -36l-83 82v-750h-52z" />
    <glyph glyph-name="uni2010" unicode="&#x2010;" horiz-adv-x="366" 
d="M52 236v122h262v-122h-262z" />
    <glyph glyph-name="endash" unicode="&#x2013;" horiz-adv-x="500" 
d="M40 213v112h420v-112h-420z" />
    <glyph glyph-name="emdash" unicode="&#x2014;" horiz-adv-x="1000" 
d="M40 213v112h920v-112h-920z" />
    <glyph glyph-name="quoteleft" unicode="&#x2018;" horiz-adv-x="217" 
d="M12 480q9 36 23 76t30.5 81t32.5 77h107q-9 -39 -18.5 -83t-17.5 -85.5t-13 -76.5h-137z" />
    <glyph glyph-name="quoteright" unicode="&#x2019;" horiz-adv-x="217" 
d="M205 703q-9 -35 -23 -75.5t-30 -81t-33 -77.5h-107q7 30 14 62t13.5 64.5t12 62.5t9.5 56h137z" />
    <glyph glyph-name="quotesinglbase" unicode="&#x201a;" horiz-adv-x="285" 
d="M224 105q-9 -35 -23 -75.5t-30 -81t-33 -77.5h-107q7 30 14 62t13.5 64.5t12 62.5t9.5 56h137z" />
    <glyph glyph-name="quotedblleft" unicode="&#x201c;" horiz-adv-x="445" 
d="M433 714q-9 -39 -18.5 -83t-17.5 -85.5t-13 -76.5h-137l-7 11q9 36 23 76t30.5 81t32.5 77h107zM205 714q-9 -39 -18.5 -83t-17.5 -85.5t-13 -76.5h-137l-7 11q9 36 23 76t30.5 81t32.5 77h107z" />
    <glyph glyph-name="quotedblright" unicode="&#x201d;" horiz-adv-x="445" 
d="M433 703q-9 -35 -23 -75.5t-30 -81t-33 -77.5h-107q10 40 19 83.5t17 85.5t13 76h137zM205 703q-9 -35 -23 -75.5t-30 -81t-33 -77.5h-107q7 30 14 62t13.5 64.5t12 62.5t9.5 56h137z" />
    <glyph glyph-name="quotedblbase" unicode="&#x201e;" horiz-adv-x="513" 
d="M452 105q-9 -35 -23 -75.5t-30 -81t-33 -77.5h-107q10 40 19 83.5t17 85.5t13 76h137zM224 105q-9 -35 -23 -75.5t-30 -81t-33 -77.5h-107q7 30 14 62t13.5 64.5t12 62.5t9.5 56h137z" />
    <glyph glyph-name="bullet" unicode="&#x2022;" horiz-adv-x="376" 
d="M48 365q0 56 18.5 90t50.5 49.5t71 15.5t70.5 -15.5t50.5 -49.5t19 -90q0 -55 -19 -89t-50.5 -50t-70.5 -16t-71 16t-50.5 50t-18.5 89z" />
    <glyph glyph-name="ellipsis" unicode="&#x2026;" horiz-adv-x="855" 
d="M57 70q0 46 25 64.5t61 18.5q35 0 60 -18.5t25 -64.5q0 -44 -25 -63.5t-60 -19.5q-36 0 -61 19.5t-25 63.5zM342 70q0 46 25 64.5t61 18.5q35 0 60 -18.5t25 -64.5q0 -44 -25 -63.5t-60 -19.5q-36 0 -61 19.5t-25 63.5zM627 70q0 46 25 64.5t61 18.5q35 0 60 -18.5
t25 -64.5q0 -44 -25 -63.5t-60 -19.5q-36 0 -61 19.5t-25 63.5z" />
    <glyph glyph-name="guilsinglleft" unicode="&#x2039;" horiz-adv-x="368" 
d="M40 280l181 222l107 -58l-136 -170l136 -170l-107 -58l-181 221v13z" />
    <glyph glyph-name="guilsinglright" unicode="&#x203a;" horiz-adv-x="368" 
d="M147 502l181 -222v-13l-181 -221l-107 58l136 170l-136 170z" />
    <glyph glyph-name="Euro" unicode="&#x20ac;" horiz-adv-x="572" 
d="M392 719q50 0 91.5 -10t80.5 -30l-48 -113q-34 15 -63 23.5t-61 8.5q-30 0 -54.5 -8.5t-43.5 -25.5t-31.5 -42t-18.5 -58h197v-86h-204q0 -4 -0.5 -10.5t-0.5 -15.5v-14.5t1 -15.5h173v-87h-165q8 -39 28.5 -65.5t53 -40t75.5 -13.5q38 0 71.5 7.5t62.5 20.5v-125
q-28 -14 -62.5 -21.5t-80.5 -7.5q-78 0 -139 28.5t-101 83.5t-54 133h-67v87h58q-1 5 -1.5 14t-0.5 16v15t1 11h-57v86h65q13 80 53 137t102 87.5t140 30.5z" />
    <glyph glyph-name="uni20B9.gujr" unicode="&#x20b9;" horiz-adv-x="570" 
d="M516 521h-189q14 -10 24.5 -28t16.5 -39.5t6 -45.5q0 -50 -21 -89.5t-61 -65t-97 -36.5v20l211 -237h-165l-180 212l18 96h26q45 0 70.5 6t40.5 21q14 14 20.5 34.5t6.5 47.5q0 30 -7.5 48.5t-20.5 31.5q-13 14 -34.5 19t-61.5 5h-58v101h455v-101zM61 469h455v-101h-455
v101z" />
    <glyph glyph-name="trademark" unicode="&#x2122;" horiz-adv-x="773" 
d="M325 362v352h94l94 -271l97 271h91v-352h-64v204q0 8 1 31.5t2 35.5h-4l-101 -271h-53l-96 271h-4q1 -16 2 -36t1 -26v-209h-60zM118 362v298h-101v54h266v-54h-102v-298h-63z" />
    <glyph glyph-name="minus" unicode="&#x2212;" horiz-adv-x="322" 
d="M30 207v122h262v-122h-262z" />
    <glyph glyph-name="uni25CC" unicode="&#x25cc;" horiz-adv-x="510" 
d="M384 407q-29 0 -29 29t29 29t29 -29t-29 -29zM125 158q-28 0 -28 29t28 29q29 0 29 -29t-29 -29zM81 283q-29 0 -29 29q0 28 29 28q28 0 28 -28q0 -29 -28 -29zM254 108q-28 0 -28 29t28 29q30 0 30 -29t-30 -29zM125 407q-28 0 -28 29t28 29q29 0 29 -29t-29 -29z
M384 158q-29 0 -29 29t29 29t29 -29t-29 -29zM254 457q-28 0 -28 29q0 28 28 28q30 0 30 -28q0 -29 -30 -29zM429 283q-29 0 -29 29q0 28 29 28t29 -28q0 -29 -29 -29z" />
    <glyph glyph-name="uniA830" unicode="&#xa830;" horiz-adv-x="285" 
d="M75 0v622h134v-622h-134z" />
    <glyph glyph-name="uniA831" unicode="&#xa831;" horiz-adv-x="495" 
d="M286 0v622h134v-622h-134zM75 0v622h134v-622h-134z" />
    <glyph glyph-name="uniA832" unicode="&#xa832;" horiz-adv-x="706" 
d="M497 0v622h134v-622h-134zM75 0v622h134v-622h-134zM286 0v622h134v-622h-134z" />
    <glyph glyph-name="uniA833" unicode="&#xa833;" horiz-adv-x="626" 
d="M67 378l-31 123l523 131l31 -123z" />
    <glyph glyph-name="uniA834" unicode="&#xa834;" horiz-adv-x="626" 
d="M67 378l-31 123l523 131l31 -123zM67 188l-31 124l523 130l31 -123z" />
    <glyph glyph-name="uniA835" unicode="&#xa835;" horiz-adv-x="626" 
d="M67 378l-31 123l523 131l31 -123zM67 -1l-31 123l523 131l31 -124zM67 188l-31 124l523 130l31 -123z" />
    <glyph glyph-name="uniA836" unicode="&#xa836;" horiz-adv-x="476" 
d="M238 151q-49 0 -90 20.5t-65 58.5t-24 91q0 48 22.5 86t62.5 60t94 22q51 0 91.5 -21t64 -58.5t23.5 -88.5q0 -50 -23.5 -88.5t-64 -60t-91.5 -21.5zM238 250q32 0 53 20t21 51q0 30 -21 50t-53 20q-34 0 -54 -20.5t-20 -49.5q0 -32 21.5 -51.5t52.5 -19.5z" />
    <glyph glyph-name="uniA837" unicode="&#xa837;" horiz-adv-x="525" 
d="M233 68q-49 0 -90 20.5t-65 58.5t-24 91q0 30 8 53t26 44.5t48 44.5l314 243l74 -89l-92 -73q-39 -31 -84.5 -63t-91.5 -60t-85 -48l-4 104q17 4 33.5 6.5t32.5 2.5q79 0 129 -44.5t50 -120.5q0 -50 -23.5 -88.5t-64 -60t-91.5 -21.5zM233 167q32 0 53 20t21 51
q0 30 -21 50t-53 20q-34 0 -54 -20.5t-20 -49.5q0 -32 21.5 -51.5t52.5 -19.5z" />
    <glyph glyph-name="uniA838" unicode="&#xa838;" horiz-adv-x="343" 
d="M-139 -104q23 -5 44 -8t44 -3q80 0 124.5 34.5t62.5 100.5t18 160q0 78 -9.5 157t-24 151t-30.5 127l135 18q14 -46 25.5 -102.5t20.5 -117.5t14 -121.5t5 -114.5q0 -82 -12.5 -155.5t-47.5 -129t-102 -87.5t-176 -32q-22 0 -49 3.5t-50 7.5z" />
    <glyph glyph-name="uniA839" unicode="&#xa839;" horiz-adv-x="357" 
d="M-143 -133q10 -1 22.5 -2t28.5 -1q72 0 121.5 14t79 38t42.5 55t13 65q0 52 -17 97.5t-38.5 88.5t-38.5 88.5t-17 97.5q0 64 34 108t93.5 72.5t135.5 43.5l41 -114q-54 -11 -92 -26.5t-57.5 -36t-19.5 -49.5q0 -35 17 -73.5t39 -84t39 -99t17 -118.5q0 -39 -11 -79
t-36.5 -76t-69 -64.5t-109 -45t-157.5 -16.5q-17 0 -35.5 1t-28.5 2z" />
    <glyph glyph-name="kanuktagujr" horiz-adv-x="541" 
d="M260 -10q-68 0 -129.5 17t-111.5 48l63 97q41 -22 81 -35t86 -13q49 0 77 16t28 47q0 16 -9 32t-34.5 33t-76.5 36l-25 31q-31 19 -59 41.5t-45.5 50.5t-17.5 63q0 68 59 108t157 40q26 0 56 -2.5t60 -10.5l-23 -109q-28 6 -47.5 8t-39.5 2q-49 0 -67.5 -14.5
t-18.5 -34.5q0 -16 12.5 -29.5t36 -26.5t55.5 -29l9 -20q45 -20 80 -44t55 -56.5t20 -80.5q0 -41 -21.5 -79t-72 -62t-137.5 -24zM77 188l-45 107l186 62l263 95l47 -108l-202 -67zM271 -209q-32 0 -53 21.5t-21 53.5t21 53t53 21q31 0 52 -21t21 -53t-21 -53.5t-52 -21.5z
" />
    <glyph glyph-name="khanuktagujr" horiz-adv-x="810" 
d="M279 157q-54 0 -88.5 13.5t-56.5 33.5q-26 25 -38 59.5t-12 99.5v42q0 23 -3.5 36.5t-9.5 20.5q-10 11 -23 13.5t-42 2.5l10 114h27q62 0 95 -13t50 -37q15 -21 22.5 -49t7.5 -78v-55q0 -34 5 -49t14 -24t21.5 -12.5t22.5 -3.5q19 0 31 4.5t22 14.5q11 11 15.5 29t4.5 49
v119l135 -10v-109q0 -70 -23 -117t-69.5 -70.5t-117.5 -23.5zM529 253q-40 0 -71 21t-47 60l65 75q8 -19 22 -30.5t31 -11.5q26 0 48.5 14t45.5 45l15 -122q-22 -26 -49 -38.5t-60 -12.5zM771 0q-62 0 -95 13.5t-50 35.5q-16 21 -23.5 49.5t-7.5 78.5v426l134 -11v-405
q0 -22 3 -36.5t10 -21.5q11 -10 24 -12.5t41 -2.5l-10 -114h-26zM297 -57q-32 0 -53 21.5t-21 53.5t21 53t53 21q31 0 52 -21t21 -53t-21 -53.5t-52 -21.5z" />
    <glyph glyph-name="ganuktagujr" horiz-adv-x="713" 
d="M228 166q-49 0 -89 16t-73 46.5t-61 73.5l99 58q23 -35 48.5 -57t62.5 -22q32 0 54 20t22 78q0 62 -24.5 86.5t-70.5 24.5q-30 0 -56.5 -6.5t-49.5 -17.5l-37 103q32 14 71 24t88 10q68 0 115.5 -27.5t72.5 -78.5t25 -121q0 -60 -16.5 -100.5t-45 -64.5t-63.5 -34.5
t-72 -10.5zM673 0q-61 0 -94 13.5t-50 35.5q-16 21 -23.5 51t-7.5 77v426l134 -11v-405q0 -22 3 -36.5t10 -21.5q11 -10 24 -12.5t41 -2.5l-10 -114h-27zM245 -47q-32 0 -53 21.5t-21 53.5t21 53t53 21q31 0 52 -21t21 -53t-21 -53.5t-52 -21.5z" />
    <glyph glyph-name="ghanuktagujr" horiz-adv-x="658" 
d="M271 103q-52 0 -96.5 18t-71.5 53.5t-27 86.5q0 47 24 81.5t67 54t100 19.5q23 0 42 -2.5t34 -5.5l-17 -109q-9 2 -22.5 4t-32.5 2q-31 0 -47.5 -11.5t-16.5 -31.5q0 -26 21.5 -36.5t52.5 -10.5q44 0 86.5 18.5t82.5 55.5v-137q-33 -22 -74 -35.5t-105 -13.5zM141 312
q-37 22 -60.5 46.5t-35 52t-11.5 57.5q0 41 21.5 71t63.5 47t101 17q33 0 61.5 -3.5t47.5 -8.5l-22 -106q-16 3 -33.5 4.5t-36.5 1.5q-36 0 -53 -11.5t-17 -31.5q0 -22 17.5 -37.5t54.5 -27.5zM618 0q-61 0 -94 13.5t-50 35.5q-16 21 -23.5 49.5t-7.5 78.5v426l134 -11v-405
q0 -22 3 -36.5t10 -21.5q11 -10 24 -12.5t41 -2.5l-10 -114h-27zM250 -111q-32 0 -53 21.5t-21 53.5t21 53t53 21q31 0 52 -21t21 -53t-21 -53.5t-52 -21.5z" />
    <glyph glyph-name="nganuktagujr" horiz-adv-x="543" 
d="M461 338q-30 0 -49.5 20.5t-19.5 50.5t19.5 50t49.5 20q29 0 48.5 -20t19.5 -50t-19.5 -50.5t-48.5 -20.5zM287 -10q-98 0 -165.5 43t-116.5 112l105 62q38 -52 79.5 -77.5t89.5 -25.5q39 0 60 15t21 46q0 21 -10 38t-33 33.5t-62 36.5q-59 31 -91 60t-44 59t-12 63
q0 62 51.5 105t144.5 43q39 0 66 -3.5t53 -8.5l-25 -112q-21 5 -44 8.5t-46 3.5q-34 0 -49.5 -9.5t-15.5 -27.5q0 -14 7 -24.5t26.5 -22.5t57.5 -32q65 -33 100.5 -65t49.5 -66.5t14 -75.5q0 -79 -55 -128.5t-156 -49.5zM272 -209q-32 0 -53 21.5t-21 53.5t21 53t53 21
q31 0 52 -21t21 -53t-21 -53.5t-52 -21.5z" />
    <glyph glyph-name="canuktagujr" horiz-adv-x="707" 
d="M346 112q-46 0 -89 12.5t-81 41t-72 77.5l18 82l12 3q53 8 84.5 29.5t31.5 65.5q0 33 -24 51t-66 18q-22 0 -47 -4.5t-51 -15.5l-38 100q35 14 72 22.5t74 8.5q67 0 113.5 -22.5t71.5 -62.5t25 -95q0 -63 -32.5 -109t-90 -71t-131.5 -25q-31 0 -53.5 10t-34.5 29t-12 44
q0 31 22 51t59 20q32 0 59 -12.5t53 -43.5l-13 -39q26 -31 64 -41.5t76 -10.5q31 0 58 9t50.5 25.5t43.5 39.5l16 -134q-28 -20 -68.5 -36.5t-99.5 -16.5zM667 0q-61 0 -94.5 13t-50.5 36q-15 21 -22.5 49.5t-7.5 78.5v426l134 -11v-405q0 -22 3 -36.5t10 -21.5
q11 -10 24 -12.5t41 -2.5l-10 -114h-27zM262 -91q-32 0 -53 21.5t-21 53.5t21 53t53 21q31 0 52 -21t21 -53t-21 -53.5t-52 -21.5z" />
    <glyph glyph-name="chanuktagujr" horiz-adv-x="782" 
d="M333 -10q-94 0 -152 26t-84.5 70t-26.5 97q0 56 29 99t81.5 67.5t123.5 24.5q15 0 31 -1t28 -3l-15 -111q-10 2 -21 2h-20q-46 0 -73.5 -19t-27.5 -54q0 -41 30.5 -62.5t95.5 -21.5q75 0 129 25t88.5 65.5t51 88t16.5 92.5q0 48 -11 73.5t-27.5 35.5t-33.5 10
q-28 0 -39.5 -16.5t-11.5 -35.5q0 -23 21.5 -45.5t82.5 -34.5l-38 -111q-49 12 -91.5 35.5t-69 63t-26.5 99.5q0 41 19 76t57.5 56.5t95.5 21.5q36 0 72.5 -11.5t67 -37.5t49 -71t18.5 -112q0 -77 -26 -145.5t-78.5 -121.5t-131 -83.5t-183.5 -30.5zM146 271
q-36 25 -61 52.5t-38 58t-13 64.5q0 48 22.5 83t64.5 54.5t102 19.5q31 0 59 -3.5t47 -8.5l-22 -109q-15 4 -31.5 5.5t-29.5 1.5q-36 0 -56 -14.5t-20 -40.5q0 -27 20 -50t62 -42zM392 -209q-32 0 -53 21.5t-21 53.5t21 53t53 21q31 0 52 -21t21 -53t-21 -53.5t-52 -21.5z
" />
    <glyph glyph-name="januktagujr" horiz-adv-x="889" 
d="M604 -10q-70 0 -113.5 26.5t-63 66.5t-19.5 83q0 47 16 89.5t54 86.5t102 95q35 28 74 56t82 56t87 54l73 -103q-41 -25 -79.5 -49t-74.5 -47t-70 -47q-53 -40 -81.5 -70.5t-39.5 -56.5t-11 -56q0 -38 17.5 -56t46.5 -18q32 0 49.5 19t17.5 53q0 60 -26 104t-85 98
q-33 38 -86 64.5t-110.5 41t-105.5 14.5q-52 0 -76 -22.5t-24 -54.5q0 -28 15 -43t41 -15q33 0 47.5 16.5t14.5 48.5q0 20 -4.5 37t-15.5 36l107 17q8 -11 20 -41.5t12 -67.5q0 -25 -8.5 -52.5t-29 -51t-55.5 -38.5t-89 -15q-61 0 -102.5 22.5t-62.5 60.5t-21 83q0 50 26 93
t79.5 69.5t134.5 26.5q128 0 233 -47.5t193 -142.5q60 -60 85.5 -118t25.5 -120q0 -82 -51.5 -133.5t-148.5 -51.5zM607 -209q-32 0 -53 21.5t-21 53.5t21 53t53 21q31 0 52 -21t21 -53t-21 -53.5t-52 -21.5z" />
    <glyph glyph-name="jhanuktagujr" horiz-adv-x="754" 
d="M244 -10q-79 0 -133.5 36t-100.5 103l100 60q32 -42 58 -62.5t64 -20.5q24 0 43.5 11t31 39t11.5 78q0 74 -27.5 109t-77.5 35q-34 0 -64 -7.5t-51 -17.5l-37 105q33 15 74 24.5t93 9.5q72 0 122.5 -31.5t77 -89.5t26.5 -139q0 -72 -18.5 -119t-49.5 -74t-68 -38t-74 -11
zM614 -10l-99 89q29 24 51.5 56t22.5 75t-22.5 66t-63.5 23q-34 0 -60 -16.5t-50 -36.5l-44 118q30 22 71.5 35t94.5 13q66 0 112.5 -24.5t71 -68t24.5 -101.5q0 -67 -25 -121t-84 -107zM474 341v262l134 -11v-251h-134zM377 -209q-32 0 -53 21.5t-21 53.5t21 53t53 21
q31 0 52 -21t21 -53t-21 -53.5t-52 -21.5z" />
    <glyph glyph-name="nyanuktagujr" horiz-adv-x="741" 
d="M228 166q-49 0 -89 16t-73 46.5t-61 73.5l99 58q23 -35 48.5 -57t62.5 -22q32 0 54 20t22 78q0 60 -23.5 85.5t-71.5 25.5q-30 0 -56.5 -6.5t-49.5 -17.5l-37 103q32 14 71 24t88 10q68 0 115 -27.5t71.5 -78.5t24.5 -121q0 -60 -16.5 -100.5t-44.5 -64.5t-62.5 -34.5
t-71.5 -10.5zM437 309q-31 0 -61 7.5t-53 24.5l7 127q20 -22 45.5 -35t59.5 -13q45 0 73 18t50 52l18 -130q-28 -25 -60 -38t-79 -13zM702 0q-61 0 -94.5 13t-50.5 36q-15 21 -23 51t-8 77v426l135 -11v-405q0 -22 2.5 -36.5t9.5 -21.5q11 -10 24 -12.5t41 -2.5l-9 -114h-27
zM245 -47q-32 0 -53 21.5t-21 53.5t21 53t53 21q31 0 52 -21t21 -53t-21 -53.5t-52 -21.5z" />
    <glyph glyph-name="ttanuktagujr" horiz-adv-x="488" 
d="M261 -10q-74 0 -124.5 22.5t-76.5 63.5t-26 94q0 69 45.5 115t131.5 89q42 21 64 34t30.5 23t8.5 23q0 20 -17.5 28.5t-43.5 8.5q-40 0 -75.5 -7.5t-64.5 -19.5l-38 106q41 14 86.5 23.5t96.5 9.5q64 0 106 -18.5t63 -51t21 -75.5q0 -40 -15 -70.5t-51.5 -58
t-101.5 -61.5q-41 -21 -65 -37t-34 -30.5t-10 -33.5q0 -37 26.5 -50t63.5 -13q56 0 103 14.5t80 33.5l53 -106q-54 -24 -108.5 -40t-127.5 -16zM244 -209q-32 0 -53 21.5t-21 53.5t21 53t53 21q31 0 52 -21t21 -53t-21 -53.5t-52 -21.5z" />
    <glyph glyph-name="tthanuktagujr" horiz-adv-x="550" 
d="M282 -10q-80 0 -135.5 25.5t-84.5 71t-29 104.5q0 62 33.5 106t90 68.5t123.5 24.5l96 -54l5 -59q-22 5 -42.5 6.5t-31.5 1.5q-44 0 -75 -12t-47.5 -33t-16.5 -50q0 -43 30.5 -64.5t81.5 -21.5q47 0 78.5 18.5t31.5 58.5q0 24 -11 43t-38 39.5t-76 47.5l-37 25
q-39 28 -60 61.5t-21 73.5q0 33 19 63.5t59.5 49.5t104.5 19q33 0 62.5 -3.5t57.5 -8.5l-25 -112q-23 7 -46 10t-43 3q-31 0 -45 -7t-14 -21q0 -9 5.5 -17t20 -17.5t41.5 -24.5q71 -37 110 -74t55 -75.5t16 -82.5q0 -85 -63.5 -134t-179.5 -49zM275 -209q-32 0 -53 21.5
t-21 53.5t21 53t53 21q31 0 52 -21t21 -53t-21 -53.5t-52 -21.5z" />
    <glyph glyph-name="ddanuktagujr" horiz-adv-x="522" 
d="M287 -10q-98 0 -165.5 43t-116.5 112l105 62q38 -52 79.5 -77.5t89.5 -25.5q39 0 60 15t21 46q0 21 -10 38t-33 33.5t-62 36.5q-59 31 -91 60t-44 59t-12 63q0 62 51.5 105t144.5 43q39 0 66 -3.5t53 -8.5l-25 -112q-21 5 -44 8.5t-46 3.5q-34 0 -49.5 -9.5t-15.5 -27.5
q0 -14 7 -24.5t26.5 -22.5t57.5 -32q65 -33 100.5 -65t49.5 -66.5t14 -75.5q0 -79 -55 -128.5t-156 -49.5zM262 -209q-32 0 -53 21.5t-21 53.5t21 53t53 21q31 0 52 -21t21 -53t-21 -53.5t-52 -21.5z" />
    <glyph glyph-name="ddhanuktagujr" horiz-adv-x="546" 
d="M302 -10q-86 0 -146 24t-91 65.5t-31 96.5q0 74 45.5 118t124.5 81l34 16q26 12 43 21.5t25.5 20.5t8.5 25q0 17 -15.5 25t-41.5 8q-30 0 -64 -6t-63 -18l-38 106q36 12 79.5 21t88.5 9q94 0 141 -37.5t47 -103.5q0 -35 -12.5 -62.5t-43 -51.5t-84.5 -51l-59 -29
q-50 -25 -66 -45t-16 -47q0 -33 27 -56t77 -23h53q47 0 71.5 13.5t24.5 38.5q0 16 -10 26.5t-29 10.5q-18 0 -33 -11t-15 -35q0 -26 9.5 -46.5t27.5 -41.5l-100 -15q-22 35 -31.5 66.5t-9.5 57.5q0 57 44 90t108 33q75 0 114.5 -39.5t39.5 -98.5q0 -51 -29 -86t-81.5 -52.5
t-123.5 -17.5zM273 -209q-32 0 -53 21.5t-21 53.5t21 53t53 21q31 0 52 -21t21 -53t-21 -53.5t-52 -21.5z" />
    <glyph glyph-name="nnanuktagujr" horiz-adv-x="901" 
d="M442 -160l-102 75q17 14 24.5 28t7.5 24q0 12 -5.5 22t-17.5 19t-32 18l-124 56q-53 24 -80.5 47t-36.5 57t-9 91v326l135 -11v-299q0 -29 3 -49t16.5 -35t46.5 -29l107 -46q81 -34 110 -70t29 -82q0 -44 -20.5 -75.5t-51.5 -66.5zM445 198q-43 0 -80 15t-68 43t-55 68
l91 59q20 -30 41.5 -50.5t52.5 -20.5t47 17.5t16 66.5q0 53 -20.5 74.5t-56.5 21.5q-25 0 -44.5 -5t-45.5 -15l-38 99q29 13 65 22.5t83 9.5q60 0 102.5 -26t65.5 -72.5t23 -110.5q0 -55 -15 -92.5t-40 -60.5t-57 -33t-67 -10zM862 0q-61 0 -94.5 13t-50.5 36
q-15 21 -22.5 49.5t-7.5 78.5v426l134 -11v-405q0 -19 2.5 -32t6.5 -21q8 -14 24.5 -17t43.5 -3l-9 -114h-27zM226 -209q-32 0 -53 21.5t-21 53.5t21 53t53 21q31 0 52 -21t21 -53t-21 -53.5t-52 -21.5z" />
    <glyph glyph-name="tanuktagujr" horiz-adv-x="621" 
d="M198 10q-51 42 -88 82t-56.5 82.5t-19.5 90.5q0 45 15.5 78t42.5 54q32 25 75.5 36t116.5 11h142v-114h-123q-32 0 -53.5 -2t-35.5 -7.5t-24 -14.5t-15 -21t-5 -29q0 -29 12.5 -53t38.5 -49.5t66 -58.5zM581 0q-61 0 -94.5 13t-50.5 36q-15 21 -22.5 49.5t-7.5 78.5v426
l134 -11v-405q0 -22 3 -36.5t10 -21.5q11 -10 24 -12.5t41 -2.5l-10 -114h-27zM252 -195q-32 0 -53 21.5t-21 53.5t21 53t53 21q31 0 52 -21t21 -53t-21 -53.5t-52 -21.5z" />
    <glyph glyph-name="thanuktagujr" horiz-adv-x="688" 
d="M298 135q-64 0 -113 23t-83 65.5t-56 101.5q54 15 99 36t71.5 48.5t26.5 59.5q0 18 -10.5 29.5t-30.5 11.5q-18 0 -28.5 -9.5t-10.5 -25.5q0 -12 6.5 -23.5t19.5 -21.5l-105 -54q-25 20 -38 46.5t-13 58.5q0 31 18.5 58.5t56 45.5t92.5 18q53 0 86.5 -13.5t51.5 -34
t25 -43.5t7 -43q0 -51 -24 -89t-64 -65.5t-90 -47.5l-16 54q25 -34 54.5 -53t79.5 -19q53 0 97.5 22.5t72.5 56.5l14 -134q-41 -29 -88 -44t-108 -15zM648 0q-61 0 -94.5 13t-50.5 36q-15 21 -22.5 49.5t-7.5 78.5v426l134 -11v-405q0 -22 3 -36.5t10 -21.5q11 -10 24 -12.5
t41 -2.5l-10 -114h-27zM262 -80q-32 0 -53 21.5t-21 53.5t21 53t53 21q31 0 52 -21t21 -53t-21 -53.5t-52 -21.5z" />
    <glyph glyph-name="danuktagujr" horiz-adv-x="506" 
d="M313 -10q-84 0 -138 26t-79.5 68.5t-25.5 93.5q0 58 29 102t85 69t137 25q13 0 36 -2t41 -6l-21 -111q-14 2 -31.5 4t-31.5 2q-34 0 -58.5 -9t-37 -27t-12.5 -45q0 -23 13 -41t36.5 -28t56.5 -10q31 0 52 5t35 11l-28 -62q-8 16 -12.5 29t-4.5 30q0 37 22.5 55t54.5 18
q39 0 58.5 -24t19.5 -53q0 -36 -22.5 -63t-66 -42t-107.5 -15zM146 271q-54 38 -83 80.5t-29 94.5q0 48 22.5 83t66.5 54.5t110 19.5q36 0 70.5 -4.5t53.5 -9.5l-22 -109q-19 4 -40.5 6.5t-39.5 2.5q-45 0 -65 -14.5t-20 -40.5q0 -27 20 -50t62 -42zM253 -209
q-32 0 -53 21.5t-21 53.5t21 53t53 21q31 0 52 -21t21 -53t-21 -53.5t-52 -21.5z" />
    <glyph glyph-name="dhanuktagujr" horiz-adv-x="648" 
d="M264 103q-49 0 -92 18t-69.5 53.5t-26.5 86.5q0 47 24 81.5t67 54t99 19.5q23 0 42.5 -2.5t34.5 -5.5l-17 -109q-10 2 -23.5 4t-31.5 2q-32 0 -48 -11.5t-16 -31.5q0 -26 21 -36.5t52 -10.5q41 0 79.5 18.5t78.5 55.5v-137q-33 -22 -71 -35.5t-103 -13.5zM141 312
q-37 22 -60.5 46.5t-35 52t-11.5 57.5q0 60 46 107t147 75l48 -109q-43 -11 -66 -23t-32 -25.5t-9 -29.5q0 -27 20.5 -47t62.5 -33zM608 0q-61 0 -94.5 13t-50.5 36q-15 21 -22.5 49.5t-7.5 78.5v426l134 -11v-405q0 -22 3 -36.5t10 -21.5q11 -10 24 -12.5t41 -2.5l-10 -114
h-27zM250 -111q-32 0 -53 21.5t-21 53.5t21 53t53 21q31 0 52 -21t21 -53t-21 -53.5t-52 -21.5z" />
    <glyph glyph-name="nanuktagujr" horiz-adv-x="609" 
d="M569 0q-61 0 -94.5 13t-50.5 36q-15 21 -22.5 49.5t-7.5 78.5v426l134 -11v-405q0 -22 3 -36.5t10 -21.5q11 -10 24 -12.5t41 -2.5l-10 -114h-27zM169 175q-23 0 -48.5 14t-48 37t-37 53t-14.5 61q0 29 15.5 51t61.5 22h341v-114h-202v-45q0 -42 -18 -60.5t-50 -18.5z
M222 -33q-32 0 -53 21.5t-21 53.5t21 53t53 21q31 0 52 -21t21 -53t-21 -53.5t-52 -21.5z" />
    <glyph glyph-name="panuktagujr" horiz-adv-x="607" 
d="M269 157q-46 0 -80.5 12.5t-55.5 33.5q-32 32 -40.5 69t-8.5 91v42q0 23 -3 36.5t-10 20.5q-10 11 -22.5 13.5t-42.5 2.5l10 114h27q62 0 94.5 -13t49.5 -36q18 -24 24.5 -54t6.5 -74v-43q0 -43 6 -60.5t17 -27.5q8 -7 21 -10t26 -3q41 0 72.5 21t49.5 42l2 -137
q-31 -19 -66 -29.5t-77 -10.5zM567 0q-61 0 -94.5 13t-50.5 36q-15 21 -22.5 49.5t-7.5 78.5v426l134 -11v-405q0 -22 3 -36.5t10 -21.5q11 -10 24 -12.5t41 -2.5l-10 -114h-27zM204 -63q-32 0 -53 21.5t-21 53.5t21 53t53 21q31 0 52 -21t21 -53t-21 -53.5t-52 -21.5z" />
    <glyph glyph-name="phanuktagujr" horiz-adv-x="541" 
d="M402 -181q-61 0 -109 22.5t-89 68.5t-81 117l22 95q17 -6 33.5 -10.5t34 -6.5t36.5 -2q49 0 77 16.5t28 47.5q0 16 -9 32t-34.5 33t-76.5 36l-25 31q-31 19 -59 41.5t-45.5 51t-17.5 63.5q0 68 59 108t157 40q26 0 56 -2.5t60 -10.5l-23 -109q-28 6 -47.5 8t-39.5 2
q-49 0 -67.5 -14.5t-18.5 -34.5q0 -16 11.5 -29t35 -26.5t57.5 -30.5l9 -20q45 -20 80 -44t55 -56.5t20 -80.5q0 -41 -22 -79t-73.5 -62t-140.5 -24q-22 0 -45 1t-43 3q-44 5 -73.5 16.5t-44.5 31.5t-15 50q0 26 19 45t51 19q28 0 49.5 -9.5t40 -26t38.5 -37.5l-7 -10
q35 -51 62 -81t55.5 -43t67.5 -13h24l-13 -117h-19zM77 188l-45 107l186 62l263 95l47 -108l-202 -67zM173 -270q-32 0 -53 21.5t-21 53.5t21 53t53 21q31 0 52 -21t21 -53t-21 -53.5t-52 -21.5z" />
    <glyph glyph-name="banuktagujr" horiz-adv-x="796" 
d="M257 149q-66 0 -116 25t-78.5 72t-28.5 111q0 95 64.5 158t172.5 88l31 -116q-55 -13 -93.5 -44t-38.5 -85q0 -37 12.5 -58t33 -29t43.5 -8q20 0 34.5 5t24.5 15q12 12 17.5 33t5.5 65v71l134 -11v-68q0 -111 -51 -167.5t-167 -56.5zM515 222q-27 0 -54 10.5t-50 44.5
l58 96q5 -19 17 -28.5t30 -9.5q35 0 56 19.5t37 40.5l16 -122q-16 -18 -41 -34.5t-69 -16.5zM757 0q-56 0 -91 12t-55 39q-22 29 -25.5 62.5t-3.5 63.5v426l134 -11v-405q0 -22 3 -36.5t10 -21.5q10 -10 23 -12.5t41 -2.5l-9 -114h-27zM323 -67q-32 0 -53 21.5t-21 53.5
t21 53t53 21q31 0 52 -21t21 -53t-21 -53.5t-52 -21.5z" />
    <glyph glyph-name="bhanuktagujr" horiz-adv-x="860" 
d="M212 49q-54 46 -94 95.5t-62 106.5t-22 124q0 65 29.5 116.5t83.5 81.5t127 30q53 0 93 -13t67 -38q32 -29 49.5 -69.5t17.5 -118.5v-25h-134v30q0 35 -6.5 58.5t-17.5 36.5q-10 12 -25.5 18.5t-38.5 6.5q-38 0 -62 -17t-35.5 -44.5t-11.5 -58.5q0 -46 14.5 -85.5
t44.5 -75.5t74 -74zM431 165q-21 0 -46 14t-47 36.5t-36.5 48t-14.5 49.5q0 26 14 44.5t56 18.5h304v-113h-160v-19q0 -43 -18 -61t-52 -18zM820 0q-61 0 -94 13.5t-50 35.5q-16 21 -23.5 49.5t-7.5 78.5v426l134 -11v-405q0 -22 3 -36.5t10 -21.5q11 -10 24 -12.5t41 -2.5
l-10 -114h-27zM447 -67q-32 0 -53 21.5t-21 53.5t21 53t53 21q31 0 52 -21t21 -53t-21 -53.5t-52 -21.5z" />
    <glyph glyph-name="manuktagujr" horiz-adv-x="629" 
d="M590 0q-61 0 -94.5 13t-50.5 36q-15 21 -22.5 49.5t-7.5 78.5v426l134 -11v-405q0 -22 3 -36.5t10 -21.5q11 -10 23.5 -12.5t40.5 -2.5l-9 -114h-27zM182 111q-21 0 -46 14t-47.5 36.5t-36.5 48.5t-14 49q0 26 14 44.5t56 18.5h321v-113h-177v-19q0 -43 -18 -61t-52 -18z
M118 306v99q0 23 -3.5 36.5t-9.5 20.5q-10 11 -23 13.5t-41 2.5l9 114h27q62 0 95 -13t50 -37q10 -14 16.5 -29.5t10 -37.5t3.5 -56v-113h-134zM234 -106q-32 0 -53 21.5t-21 53.5t21 53t53 21q31 0 52 -21t21 -53t-21 -53.5t-52 -21.5z" />
    <glyph glyph-name="yanuktagujr" horiz-adv-x="648" 
d="M293 157q-68 0 -117 24.5t-82.5 68.5t-53.5 102q53 13 89.5 34t36.5 58q0 22 -15.5 35t-49.5 13q-19 0 -35 -3t-24 -6l-28 105q20 8 47 11.5t49 3.5q67 0 108 -22t60.5 -58t19.5 -79q0 -60 -33.5 -97t-89.5 -64l5 58q23 -34 49.5 -52t67.5 -18q39 0 73 15.5t69 52.5
l8 -138q-34 -23 -72 -33.5t-82 -10.5zM608 0q-56 0 -91 12t-55 39q-22 29 -25.5 62.5t-3.5 63.5v426l134 -11v-405q0 -22 3 -36.5t10 -21.5q10 -10 23.5 -12.5t41.5 -2.5l-10 -114h-27zM226 -63q-32 0 -53 21.5t-21 53.5t21 53t53 21q31 0 52 -21t21 -53t-21 -53.5
t-52 -21.5z" />
    <glyph glyph-name="ranuktagujr" horiz-adv-x="477" 
d="M448 0q-51 0 -95 10t-83.5 33t-77.5 62.5t-78 98.5l26 79q40 4 75 19.5t57 41t22 60.5q0 47 -30.5 66t-75.5 19q-36 0 -66 -7t-56 -19l-38 106q36 15 80 24.5t96 9.5q66 0 117.5 -22.5t81 -66.5t29.5 -109q0 -51 -21.5 -93.5t-61 -74.5t-93.5 -49.5t-120 -17.5
q-52 0 -79.5 22t-27.5 59q0 36 24 54.5t61 18.5q29 0 54 -12t57 -44l3 -23q46 -59 84.5 -86t73 -34.5t68.5 -7.5h22l-9 -117h-19zM224 -170q-32 0 -53 21.5t-21 53.5t21 53t53 21q31 0 52 -21t21 -53t-21 -53.5t-52 -21.5z" />
    <glyph glyph-name="lanuktagujr" horiz-adv-x="701" 
d="M296 95q-84 0 -142.5 29t-89 83.5t-30.5 128.5q0 64 31 117.5t95 92.5t161 57l32 -117q-90 -17 -136.5 -54.5t-46.5 -101.5q0 -61 37.5 -91.5t96.5 -30.5q26 0 46.5 4t42.5 14l46 -103q-31 -14 -69.5 -21t-73.5 -7zM286 276l-28 113l263 52l8 -115zM661 0q-61 0 -94.5 13
t-50.5 36q-15 21 -22.5 49.5t-7.5 78.5v426l134 -11v-405q0 -22 3 -36.5t10 -21.5q11 -10 24 -12.5t41 -2.5l-10 -114h-27zM278 -130q-32 0 -53 21.5t-21 53.5t21 53t53 21q31 0 52 -21t21 -53t-21 -53.5t-52 -21.5z" />
    <glyph glyph-name="llanuktagujr" horiz-adv-x="799" 
d="M760 0q-61 0 -94.5 13t-50.5 36q-15 21 -23 49.5t-8 78.5v202q0 38 -4 59t-15 32q-12 12 -35 12q-10 0 -17.5 -2.5t-13.5 -7.5q-11 -8 -15.5 -24.5t-4.5 -52.5v-20q0 -76 -15.5 -122.5t-51.5 -77.5q-25 -22 -62.5 -33.5t-87.5 -11.5q-66 0 -117.5 26t-81 75.5
t-29.5 119.5q0 63 29.5 113.5t82.5 86t125 52.5l31 -116q-55 -15 -93.5 -47.5t-38.5 -89.5q0 -42 13.5 -65t34.5 -32t42 -9q20 0 35.5 6t25.5 16q14 14 19 36.5t5 65.5v23q0 69 13.5 103.5t38.5 57.5t57.5 32t72.5 9q44 0 78 -12t60 -36q25 -23 39.5 -59.5t14.5 -105.5v-193
q0 -22 2.5 -36.5t9.5 -21.5q11 -10 24 -12.5t41 -2.5l-9 -114h-27zM337 -84q-32 0 -53 21.5t-21 53.5t21 53t53 21q31 0 52 -21t21 -53t-21 -53.5t-52 -21.5z" />
    <glyph glyph-name="vanuktagujr" horiz-adv-x="618" 
d="M251 157q-62 0 -111 22.5t-77.5 66t-28.5 106.5q0 61 29 104t79.5 66t116.5 23q34 0 58.5 -2.5t43.5 -5.5l-11 -112q-15 3 -31.5 4.5t-41.5 1.5q-53 0 -80.5 -22.5t-27.5 -60.5q0 -42 26 -59.5t63 -17.5q45 0 80.5 16t71.5 50l-2 -135q-33 -22 -71.5 -33.5t-85.5 -11.5z
M579 0q-61 0 -94.5 13t-50.5 36q-16 21 -23.5 49.5t-7.5 78.5v426l135 -11v-405q0 -22 2.5 -36.5t9.5 -21.5q11 -10 24 -12.5t41 -2.5l-10 -114h-26zM224 -63q-32 0 -53 21.5t-21 53.5t21 53t53 21q31 0 52 -21t21 -53t-21 -53.5t-52 -21.5z" />
    <glyph glyph-name="shanuktagujr" horiz-adv-x="742" 
d="M393 0q-39 0 -74.5 10t-70.5 32t-69 58.5t-70 89.5l47 75q45 5 81.5 23.5t58 50t21.5 73.5q0 31 -13 51t-33.5 30t-42.5 10q-27 0 -38 -10t-11 -26q0 -11 7 -21.5t25 -19t50 -14.5l-39 -90q-88 17 -127.5 55.5t-39.5 93.5q0 38 20 68t59 47t95 17q61 0 111 -22t79.5 -66
t29.5 -112q0 -56 -23.5 -101.5t-66.5 -78t-101 -50t-128 -17.5q-34 0 -58 10t-36.5 28.5t-12.5 43.5q0 34 23.5 53t63.5 19q28 0 55.5 -14t60.5 -47l-3 -18q36 -44 65 -69t59.5 -35t67.5 -10h24l-13 -117h-33zM703 0q-61 0 -94.5 13t-50.5 36q-15 21 -23 49.5t-8 78.5v426
l135 -11v-405q0 -22 2.5 -36.5t9.5 -21.5q11 -10 24 -12.5t41 -2.5l-10 -114h-26zM224 -170q-32 0 -53 21.5t-21 53.5t21 53t53 21q31 0 52 -21t21 -53t-21 -53.5t-52 -21.5z" />
    <glyph glyph-name="ssanuktagujr" horiz-adv-x="615" 
d="M265 158q-46 0 -79 12.5t-54 33.5q-31 31 -39.5 68t-8.5 92v46q0 24 -3 36t-9 19q-8 10 -21 12t-45 2l10 114h17q33 0 55 -1.5t43.5 -10t51.5 -28.5l186 -125q13 -8 25 -17.5t23 -19t20 -18.5l-12 -78l-121 81q-27 19 -52.5 38t-51.5 41t-57 49l65 -14q4 -16 7 -39.5
t3 -61.5v-16q0 -43 6 -60.5t17 -27.5q8 -7 21 -10t26 -3q47 0 80 21t51 42l-9 -137q-32 -19 -67.5 -29.5t-77.5 -10.5zM575 0q-61 0 -94.5 13t-50.5 36q-15 21 -22.5 49.5t-7.5 78.5v426l134 -11v-405q0 -22 3 -36.5t10 -21.5q11 -10 24 -12.5t41 -2.5l-10 -114h-27z
M209 -63q-32 0 -53 21.5t-21 53.5t21 53t53 21q31 0 52 -21t21 -53t-21 -53.5t-52 -21.5z" />
    <glyph glyph-name="sanuktagujr" horiz-adv-x="757" 
d="M448 0q-51 0 -95 10t-83.5 33t-77.5 62.5t-78 98.5l25 79q36 4 68 19t52 40.5t20 61.5q0 47 -29 66t-70 19q-31 0 -61 -7t-54 -19l-37 106q37 15 78 24.5t94 9.5q62 0 110 -22.5t76 -66.5t28 -109q0 -51 -20 -93.5t-57 -74.5t-88 -49.5t-114 -17.5q-52 0 -79 22t-27 59
q0 36 24 54.5t61 18.5q28 0 53 -12t57 -44l4 -23q46 -59 84.5 -86t73 -34.5t67.5 -7.5h22l-9 -117h-18zM453 253q-30 0 -61 7.5t-54 22.5l8 127q21 -21 46 -33t62 -12q39 0 68.5 15t51.5 49l18 -122q-28 -29 -60.5 -41.5t-78.5 -12.5zM717 0q-61 0 -94 13.5t-50 35.5
q-16 21 -23.5 49.5t-7.5 78.5v426l134 -11v-405q0 -22 3.5 -36.5t9.5 -21.5q11 -10 24 -12.5t41 -2.5l-10 -114h-27zM224 -170q-32 0 -53 21.5t-21 53.5t21 53t53 21q31 0 52 -21t21 -53t-21 -53.5t-52 -21.5z" />
    <glyph glyph-name="hanuktagujr" horiz-adv-x="665" 
d="M412 -9q-100 0 -171.5 25t-116.5 68t-66.5 97.5t-21.5 113.5q0 47 11.5 92t31.5 83l125 -49q-13 -28 -22.5 -60t-9.5 -70q0 -56 27 -98t81 -65t134 -23q53 0 103.5 9.5t96.5 32.5l55 -108q-43 -17 -85 -27.5t-84.5 -15.5t-87.5 -5zM447 157q-65 0 -127 28t-115 95l89 61
q32 -40 71 -61.5t77 -21.5q23 0 35.5 7t12.5 25t-18.5 29t-56.5 24q-70 25 -101 58t-31 79q0 56 45 89.5t131 33.5q32 0 57 -3t48 -8l-21 -98q-21 5 -44.5 7.5t-40.5 2.5q-25 0 -36.5 -5.5t-11.5 -18.5t11 -20.5t48 -19.5q88 -28 119 -64.5t31 -89.5q0 -59 -47.5 -94
t-124.5 -35zM333 -209q-32 0 -53 21.5t-21 53.5t21 53t53 21q31 0 52 -21t21 -53t-21 -53.5t-52 -21.5z" />
    <glyph glyph-name="kassagujr" horiz-adv-x="781" 
d="M265 26q-78 0 -128.5 22t-75 59t-24.5 82q0 33 11 58t34.5 46.5t59.5 41.5q-36 27 -54.5 60.5t-18.5 71.5q0 37 20.5 68t61.5 49.5t103 18.5q85 0 136 -32.5t51 -96.5q0 -25 -11 -49.5t-36.5 -48.5t-67.5 -48l8 42q18 -7 37.5 -9.5t48.5 -2.5q47 0 87 11t74 33l20 -45
l-18 -76q-34 -19 -78 -25.5t-103 -6.5q-37 0 -76.5 7.5t-78.5 20.5q-29 -14 -46 -27.5t-23.5 -26.5t-6.5 -28q0 -17 10 -30.5t31.5 -21t55.5 -7.5q15 0 26 1t20.5 3t18.5 4l-27 -55q-3 14 -4.5 25t-1.5 29q0 37 22.5 54.5t54.5 17.5q39 0 58.5 -23.5t19.5 -52.5
q0 -25 -15 -51.5t-56 -44t-119 -17.5zM252 388q22 11 35.5 22.5t19.5 23t6 22.5q0 18 -13 31.5t-44 13.5q-26 0 -42.5 -12.5t-16.5 -35.5q0 -19 16 -36t39 -29zM741 0q-61 0 -94.5 13t-50.5 36q-15 21 -22.5 49.5t-7.5 78.5v426l134 -11v-405q0 -22 3 -36.5t10 -21.5
q11 -10 24 -12.5t41 -2.5l-10 -114h-27zM497 -55q-53 0 -88.5 16.5t-59 46t-40.5 68.5l99 65q18 -35 30.5 -53.5t27.5 -25t39 -6.5h18l-13 -111h-13z" />
    <glyph glyph-name="janyagujr" horiz-adv-x="750" 
d="M365 -64q-59 0 -105 22.5t-83.5 64t-71.5 98.5l73 51q13 -3 28.5 -5t32.5 -2q45 0 67 14.5t22 37.5q0 15 -6.5 25.5t-24 18t-50.5 13.5q-56 10 -99.5 29t-68 53t-24.5 87q0 35 18 67.5t55.5 53t94.5 20.5q45 0 81 -13.5t67.5 -30.5t60.5 -30.5t60 -13.5q26 0 42.5 7
t38.5 20l10 -116q-19 -10 -45.5 -17t-56.5 -7q-46 0 -81.5 13.5t-65 30.5t-55 30.5t-51.5 13.5q-25 0 -33.5 -10.5t-8.5 -23.5q0 -25 25 -36.5t68 -19.5q91 -17 136.5 -54.5t45.5 -104.5q0 -41 -16.5 -71.5t-47 -50.5t-72 -30t-91.5 -10q-60 0 -106.5 9t-73 31t-26.5 60
q0 26 19 44.5t52 18.5q41 0 69 -20.5t59 -52.5h-17q28 -36 49.5 -60t47.5 -36.5t65 -12.5h26l-14 -105h-19zM710 0q-61 0 -94.5 13t-50.5 36q-15 21 -22.5 49.5t-7.5 78.5v426l134 -11v-405q0 -22 3 -36.5t10 -21.5q11 -10 24 -12.5t41 -2.5l-10 -114h-27z" />
    <glyph glyph-name="rephgujr" 
d="M-217 624q-13 25 -25.5 56.5t-12.5 65.5q0 76 49.5 113t126.5 37q34 0 64.5 -4t52.5 -11l-25 -95q-19 6 -34.5 8t-29.5 2q-39 0 -56.5 -19t-17.5 -51q0 -25 8 -45.5t19 -39.5z" />
    <glyph glyph-name="vattugujr" 
d="M-402 -244l-76 98l216 128h79l151 -164l-91 -62l-104 120z" />
    <glyph glyph-name="kaprehalfgujr" horiz-adv-x="541" 
d="M260 -10q-68 0 -129.5 17t-111.5 48l63 97q41 -22 81 -35t86 -13q49 0 77 16t28 47q0 16 -9 32t-34.5 33t-76.5 36l-25 31q-31 19 -59 41.5t-45.5 51t-17.5 63.5q0 68 59 108t157 40q26 0 56 -2.5t60 -10.5l-23 -109q-28 6 -47.5 8t-39.5 2q-49 0 -67.5 -14.5
t-18.5 -34.5q0 -18 15 -33t39 -27.5t50 -25.5l29 -52q47 -17 77 -39.5t44 -50.5t14 -64q0 -39 -21.5 -75.5t-72 -60.5t-137.5 -24zM77 188l-45 107l186 62l58 23h291v-111h-42q-37 0 -64.5 1t-53.5 5l-81 2z" />
    <glyph glyph-name="khaprehalfgujr" horiz-adv-x="597" 
d="M279 157q-54 0 -88.5 13.5t-56.5 33.5q-26 25 -38 59.5t-12 99.5v42q0 23 -3.5 36.5t-9.5 20.5q-10 11 -23 13.5t-42 2.5l10 114h27q62 0 95 -13t50 -37q15 -21 22.5 -49t7.5 -78v-55q0 -34 5 -49t14 -24t21.5 -12.5t22.5 -3.5q19 0 31 4.5t22 14.5q11 11 15.5 29t4.5 49
v119l135 -10v-109q0 -70 -23 -117t-69.5 -70.5t-117.5 -23.5zM529 253q-40 0 -71 21t-47 60l65 75q8 -19 22 -30.5t31 -11.5q14 0 26.5 4t24.5 11l41 -102q-23 -15 -43.5 -21t-48.5 -6z" />
    <glyph glyph-name="gaprehalfgujr" horiz-adv-x="448" 
d="M228 166q-49 0 -89 16t-73 46.5t-61 73.5l99 58q23 -35 48.5 -57t62.5 -22q32 0 54 20t22 78q0 62 -24.5 86.5t-70.5 24.5q-30 0 -56.5 -6.5t-49.5 -17.5l-37 103q32 14 71 24t88 10q68 0 115.5 -27.5t72.5 -78.5t25 -121q0 -60 -16.5 -100.5t-45 -64.5t-63.5 -34.5
t-72 -10.5z" />
    <glyph glyph-name="ghaprehalfgujr" horiz-adv-x="439" 
d="M271 103q-52 0 -96.5 18t-71.5 53.5t-27 86.5q0 47 24 81.5t67 54t100 19.5q23 0 42 -2.5t34 -5.5l-17 -109q-9 2 -22.5 4t-32.5 2q-31 0 -47.5 -11.5t-16.5 -31.5q0 -26 21.5 -36.5t52.5 -10.5q37 0 73 12t76 43l48 -108q-32 -18 -62.5 -31.5t-64.5 -20.5t-80 -7z
M141 312q-37 22 -60.5 46.5t-35 52t-11.5 57.5q0 41 21.5 71t63.5 47t101 17q33 0 61.5 -3.5t47.5 -8.5l-22 -106q-15 4 -32.5 5t-37.5 1q-36 0 -53 -10.5t-17 -28.5q0 -23 20 -39.5t63 -29.5z" />
    <glyph glyph-name="ngaprehalfgujr" horiz-adv-x="543" 
d="M461 338q-30 0 -49.5 20.5t-19.5 50.5t19.5 50t49.5 20q29 0 48.5 -20t19.5 -50t-19.5 -50.5t-48.5 -20.5zM287 -10q-98 0 -165.5 43t-116.5 112l105 62q38 -52 79.5 -77.5t89.5 -25.5q39 0 60 15t21 46q0 21 -10 38t-33 33.5t-62 36.5q-59 31 -91 60t-44 59t-12 63
q0 62 51.5 105t144.5 43q39 0 66 -3.5t53 -8.5l-25 -112q-21 5 -44 8.5t-46 3.5q-34 0 -49.5 -9.5t-15.5 -27.5q0 -14 7 -24.5t26.5 -22.5t57.5 -32q65 -33 100.5 -65t49.5 -66.5t14 -75.5q0 -79 -55 -128.5t-156 -49.5zM424 -266q-33 43 -61 67t-55 34t-58 10
q-17 0 -31.5 -2.5t-23.5 -5.5l-35 109q19 6 42.5 9.5t42.5 3.5q60 0 106 -19.5t85.5 -56.5t77.5 -90z" />
    <glyph glyph-name="caprehalfgujr" horiz-adv-x="481" 
d="M346 112q-46 0 -89 12.5t-81 41t-72 77.5l18 77l12 8q53 8 84.5 29.5t31.5 65.5q0 33 -24 51t-66 18q-22 0 -47 -4.5t-51 -15.5l-38 100q35 14 72 22.5t74 8.5q67 0 113.5 -22.5t71.5 -62.5t25 -95q0 -63 -32.5 -109t-90 -71t-131.5 -25q-31 0 -53.5 10t-34.5 29t-12 44
q0 31 22 51t59 20q32 0 59 -12.5t53 -43.5l-13 -39q26 -31 64 -41.5t76 -10.5q41 0 70.5 13t54.5 34l54 -104q-30 -24 -73.5 -40t-105.5 -16z" />
    <glyph glyph-name="chaprehalfgujr" horiz-adv-x="782" 
d="M333 -10q-94 0 -152 26t-84.5 70t-26.5 97q0 56 29 99t81.5 67.5t123.5 24.5q15 0 31 -1t28 -3l-15 -111q-10 2 -21 2h-20q-46 0 -73.5 -19t-27.5 -54q0 -41 30.5 -62.5t95.5 -21.5q75 0 129 25t88.5 65.5t51 88t16.5 92.5q0 48 -11 73.5t-27.5 35.5t-33.5 10
q-28 0 -39.5 -16.5t-11.5 -35.5q0 -23 21.5 -45.5t82.5 -34.5l-38 -111q-49 12 -91.5 35.5t-69 63t-26.5 99.5q0 41 19 76t57.5 56.5t95.5 21.5q36 0 72.5 -11.5t67 -37.5t49 -71t18.5 -112q0 -77 -26 -145.5t-78.5 -121.5t-131 -83.5t-183.5 -30.5zM146 271
q-36 25 -61 52.5t-38 58t-13 64.5q0 48 22.5 83t64.5 54.5t102 19.5q31 0 59 -3.5t47 -8.5l-22 -109q-15 4 -31.5 5.5t-29.5 1.5q-36 0 -56 -14.5t-20 -40.5q0 -27 20 -50t62 -42zM543 -266q-33 43 -61 67t-55 34t-58 10q-17 0 -31.5 -2.5t-23.5 -5.5l-35 109q19 6 42.5 9.5
t42.5 3.5q60 0 106 -19.5t85.5 -56.5t77.5 -90z" />
    <glyph glyph-name="japrehalfgujr" horiz-adv-x="898" 
d="M604 -10q-70 0 -113.5 26.5t-63 68.5t-19.5 88q0 60 26.5 106.5t70.5 79t97 49.5l32 9q38 11 83.5 15.5t91.5 4.5h93v-112h-130q-28 0 -52.5 -2t-44.5 -7q-50 -9 -80 -31.5t-42.5 -51t-12.5 -56.5q0 -40 17.5 -58.5t46.5 -18.5q32 0 49.5 19t17.5 57q0 57 -26 99.5
t-70 87.5q-42 45 -98 74t-114 43t-105 14q-52 0 -76 -22.5t-24 -54.5q0 -28 15 -43t42 -15q32 0 46.5 16.5t14.5 48.5q0 20 -4.5 37t-15.5 36l107 17q8 -11 20 -41.5t12 -67.5q0 -25 -8.5 -52.5t-29 -51t-55.5 -38.5t-89 -15q-61 0 -102.5 22.5t-62.5 60.5t-21 83
q0 50 26 93t78.5 69.5t131.5 26.5q90 0 167.5 -21.5t146.5 -66t132 -112.5l25 -45q36 -40 53 -87.5t17 -91.5q0 -87 -51.5 -138t-148.5 -51z" />
    <glyph glyph-name="jhaprehalfgujr" horiz-adv-x="694" 
d="M244 -10q-79 0 -133.5 36t-100.5 103l100 60q32 -42 58 -62.5t64 -20.5q24 0 43.5 11t31 39t11.5 78q0 74 -27.5 109t-77.5 35q-34 0 -64 -7.5t-51 -17.5l-37 105q33 15 74 24.5t93 9.5q72 0 122.5 -31.5t77 -89.5t26.5 -139q0 -72 -18.5 -119t-49.5 -74t-68 -38t-74 -11
zM595 245q-24 32 -43.5 43t-48.5 11q-34 0 -60 -16.5t-50 -36.5l-44 118q30 22 72 35t99 13q62 0 108.5 -23.5t80.5 -67.5zM608 319l-134 22v262l134 -11v-273z" />
    <glyph glyph-name="nyaprehalfgujr" horiz-adv-x="509" 
d="M228 166q-49 0 -89 16t-73 46.5t-61 73.5l99 58q23 -35 48.5 -57t62.5 -22q32 0 54 20t22 78q0 60 -23.5 85.5t-71.5 25.5q-30 0 -56.5 -6.5t-49.5 -17.5l-37 103q32 14 71 24t88 10q68 0 115 -27.5t71.5 -78.5t24.5 -121q0 -60 -16.5 -100.5t-44.5 -64.5t-62.5 -34.5
t-71.5 -10.5zM437 309q-31 0 -61 7.5t-53 24.5l7 127q20 -22 45.5 -35t59.5 -13q21 0 41 5t35 15l32 -108q-22 -12 -46.5 -17.5t-59.5 -5.5z" />
    <glyph glyph-name="ttaprehalfgujr" horiz-adv-x="488" 
d="M261 -10q-74 0 -124.5 22.5t-76.5 63.5t-26 94q0 69 45.5 115t131.5 89q42 21 64 34t30.5 23t8.5 23q0 20 -17.5 28.5t-43.5 8.5q-40 0 -75.5 -7.5t-64.5 -19.5l-38 106q41 14 86.5 23.5t96.5 9.5q64 0 106 -18.5t63 -51t21 -75.5q0 -40 -15 -70.5t-51.5 -58
t-101.5 -61.5q-41 -21 -65 -37t-34 -30.5t-10 -33.5q0 -37 26.5 -50t63.5 -13q56 0 103 14.5t80 33.5l53 -106q-54 -24 -108.5 -40t-127.5 -16zM412 -266q-33 43 -61 67t-55 34t-58 10q-17 0 -31.5 -2.5t-23.5 -5.5l-35 109q19 6 42.5 9.5t42.5 3.5q60 0 106 -19.5
t85.5 -56.5t77.5 -90z" />
    <glyph glyph-name="tthaprehalfgujr" horiz-adv-x="550" 
d="M282 -10q-80 0 -135.5 25.5t-84.5 71t-29 104.5q0 62 33.5 106t90 68.5t123.5 24.5l96 -54l5 -59q-22 5 -42.5 6.5t-31.5 1.5q-44 0 -75 -12t-47.5 -33t-16.5 -50q0 -43 30.5 -64.5t81.5 -21.5q47 0 78.5 18.5t31.5 58.5q0 24 -11 43t-38 39.5t-76 47.5l-37 25
q-39 28 -60 61.5t-21 73.5q0 33 19 63.5t59.5 49.5t104.5 19q33 0 62.5 -3.5t57.5 -8.5l-25 -112q-23 7 -46 10t-43 3q-31 0 -45 -7t-14 -21q0 -9 5.5 -17t20 -17.5t41.5 -24.5q71 -37 110 -74t55 -75.5t16 -82.5q0 -85 -63.5 -134t-179.5 -49zM429 -266q-33 43 -61 67
t-55 34t-58 10q-17 0 -31.5 -2.5t-23.5 -5.5l-35 109q19 6 42.5 9.5t42.5 3.5q60 0 106 -19.5t85.5 -56.5t77.5 -90z" />
    <glyph glyph-name="ddaprehalfgujr" horiz-adv-x="522" 
d="M287 -10q-98 0 -165.5 43t-116.5 112l105 62q38 -52 79.5 -77.5t89.5 -25.5q39 0 60 15t21 46q0 21 -10 38t-33 33.5t-62 36.5q-59 31 -91 60t-44 59t-12 63q0 62 51.5 105t144.5 43q39 0 66 -3.5t53 -8.5l-25 -112q-21 5 -44 8.5t-46 3.5q-34 0 -49.5 -9.5t-15.5 -27.5
q0 -14 7 -24.5t26.5 -22.5t57.5 -32q65 -33 100.5 -65t49.5 -66.5t14 -75.5q0 -79 -55 -128.5t-156 -49.5zM424 -266q-33 43 -61 67t-55 34t-58 10q-17 0 -31.5 -2.5t-23.5 -5.5l-35 109q19 6 42.5 9.5t42.5 3.5q60 0 106 -19.5t85.5 -56.5t77.5 -90z" />
    <glyph glyph-name="ddhaprehalfgujr" horiz-adv-x="546" 
d="M302 -10q-86 0 -146 24t-91 65.5t-31 96.5q0 74 45.5 118t124.5 81l34 16q26 12 43 21.5t25.5 20.5t8.5 25q0 17 -15.5 25t-41.5 8q-30 0 -64 -6t-63 -18l-38 106q36 12 79.5 21t88.5 9q94 0 141 -37.5t47 -103.5q0 -35 -12.5 -62.5t-43 -51.5t-84.5 -51l-59 -29
q-50 -25 -66 -45t-16 -47q0 -33 27 -56t77 -23h53q47 0 71.5 13.5t24.5 38.5q0 16 -10 26.5t-29 10.5q-18 0 -33 -11t-15 -35q0 -26 9.5 -46.5t27.5 -41.5l-100 -15q-22 35 -31.5 66.5t-9.5 57.5q0 57 44 90t108 33q75 0 114.5 -39.5t39.5 -98.5q0 -51 -29 -86t-81.5 -52.5
t-123.5 -17.5zM430 -266q-33 43 -61 67t-55 34t-58 10q-17 0 -31.5 -2.5t-23.5 -5.5l-35 109q19 6 42.5 9.5t42.5 3.5q60 0 106 -19.5t85.5 -56.5t77.5 -90z" />
    <glyph glyph-name="nnaprehalfgujr" horiz-adv-x="647" 
d="M442 -160l-102 75q17 14 24.5 28t7.5 24q0 12 -5.5 22t-17.5 19t-32 18l-124 56q-53 24 -80.5 47t-36.5 57t-9 91v326l135 -11v-299q0 -29 3 -49t16.5 -35t46.5 -29l107 -46q81 -34 110 -70t29 -82q0 -44 -20.5 -75.5t-51.5 -66.5zM445 198q-43 0 -80 15t-68 43t-55 68
l91 59q20 -30 41.5 -50.5t52.5 -20.5t47 17.5t16 66.5q0 53 -20.5 74.5t-56.5 21.5q-25 0 -44.5 -5t-45.5 -15l-38 99q29 13 65 22.5t83 9.5q60 0 102.5 -26t65.5 -72.5t23 -110.5q0 -55 -15 -92.5t-40 -60.5t-57 -33t-67 -10z" />
    <glyph glyph-name="taprehalfgujr" horiz-adv-x="387" 
d="M198 10q-51 42 -88 82t-56.5 82.5t-19.5 90.5q0 45 15.5 78t42.5 54q32 25 75.5 36t116.5 11h122v-114h-103q-32 0 -53.5 -2t-35.5 -7.5t-24 -14.5t-15 -21t-5 -29q0 -29 12.5 -53t38.5 -49.5t66 -58.5z" />
    <glyph glyph-name="thaprehalfgujr" horiz-adv-x="473" 
d="M298 135q-63 0 -112 23t-83.5 65.5t-56.5 101.5q54 15 99 36t71.5 48.5t26.5 59.5q0 18 -10.5 29.5t-30.5 11.5q-18 0 -28.5 -9.5t-10.5 -25.5q0 -12 6.5 -23.5t19.5 -21.5l-105 -54q-25 20 -38 46.5t-13 58.5q0 31 18.5 58.5t56 45.5t92.5 18q53 0 86.5 -13.5t51.5 -34
t25 -43.5t7 -43q0 -51 -24 -89t-64 -65.5t-90 -47.5l-16 54q25 -34 54.5 -53t80.5 -19q45 0 81.5 16t63.5 38l58 -99q-49 -36 -99 -52.5t-117 -16.5z" />
    <glyph glyph-name="daprehalfgujr" horiz-adv-x="506" 
d="M313 -10q-84 0 -138 26t-79.5 68.5t-25.5 93.5q0 58 29 102t85 69t137 25q13 0 36 -2t41 -6l-21 -111q-14 2 -31.5 4t-31.5 2q-34 0 -58.5 -9t-37 -27t-12.5 -45q0 -23 13 -41t36.5 -28t56.5 -10q31 0 52 5t35 11l-28 -62q-8 16 -12.5 29t-4.5 30q0 37 22.5 55t54.5 18
q39 0 58.5 -24t19.5 -53q0 -36 -22.5 -63t-66 -42t-107.5 -15zM146 271q-54 38 -83 80.5t-29 94.5q0 48 22.5 83t66.5 54.5t110 19.5q36 0 70.5 -4.5t53.5 -9.5l-22 -109q-19 4 -40.5 6.5t-39.5 2.5q-45 0 -65 -14.5t-20 -40.5q0 -27 20 -50t62 -42zM440 -266q-33 43 -61 67
t-55 34t-58 10q-17 0 -31.5 -2.5t-23.5 -5.5l-35 109q19 6 42.5 9.5t42.5 3.5q60 0 106 -19.5t85.5 -56.5t77.5 -90z" />
    <glyph glyph-name="dhaprehalfgujr" horiz-adv-x="427" 
d="M264 103q-49 0 -92 18t-69.5 53.5t-26.5 86.5q0 47 24 81.5t67 54t99 19.5q23 0 42.5 -2.5t34.5 -5.5l-17 -109q-10 2 -23.5 4t-31.5 2q-32 0 -48 -11.5t-16 -31.5q0 -26 21 -36.5t52 -10.5q38 0 72 12t68 37l46 -108q-35 -20 -65.5 -31.5t-62.5 -16.5t-74 -5zM141 312
q-37 22 -60.5 46.5t-35 52t-11.5 57.5q0 60 46 107t147 75l48 -109q-43 -11 -66 -23t-32 -25.5t-9 -29.5q0 -27 20.5 -47t62.5 -33z" />
    <glyph glyph-name="naprehalfgujr" horiz-adv-x="389" 
d="M169 175q-23 0 -48.5 14t-48 37t-37 53t-14.5 61q0 29 15.5 51t61.5 22h296v-114h-157v-45q0 -42 -18 -60.5t-50 -18.5z" />
    <glyph glyph-name="paprehalfgujr" horiz-adv-x="395" 
d="M269 157q-46 0 -80.5 12.5t-55.5 33.5q-32 32 -40.5 69t-8.5 91v42q0 23 -3 36.5t-10 20.5q-10 11 -22.5 13.5t-42.5 2.5l10 114h27q62 0 94.5 -13t49.5 -36q18 -24 24.5 -54t6.5 -74v-43q0 -43 6 -60.5t17 -27.5q8 -7 21 -10t26 -3q24 0 47 9t45 25l39 -108
q-37 -21 -73 -30.5t-77 -9.5z" />
    <glyph glyph-name="phaprehalfgujr" horiz-adv-x="541" 
d="M402 -181q-61 0 -109 22.5t-89 68.5t-81 117l22 95q17 -6 33.5 -10.5t34 -6.5t36.5 -2q49 0 77 16.5t28 47.5q0 16 -9 32t-34.5 33t-76.5 36l-25 31q-31 19 -59 41.5t-45.5 51t-17.5 63.5q0 68 59 108t157 40q26 0 56 -2.5t60 -10.5l-23 -109q-28 6 -47.5 8t-39.5 2
q-49 0 -67.5 -14.5t-18.5 -34.5q0 -18 14.5 -33t38.5 -28t51 -25l29 -52q47 -17 77 -39.5t44 -50.5t14 -64q0 -39 -22 -75.5t-73.5 -60.5t-140.5 -24q-23 0 -45.5 1t-41.5 3q-44 6 -74 17t-45 31t-15 50q0 26 19 45t51 19q28 0 49.5 -9.5t40 -26t38.5 -37.5l-7 -10
q35 -51 62 -81t55.5 -43t67.5 -13h24l-13 -117h-19zM77 188l-45 107l186 62l56 23h293v-111h-42q-37 0 -64.5 1t-53.5 5l-81 2z" />
    <glyph glyph-name="baprehalfgujr" horiz-adv-x="583" 
d="M257 149q-66 0 -116 25t-78.5 72t-28.5 111q0 95 64.5 158t172.5 88l31 -116q-55 -13 -93.5 -44t-38.5 -85q0 -37 12.5 -58t33 -29t43.5 -8q20 0 34.5 5t24.5 15q12 12 17.5 33t5.5 65v71l134 -11v-68q0 -111 -51 -167.5t-167 -56.5zM515 222q-27 0 -54 10.5t-50 44.5
l58 96q5 -19 17 -28.5t30 -9.5q14 0 27 4t23 12l41 -102q-22 -16 -42.5 -21.5t-49.5 -5.5z" />
    <glyph glyph-name="bhaprehalfgujr" horiz-adv-x="630" 
d="M212 49q-54 46 -94 95.5t-62 106.5t-22 124q0 65 29.5 116.5t83.5 81.5t127 30q53 0 93 -13t67 -38q32 -29 49.5 -69.5t17.5 -118.5v-25h-134v30q0 35 -6.5 58.5t-17.5 36.5q-10 12 -25.5 18.5t-38.5 6.5q-38 0 -62 -17t-35.5 -44.5t-11.5 -58.5q0 -46 14.5 -85.5
t44.5 -75.5t74 -74zM431 165q-21 0 -46 14t-47 36.5t-36.5 48t-14.5 49.5q0 26 14 44.5t56 18.5h288v-113h-144v-19q0 -43 -18 -61t-52 -18z" />
    <glyph glyph-name="maprehalfgujr" horiz-adv-x="406" 
d="M182 111q-21 0 -46 14t-47.5 36.5t-36.5 48.5t-14 49q0 26 14 44.5t56 18.5h307v-113h-163v-19q0 -43 -18 -61t-52 -18zM118 306v99q0 23 -3.5 36.5t-9.5 20.5q-10 11 -23 13.5t-41 2.5l9 114h27q62 0 95 -13t50 -37q10 -14 16.5 -29.5t10 -37.5t3.5 -56v-113h-134z" />
    <glyph glyph-name="yaprehalfgujr" horiz-adv-x="441" 
d="M293 157q-68 0 -117 24.5t-82.5 68.5t-53.5 102q53 13 89.5 34t36.5 58q0 22 -15.5 35t-49.5 13q-19 0 -35 -3t-24 -6l-28 105q20 8 47 11.5t49 3.5q67 0 108 -22t60.5 -58t19.5 -79q0 -60 -33.5 -97t-89.5 -64l5 58q23 -34 49.5 -52t67.5 -18q32 0 59 9t58 34l54 -103
q-40 -28 -82.5 -41t-92.5 -13z" />
    <glyph glyph-name="raprehalfgujr" horiz-adv-x="477" 
d="M448 0q-51 0 -95 10t-83.5 33t-77.5 62.5t-78 98.5l26 79q40 4 75 19.5t57 41t22 60.5q0 47 -30.5 66t-75.5 19q-36 0 -66 -7t-56 -19l-38 106q36 15 80 24.5t96 9.5q66 0 117.5 -22.5t81 -66.5t29.5 -109q0 -51 -21.5 -93.5t-61 -74.5t-93.5 -49.5t-120 -17.5
q-52 0 -79.5 22t-27.5 59q0 36 24 54.5t61 18.5q29 0 54 -12t57 -44l3 -23q46 -59 84.5 -86t73 -34.5t68.5 -7.5h22l-9 -117h-19zM443 -266q-33 43 -61 67t-55 34t-58 10q-17 0 -31.5 -2.5t-23.5 -5.5l-35 109q19 6 42.5 9.5t42.5 3.5q60 0 106 -19.5t85.5 -56.5t77.5 -90z
" />
    <glyph glyph-name="laprehalfgujr" horiz-adv-x="486" 
d="M296 95q-84 0 -142.5 29t-89 83.5t-30.5 128.5q0 64 31 117.5t95 92.5t161 57l32 -117q-90 -17 -136.5 -54.5t-46.5 -101.5q0 -61 37.5 -91.5t96.5 -30.5q26 0 46.5 4t42.5 14l46 -103q-31 -14 -69.5 -21t-73.5 -7zM286 276l-28 113l219 43l21 -113z" />
    <glyph glyph-name="llaprehalfgujr" horiz-adv-x="559" 
d="M262 130q-66 0 -117.5 26t-81 75.5t-29.5 119.5q0 63 29.5 113.5t82.5 86t125 52.5l31 -116q-55 -15 -93.5 -47.5t-38.5 -89.5q0 -42 13.5 -65t34.5 -32t42 -9q20 0 35.5 6t25.5 16q13 13 18.5 36t5.5 66v9q0 53 12.5 82t34.5 48q24 21 55.5 29.5t61.5 8.5q26 0 45 -3.5
t31 -6.5l-29 -109q-7 2 -17.5 4t-20.5 2t-17 -3t-11 -7q-7 -7 -9 -18.5t-2 -26.5v-2q0 -76 -15.5 -123t-51.5 -77q-25 -22 -62.5 -33.5t-87.5 -11.5z" />
    <glyph glyph-name="vaprehalfgujr" horiz-adv-x="427" 
d="M251 157q-62 0 -111 22.5t-77.5 66t-28.5 106.5q0 61 29 104t79.5 66t116.5 23q34 0 58.5 -2.5t43.5 -5.5l-11 -112q-15 3 -31.5 4.5t-41.5 1.5q-53 0 -80.5 -22.5t-27.5 -60.5q0 -42 26 -59.5t63 -17.5q41 0 73 14t64 42l55 -101q-46 -34 -91 -51.5t-108 -17.5z" />
    <glyph glyph-name="shaprehalfgujr" horiz-adv-x="471" 
d="M393 0q-39 0 -74.5 10t-70.5 32t-69 58.5t-70 89.5l47 75q45 5 81.5 23.5t58 50t21.5 73.5q0 31 -13 51t-33.5 30t-42.5 10q-27 0 -38 -10t-11 -26q0 -11 7 -21.5t25 -19t50 -14.5l-39 -90q-88 17 -127.5 55.5t-39.5 93.5q0 38 20 68t59 47t95 17q61 0 111 -22t79.5 -66
t29.5 -112q0 -56 -23.5 -101.5t-66.5 -78t-101 -50t-128 -17.5q-34 0 -58 10t-36.5 28.5t-12.5 43.5q0 34 23.5 53t63.5 19q28 0 55.5 -14t60.5 -47l-3 -18q36 -44 65 -69t59.5 -35t67.5 -10h24l-13 -117h-33z" />
    <glyph glyph-name="ssaprehalfgujr" horiz-adv-x="435" 
d="M265 158q-46 0 -79 12.5t-54 33.5q-25 26 -36.5 60t-11.5 100v46q0 24 -3 36t-9 19q-8 10 -21 12t-45 2l10 114h17q33 0 55 -1.5t43.5 -10t51.5 -28.5l186 -125q10 -6 26 -17.5t31.5 -23t23.5 -19.5v-146q-45 -34 -90 -49t-95 -15zM288 271q35 0 63 13t47 29l-94 62
q-22 15 -42 29.5t-38.5 30.5t-36.5 32l27 6q2 -18 3 -37.5t1 -47.5v-16q0 -43 6 -60.5t17 -27.5q8 -7 21 -10t26 -3z" />
    </font>
</defs>
</svg>
